<?xml version="1.0" standalone="no"?><!DOCTYPE svg PUBLIC "-//W3C//DTD SVG 1.1//EN" "http://www.w3.org/Graphics/SVG/1.1/DTD/svg11.dtd"><svg t="1537947556196" class="icon" style="" viewBox="0 0 1024 1024" version="1.1" xmlns="http://www.w3.org/2000/svg" p-id="3237" xmlns:xlink="http://www.w3.org/1999/xlink" width="256" height="256"><defs><style type="text/css"></style></defs><path d="M41.984 375.296h37.888v-37.888H41.984z" p-id="3238"></path><path d="M117.248 148.992h37.376v-37.888h-37.376v37.888z m0 37.888h37.376v-37.888h-37.376v37.888zM41.984 412.672h37.376v-37.888H41.984v37.888z m37.888 37.888h37.376v-37.888h-37.376V450.56z m-37.888 150.528h37.376V563.2H41.984v37.888z m37.888 0v37.376H41.984v37.888h37.376v-37.376h37.376v-37.888h-36.864z" p-id="3239"></path><path d="M117.248 563.712h37.376v-37.888h-37.376v37.888z m0-37.888h37.376v-37.888h-37.376v37.888z m0-150.528h37.376v-37.888h-37.376v37.888z m0-151.04h37.376v-37.888h-37.376v37.888z" p-id="3240"></path><path d="M117.248 638.976h37.376v-37.888h-37.376v37.888z m0-37.888h37.376V563.2h-37.376v37.888z" p-id="3241"></path><path d="M117.248 827.392h37.376v-37.888h-37.376v37.888z m0-151.04h37.376v-37.888h-37.376v37.888z" p-id="3242"></path><path d="M154.624 186.88h37.376v-37.888h-37.376v37.888z m0-37.888h37.376v-37.888h-37.376v37.888z m-37.376 753.664h37.376v-37.888h-37.376v37.888z m0-37.888h37.376v-37.888h-37.376v37.888z" p-id="3243"></path><path d="M154.624 827.392h37.376v-37.888h-37.376v37.888z m0-188.416h37.376v-37.888h-37.376v37.888z m0-113.152h37.376v-37.888h-37.376v37.888z m0-75.264h37.376v-37.888h-37.376V450.56z m0-37.888h37.376v-37.888h-37.376v37.888z m0-188.416h37.376v-37.888h-37.376v37.888z" p-id="3244"></path><path d="M192 186.88h37.376v-37.888h-37.376v37.888z m0-37.888h37.376v-37.888h-37.376v37.888z m-37.376 753.664h37.376v-37.888h-37.376v37.888z m0-37.888h37.376v-37.888h-37.376v37.888z" p-id="3245"></path><path d="M192 450.56h37.376v-37.888h-37.376V450.56z m0-75.264h37.376v-37.888h-37.376v37.888z m0-151.04h37.376v-37.888h-37.376v37.888z" p-id="3246"></path><path d="M192 563.712h37.376v-37.888h-37.376v37.888z m0-37.888h37.376v-37.888h-37.376v37.888z m0-37.888h37.376v-37.888h-37.376v37.888z" p-id="3247"></path><path d="M192 827.392h37.376v-37.888h-37.376v37.888z m0-151.04h37.376v-37.888h-37.376v37.888z m0-75.264h37.376V563.2h-37.376v37.888z" p-id="3248"></path><path d="M229.376 638.976h37.376v-37.888h-37.376v37.888z m0-75.264h37.376v-37.888h-37.376v37.888z m0-75.776h37.376v-37.888h-37.376v37.888z m0-75.264h37.376v-37.888h-37.376v37.888z m-37.376 489.984h37.376v-37.888h-37.376v37.888z m0-37.888h37.376v-37.888h-37.376v37.888z" p-id="3249"></path><path d="M266.752 676.352h37.376v-37.888h-37.376v37.888z m0-75.264h37.376V563.2h-37.376v37.888z m0-75.264h37.376v-37.888h-37.376v37.888z m0-75.264h37.376v-37.888h-37.376V450.56z m0-75.264h37.376v-37.888h-37.376v37.888z m-37.376 301.056h37.376v-37.888h-37.376v37.888zM304.128 450.56h37.376v-37.888h-37.376V450.56z m0-37.888h37.376v-37.888h-37.376v37.888z" p-id="3250"></path><path d="M304.128 563.712h37.376v-37.888h-37.376v37.888z m0-75.776h37.376v-37.888h-37.376v37.888z" p-id="3251"></path><path d="M378.88 35.84v37.888h-37.376v37.888H378.88v-37.888h37.376V35.84H378.88z m-37.376 188.416H378.88v-37.888h-37.376v37.888z m0 75.264H378.88v-37.888h-37.376v37.888z m0 113.152H378.88v-37.888h-37.376v37.888z m0 75.264H378.88v-37.888h-37.376v37.888z m0 37.888v37.376h-37.376v37.888h37.376v-37.376H378.88v-37.888h-37.376z m0 150.528H378.88v-37.888h-37.376v37.888z m0 37.888H378.88v-37.888h-37.376v37.888z m0 113.152H378.88v-37.888h-37.376v37.888z m0 75.264H378.88v-37.888h-37.376v37.888z m0 75.264H378.88v-37.888h-37.376v37.888z" p-id="3252"></path><path d="M378.88 827.392h37.376v-37.888H378.88v37.888z m0-37.888h37.376v-37.888H378.88v37.888z m0-150.528h37.376v-37.888H378.88v37.888z m0-75.264h37.376v-37.888H378.88v37.888zM378.88 450.56h37.376v-37.888H378.88V450.56z m0-75.264h37.376v-37.888H378.88v37.888z m0-113.152h37.376v-37.888H378.88v37.888z m0-113.152h37.376v-37.888H378.88v37.888z" p-id="3253"></path><path d="M416.256 73.728h37.376V35.84h-37.376v37.888z m0 37.376h37.376v-37.888h-37.376v37.888z m0 113.152h37.376v-37.888h-37.376v37.888z m0 37.888h37.376v-37.888h-37.376v37.888z m0 37.376h37.376v-37.888h-37.376v37.888zM378.88 864.768h37.376v-37.888H378.88v37.888z m0 113.152h37.376v-37.888H378.88v37.888zM453.632 148.992h37.376v-37.888h-37.376v37.888z m0 75.264h37.376v-37.888h-37.376v37.888z m-37.376 113.152h37.376v-37.888h-37.376v37.888z m0 37.888h37.376v-37.888h-37.376v37.888z m0 75.264h37.376v-37.888h-37.376V450.56z m0 75.264h37.376v-37.888h-37.376v37.888z m0 188.416h37.376v-37.888h-37.376v37.888z m0 37.888h37.376v-37.888h-37.376v37.888z m0 112.64h37.376v-37.888h-37.376v37.888z m0 113.152h37.376v-37.888h-37.376v37.888zM453.632 375.296h37.376v-37.888h-37.376v37.888z m0-37.888h37.376v-37.888h-37.376v37.888z" p-id="3254"></path><path d="M453.632 563.712h37.376v-37.888h-37.376v37.888z m0-151.04h37.376v-37.888h-37.376v37.888z" p-id="3255"></path><path d="M491.008 224.256h37.376v-37.888h-37.376v37.888z m0 37.888h37.376v-37.888h-37.376v37.888z m0 37.376h37.376v-37.888h-37.376v37.888z m-37.376 301.568h37.376V563.2h-37.376v37.888z m0 75.264h37.376v-37.888h-37.376v37.888z m0 37.888h37.376v-37.888h-37.376v37.888z m0 75.264h37.376v-37.888h-37.376v37.888z m0 75.264h37.376v-37.888h-37.376v37.888z m0 37.888h37.376v-37.888h-37.376v37.888z m0 75.264h37.376v-37.888h-37.376v37.888zM491.008 450.56h37.376v-37.888h-37.376V450.56z m0-113.152h37.376v-37.888h-37.376v37.888z" p-id="3256"></path><path d="M491.008 563.712h37.376v-37.888h-37.376v37.888z m0-37.888h37.376v-37.888h-37.376v37.888z m0-37.888h37.376v-37.888h-37.376v37.888z" p-id="3257"></path><path d="M491.008 827.392h37.376v-37.888h-37.376v37.888z m0-188.416h37.376v-37.888h-37.376v37.888z m0-37.888h37.376V563.2h-37.376v37.888z" p-id="3258"></path><path d="M528.384 73.728h37.376V35.84h-37.376v37.888z m0 75.264h37.376v-37.888h-37.376v37.888z m0 37.888h37.376v-37.888h-37.376v37.888z m0 75.264h37.376v-37.888h-37.376v37.888z m0 75.264h37.376v-37.888h-37.376v37.888z m0 113.152h37.376v-37.888h-37.376V450.56z m0 113.152h37.376v-37.888h-37.376v37.888z m0 75.264h37.376v-37.888h-37.376v37.888z m0 113.152h37.376v-37.888h-37.376v37.888z m0 74.752h-37.376v37.888h37.376-37.376v37.888h37.376v-37.888h37.376v-37.888h-37.376z m0 75.776h-37.376v37.888h74.752v-37.888h-37.376zM565.76 111.104h37.376v-37.376h-37.376zM565.76 186.88h37.376v-37.888h-37.376v37.888z m0-37.888h37.376v-37.888h-37.376v37.888z" p-id="3259"></path><path d="M565.76 299.52h37.376v-37.888h-37.376v37.888z m0-75.264h37.376v-37.888h-37.376v37.888z" p-id="3260"></path><path d="M565.76 375.296h37.376v-37.888h-37.376v37.888z m0-37.888h37.376v-37.888h-37.376v37.888z" p-id="3261"></path><path d="M565.76 638.976h37.376v-37.888h-37.376v37.888z m0-37.888h37.376V563.2h-37.376v37.888z m0-188.416h37.376v-37.888h-37.376v37.888z" p-id="3262"></path><path d="M565.76 940.544h37.376v-37.888h-37.376v37.888z m0-37.888h37.376v-37.888h-37.376v37.888z m0-188.416h37.376v-37.888h-37.376v37.888z m0-37.888h37.376v-37.888h-37.376v37.888z" p-id="3263"></path><path d="M603.136 111.104h37.376v-37.888h-37.376v37.888z m0 75.776h37.376v-37.888h-37.376v37.888z m0 188.416h37.376v-37.888h-37.376v37.888zM565.76 977.92h37.376v-37.888h-37.376v37.888z" p-id="3264"></path><path d="M640.512 73.728h37.376V35.84h-37.376v37.888z m0 37.376h37.376v-37.888h-37.376v37.888z m-37.376 301.568h37.376v-37.888h-37.376v37.888z m0 113.152h37.376v-37.888h-37.376v37.888z m0 188.416h37.376v-37.888h-37.376v37.888z m0 37.888h37.376v-37.888h-37.376v37.888z m0 112.64h37.376v-37.888h-37.376v37.888z m0 37.888h37.376v-37.888h-37.376v37.888z m0 37.888h37.376v-37.888h-37.376v37.888zM640.512 299.52h37.376v-37.888h-37.376v37.888z m0-150.528h37.376v-37.888h-37.376v37.888z" p-id="3265"></path><path d="M640.512 450.56h37.376v-37.888h-37.376V450.56z m0-75.264h37.376v-37.888h-37.376v37.888z m0-37.888h37.376v-37.888h-37.376v37.888z" p-id="3266"></path><path d="M640.512 752.128h37.376v-37.888h-37.376v37.888z m0-37.888h37.376v-37.888h-37.376v37.888z m0-37.888h37.376v-37.888h-37.376v37.888z m0-112.64h37.376v-37.888h-37.376v37.888z m0-37.888h37.376v-37.888h-37.376v37.888z m0-37.888h37.376v-37.888h-37.376v37.888z" p-id="3267"></path><path d="M640.512 827.392h37.376v-37.888h-37.376v37.888z m0-37.888h37.376v-37.888h-37.376v37.888z" p-id="3268"></path><path d="M640.512 940.544h37.376v-37.888h-37.376v37.888z m0-75.776h37.376v-37.888h-37.376v37.888z" p-id="3269"></path><path d="M677.888 450.56h37.376v-37.888h-37.376V450.56z m-37.376 527.36h37.376v-37.888h-37.376v37.888z" p-id="3270"></path><path d="M677.888 563.712h37.376v-37.888h-37.376v37.888z m0-37.888h37.376v-37.888h-37.376v37.888z m0-37.888h37.376v-37.888h-37.376v37.888z" p-id="3271"></path><path d="M715.264 563.712h37.376v-37.888h-37.376v37.888z m0-37.888h37.376v-37.888h-37.376v37.888z m0-75.264h37.376v-37.888h-37.376V450.56z m0-37.888h37.376v-37.888h-37.376v37.888z m-37.376 527.872h37.376v-37.888h-37.376v37.888z m0-37.888h37.376v-37.888h-37.376v37.888z m0-75.264h37.376v-37.888h-37.376v37.888z m0-151.04h37.376v-37.888h-37.376v37.888z m0-75.264h37.376V563.2h-37.376v37.888z" p-id="3272"></path><path d="M752.64 450.56h37.376v-37.888H752.64V450.56z m-37.376 150.528h37.376V563.2h-37.376v37.888z m0 75.264h37.376v-37.888h-37.376v37.888z m0 75.776h37.376v-37.888h-37.376v37.888z m0 75.264h37.376v-37.888h-37.376v37.888z m0 150.528h37.376v-37.888h-37.376v37.888z" p-id="3273"></path><path d="M752.64 638.976h37.376v-37.888H752.64v37.888z m0-151.04h37.376v-37.888H752.64v37.888z" p-id="3274"></path><path d="M752.64 827.392h37.376v-37.888H752.64v37.888z m0-151.04h37.376v-37.888H752.64v37.888z" p-id="3275"></path><path d="M790.016 148.992h37.376v-37.888h-37.376v37.888z m0 37.888h37.376v-37.888h-37.376v37.888zM752.64 864.768h37.376v-37.888H752.64v37.888z m0 37.888h37.376v-37.888H752.64v37.888z m0 75.264h37.376v-37.888H752.64v37.888z" p-id="3276"></path><path d="M790.016 450.56h37.376v-37.888h-37.376V450.56z m0-75.264h37.376v-37.888h-37.376v37.888z m0-151.04h37.376v-37.888h-37.376v37.888z" p-id="3277"></path><path d="M790.016 638.976h37.376v-37.888h-37.376v37.888z m0-37.888h37.376V563.2h-37.376v37.888z m0-113.152h37.376v-37.888h-37.376v37.888z" p-id="3278"></path><path d="M790.016 752.128h37.376v-37.888h-37.376v37.888z m0-37.888h37.376v-37.888h-37.376v37.888z m0-37.888h37.376v-37.888h-37.376v37.888z" p-id="3279"></path><path d="M790.016 827.392h37.376v-37.888h-37.376v37.888z m0-37.888h37.376v-37.888h-37.376v37.888z" p-id="3280"></path><path d="M827.392 186.88h37.376v-37.888h-37.376v37.888z m0-37.888h37.376v-37.888h-37.376v37.888z m-37.376 791.552h37.376v-37.888h-37.376v37.888z m0-37.888h37.376v-37.888h-37.376v37.888z m0-37.888h37.376v-37.888h-37.376v37.888z" p-id="3281"></path><path d="M827.392 638.976h37.376v-37.888h-37.376v37.888z m0-75.264h37.376v-37.888h-37.376v37.888z m0-37.888h37.376v-37.888h-37.376v37.888z m0-301.568h37.376v-37.888h-37.376v37.888z" p-id="3282"></path><path d="M865.28 186.88h37.376v-37.888H865.28v37.888z m0-37.888h37.376v-37.888H865.28v37.888z m-37.888 791.552h37.376v-37.888h-37.376v37.888z m0-37.888h37.376v-37.888h-37.376v37.888z m0-113.152h37.376v-37.888h-37.376v37.888z m0-75.264h37.376v-37.888h-37.376v37.888z m0-37.888h37.376v-37.888h-37.376v37.888z" p-id="3283"></path><path d="M902.656 450.56h37.376v-37.888h-37.376V450.56z m0-75.264h37.376v-37.888h-37.376v37.888z m-37.376 489.472h37.376v-37.888H865.28v37.888z m0-150.528h37.376v-37.888H865.28v37.888z m0-113.152h37.376V563.2H865.28v37.888z m0-150.528h37.376v-37.888H865.28V450.56z m0-226.304h37.376v-37.888H865.28v37.888z" p-id="3284"></path><path d="M902.656 827.392h37.376v-37.888h-37.376v37.888z m0-75.264h37.376v-37.888h-37.376v37.888z m0-37.888h37.376v-37.888h-37.376v37.888z m0-75.264h37.376v-37.888h-37.376v37.888z m0-37.888h37.376V563.2h-37.376v37.888z m0-75.264h37.376v-37.888h-37.376v37.888z m0-37.888h37.376v-37.888h-37.376v37.888z" p-id="3285"></path><path d="M902.656 940.544h37.376v-37.888h-37.376v37.888z m0-75.776h37.376v-37.888h-37.376v37.888z" p-id="3286"></path><path d="M940.032 412.672h37.376v-37.888h-37.376v37.888z m0 37.888h37.376v-37.888h-37.376V450.56z m0 75.264h37.376v-37.888h-37.376v37.888z m0 37.888h37.376v-37.888h-37.376v37.888z m-37.376 414.208h37.376v-37.888h-37.376v37.888z" p-id="3287"></path><path d="M940.032 601.088h37.376V563.2h-37.376v37.888z m0 113.152h37.376v-37.888h-37.376v37.888z m0 37.888h37.376v-37.888h-37.376v37.888z" p-id="3288"></path><path d="M940.032 789.504h37.376v-37.888h-37.376v37.888z m0 113.152h37.376v-37.888h-37.376v37.888z m0 75.264h37.376v-37.888h-37.376v37.888zM41.984 73.728h37.376V35.84H41.984v37.888z m0 37.376h37.376v-37.888H41.984v37.888zM41.984 148.992h37.376v-37.888H41.984v37.888z m0 37.888h37.376v-37.888H41.984v37.888z" p-id="3289"></path><path d="M41.984 224.256h37.376v-37.888H41.984v37.888z m0 37.888h37.376v-37.888H41.984v37.888z m0 37.376h37.376v-37.888H41.984v37.888z m0 452.608h37.376v-37.888H41.984v37.888z" p-id="3290"></path><path d="M41.984 789.504h37.376v-37.888H41.984v37.888z m0 37.888h37.376v-37.888H41.984v37.888z" p-id="3291"></path><path d="M41.984 864.768h37.376v-37.888H41.984v37.888z m0 37.888h37.376v-37.888H41.984v37.888z m0 37.888h37.376v-37.888H41.984v37.888z" p-id="3292"></path><path d="M79.872 73.728h37.376V35.84h-37.376v37.888z m0 225.792h37.376v-37.888h-37.376v37.888z m0 452.608h37.376v-37.888h-37.376v37.888z m0 187.904H41.984v37.888h74.752v-37.888h-36.864zM117.248 35.84v37.888h74.752V35.84H117.248z m37.376 226.304h-37.376v37.888h74.752v-37.888h-37.376z m0 452.096h-37.376v37.888h74.752v-37.888h-37.376z m0 225.792h-37.376v37.888h74.752v-37.888h-37.376zM192 35.84v37.888h112.128V35.84H192z m74.752 75.264h37.376v-37.888h-37.376v37.888z m-37.376 151.04h-37.376v37.888h74.752v-37.888h-37.376z m0 452.096h-37.376v37.888h74.752v-37.888h-37.376z m0 225.792h-37.376v37.888h74.752v-37.888h-37.376zM266.752 186.88h37.376v-37.888h-37.376v37.888z m0-37.888h37.376v-37.888h-37.376v37.888z" p-id="3293"></path><path d="M266.752 752.128h37.376v-37.888h-37.376v37.888z m0-452.608h37.376v-37.888h-37.376v37.888z m0-37.376h37.376v-37.888h-37.376v37.888z m0-37.888h37.376v-37.888h-37.376v37.888z" p-id="3294"></path><path d="M266.752 827.392h37.376v-37.888h-37.376v37.888z m0-37.888h37.376v-37.888h-37.376v37.888z" p-id="3295"></path><path d="M266.752 940.544h37.376v-37.888h-37.376v37.888z m0-37.888h37.376v-37.888h-37.376v37.888z m0-37.888h37.376v-37.888h-37.376v37.888z" p-id="3296"></path><path d="M715.264 73.728h37.376V35.84h-37.376v37.888z m0 37.376h37.376v-37.888h-37.376v37.888zM266.752 977.92h37.376v-37.888h-37.376v37.888zM715.264 186.88h37.376v-37.888h-37.376v37.888z m0-37.888h37.376v-37.888h-37.376v37.888z" p-id="3297"></path><path d="M752.64 73.728h37.376V35.84H752.64v37.888z m-37.376 150.528h37.376v-37.888h-37.376v37.888z m0 37.888h37.376v-37.888h-37.376v37.888z m0 37.376h37.376v-37.888h-37.376v37.888zM790.016 73.728h37.376V35.84h-37.376v37.888z m0 188.416H752.64v37.888h74.752v-37.888h-37.376z" p-id="3298"></path><path d="M827.392 35.84v37.888h112.128V35.84h-112.128z m75.264 226.304h-74.752v37.888h112.128v-37.888h-37.376zM940.032 73.728h37.376V35.84h-37.376v37.888z m0 37.376h37.376v-37.888h-37.376v37.888zM940.032 148.992h37.376v-37.888h-37.376v37.888z m0 37.888h37.376v-37.888h-37.376v37.888z" p-id="3299"></path><path d="M940.032 224.256h37.376v-37.888h-37.376v37.888z m0 37.888h37.376v-37.888h-37.376v37.888z m0 37.376h37.376v-37.888h-37.376v37.888z" p-id="3300"></path></svg>

