<?xml version="1.0" standalone="no"?><!DOCTYPE svg PUBLIC "-//W3C//DTD SVG 1.1//EN" "http://www.w3.org/Graphics/SVG/1.1/DTD/svg11.dtd"><svg t="1537947347073" class="icon" style="" viewBox="0 0 2184 1024" version="1.1" xmlns="http://www.w3.org/2000/svg" p-id="4200" xmlns:xlink="http://www.w3.org/1999/xlink" width="546" height="256"><defs><style type="text/css"></style></defs><path d="M0 0h45.511111v1024H0zM109.226667 0h91.022222v1024h-91.022222zM262.826667 0h22.755555v1024h-22.755555zM349.297778 0h45.511111v1024h-45.511111zM458.524444 0h91.022223v1024h-91.022223zM612.124444 0h45.511112v1024h-45.511112zM721.351111 0h22.755556v1024h-22.755556zM807.822222 0h45.511111v1024h-45.511111zM915.911111 0h22.755556v1024h-22.755556zM1002.382222 0h45.511111v1024h-45.511111zM1111.608889 0h91.022222v1024h-91.022222zM1265.208889 0h45.511111v1024h-45.511111zM1374.435556 0h45.511111v1024h-45.511111zM1482.524444 0h45.511112v1024h-45.511112zM1591.751111 0h91.022222v1024h-91.022222zM1746.488889 0h45.511111v1024h-45.511111zM1854.577778 0h22.755555v1024h-22.755555zM1941.048889 0h45.511111v1024h-45.511111zM2050.275556 0h45.511111v1024h-45.511111zM2158.364444 0h22.755556v1024h-22.755556z" fill="#333333" p-id="4201"></path></svg>

