<?xml version="1.0" standalone="no"?><!DOCTYPE svg PUBLIC "-//W3C//DTD SVG 1.1//EN" "http://www.w3.org/Graphics/SVG/1.1/DTD/svg11.dtd"><svg t="1537948646686" class="icon" style="" viewBox="0 0 1024 1024" version="1.1" xmlns="http://www.w3.org/2000/svg" p-id="4479" xmlns:xlink="http://www.w3.org/1999/xlink" width="48" height="48"><defs><style type="text/css"></style></defs><path d="M749.54 272.285c0 0 96.599-0.96 96.599 94.681 0 0 8.94 92.58-96.599 94.62 0 0-94.56 2.041-93.6-94.62 0-0.060-1.020-85.74 93.6-94.681z" p-id="4480" fill="#bfbfbf"></path><path d="M939.801 126.845c0 0 50.82 3.959 50.82 48.78v668.281c0 0-3.001 47.82-50.82 48.841v-765.9z" p-id="4481" fill="#bfbfbf"></path><path d="M33.38 843.965c0 0 2.041 48.841 48.841 48.841h857.58v-141.42h-93.479l-190.38-193.26-143.46 144.361-195.18-240.96-192.24 287.879-42.78 0.96-1.079-574.681h-47.82v668.281z" p-id="4482" fill="#bfbfbf"></path><path d="M939.801 126.845h-857.58c0 0-48.839-1.020-48.839 48.78h906.42v-48.78z" p-id="4483" fill="#bfbfbf"></path></svg>

