<?xml version="1.0" standalone="no"?>
<!DOCTYPE svg PUBLIC "-//W3C//DTD SVG 1.1//EN" "http://www.w3.org/Graphics/SVG/1.1/DTD/svg11.dtd" >
<!--
2013-9-30: Created.
-->
<svg>
<metadata>
Created by iconfont
</metadata>
<defs>

<font id="iconfont" horiz-adv-x="1024" >
  <font-face
    font-family="iconfont"
    font-weight="500"
    font-stretch="normal"
    units-per-em="1024"
    ascent="896"
    descent="-128"
  />
    <missing-glyph />
    
    <glyph glyph-name="vip" unicode="&#58905;" d="M990.82695128 725.47991861a18.93475465 18.93475465 0 0 1-13.90457153 6.13436972H34.68317971a18.93475465 18.93475465 0 0 1-13.90457154-6.13436972 21.83835642 21.83835642 0 0 1-5.7254117-14.92696625v-653.06500844c0-5.43914113 1.92210264-10.79649107 5.7254117-14.92696694 3.84420532-4.08957959 8.87438842-6.17526532 13.90457153-6.17526531h942.23920004c5.03018312 0 10.06036623 2.04479013 13.90457153 6.17526531 3.80330903 4.08957959 5.72541169 9.48782512 5.72541237 14.88607066V710.5529523600001a21.83835642 21.83835642 0 0 1-5.72541237 14.88607066zM950.50369383 77.28151022999998H60.0385746l1.02239541 327.16638904H951.56698483l-1.02239471-327.16638904z m1.0223954 368.0621876H61.06097001L60.0385746 543.4936146h890.50601552L951.56698483 445.34369783z m0 139.04571533H60.0385746V682.53932993h891.52841023v-98.14991677zM96.84479358 322.65630217h458.03294453v-40.89579854H96.84479358v40.89579854z m-1e-8-122.68739631h294.44975035v-40.89579855H96.84479358v40.89579855z"  horiz-adv-x="1024" />

    
    <glyph glyph-name="wqqd" unicode="&#58932;" d="M828.99968 557.38368l-0.94208-0.26112v-0.9728c0-14.73536-0.0256-24.67328-0.0512-33.52064-0.02048-7.09632-0.03584-13.48608-0.03584-21.07904v-1.70496l85.03808 24.66304v-448.58368l-262.2464-69.25312 0.32256-1.23904L338.05824 92.15999999999997l-0.39936 1.21344-216.79616-71.23968v441.5488l85.57056 21.87776V541.4656l-137.96864-33.75104v-556.43136l269.86496 86.80448 312.42752-86.5536 0.33792-0.09728 314.3168 87.05536V594.86208l-136.41216-37.4784zM706.92864 734.81728c-51.00032 48.92672-118.4768 75.87328-189.99296 75.87328-71.22432 0-138.53696-26.94656-189.53728-75.87328-53.00736-50.82112-81.8944-118.67136-81.34144-191.03232 0-0.56832 0.03584-14.1824 3.15904-35.42016C266.9568 405.93408 349.696 287.15520000000004 397.3632 225.56672000000003c2.00704-2.86208 3.89632-4.98176 4.99712-6.10304 41.66144-50.2784 84.00384-83.77344 84.4032-84.08576L517.12 111.30880000000002l30.18752 24.22272c0.40448 0.31744 42.22976 33.7408 84.096 84.20352 1.99168 2.10944 3.68128 4.1984 5.07904 6.26688 58.40896 75.84256 131.51232 186.368 148.04992 282.26048 3.18976 21.87264 3.28192 35.21024 3.28192 36.63872 0.54784 71.92064-28.17536 139.3664-80.88576 189.91616z m31.04256-189.89568c0-0.10752-0.03584-11.1104-2.65728-28.9536-15.77984-91.52-94.42304-204.0064-140.13952-263.28064-0.22528-0.42496-0.83456-1.024-1.50016-1.70496-33.94048-41.21088-68.9664-71.07584-76.75392-77.5424-7.80288 6.40512-42.83904 35.94752-76.98432 77.37344a9.77408 9.77408 0 0 0-1.48992 1.81248C401.90976 299.66848000000005 315.12576 419.4304 298.55744 515.072c-2.62144 17.86368-2.6624 28.90752-2.6624 29.03552-0.41984 57.5232 21.90848 111.92832 62.8736 153.19552 42.05056 42.35776 98.22208 65.6896 158.16192 65.6896 60.21632 0 116.5312-23.3216 158.57152-65.66912 40.704-41.00608 62.88896-95.12448 62.46912-152.40192zM516.93568 639.8361600000001c-59.25888 0-107.47392-48.21504-107.47392-107.47392 0-59.264 48.21504-107.47392 107.47392-107.47392s107.47392 48.21504 107.47392 107.47392c0 59.264-48.21504 107.47392-107.47392 107.47392z m57.18016-107.4688c0-31.52896-25.6512-57.18016-57.18016-57.18016-31.52896 0-57.17504 25.6512-57.17504 57.18016 0 31.52896 25.6512 57.17504 57.17504 57.17504 31.52896 0 57.18016-25.6512 57.18016-57.17504z"  horiz-adv-x="1024" />

    
    <glyph glyph-name="sound1" unicode="&#58985;" d="M546.9184 230.50239999999997h-0.0512zM868.16256 740.21376c-36.01408 36.0448-83.98848 55.89504-135.0912 55.89504-51.09248 0-99.08736-19.85024-135.13216-55.89504l-157.0816-157.0816a27.9552 27.9552 0 0 1-8.23808-19.91168c0-7.53152 2.92352-14.59712 8.23808-19.91168s12.38016-8.23808 19.91168-8.23808 14.59712 2.92352 19.91168 8.23808l157.0816 157.0816c25.4208 25.41568 59.25888 39.41376 95.28832 39.41376s69.86752-13.99808 95.28832-39.41376 39.41376-59.25888 39.41376-95.29344c0-36.02944-13.99296-69.87264-39.41376-95.28832l-186.15808-186.1632c-25.4208-25.41568-59.25888-39.41376-95.28832-39.41376-36.03456 0-69.87264 13.99808-95.29344 39.41376-5.31456 5.31456-12.38016 8.23808-19.91168 8.23808s-14.59712-2.92352-19.90656-8.23808c-5.31456-5.30944-8.23808-12.38016-8.23808-19.90656s2.92864-14.59712 8.23808-19.91168c36.03456-36.03456 84.01408-55.8848 135.10656-55.89504 51.09248 0.01024 99.07712 19.86048 135.11168 55.89504l186.1632 186.1632c36.03968 36.01408 55.87968 83.98848 55.87456 135.0912 0 51.0976-19.84512 99.08736-55.87456 135.13216zM239.7184-76.69759999999997h-0.0512zM560.96256 433.01376c-36.01408 36.0448-83.9936 55.89504-135.0912 55.89504-51.09248 0-99.08736-19.85024-135.12704-55.89504l-186.1632-186.1632c-36.0448-36.01408-55.89504-83.98848-55.89504-135.08608s19.85024-99.08736 55.89504-135.13216c36.03456-36.03456 84.01408-55.8848 135.10656-55.89504 51.09248 0.01024 99.07712 19.86048 135.11168 55.89504l157.0816 157.0816c5.31456 5.31456 8.23808 12.38528 8.23808 19.91168s-2.92352 14.60224-8.23808 19.91168a27.9552 27.9552 0 0 1-19.91168 8.23808c-7.5264 0-14.59712-2.92352-19.91168-8.23808l-157.0816-157.08672c-25.41568-25.41568-59.25888-39.41376-95.28832-39.41376-36.03456 0-69.87264 13.99808-95.29344 39.41376-52.54144 52.54656-52.54144 138.04544 0 190.58688l186.1632 186.1632c25.41568 25.41568 59.25888 39.41376 95.28832 39.41376s69.87264-13.99808 95.28832-39.41376c5.31456-5.31456 12.38528-8.23808 19.91168-8.23808s14.59712 2.92352 19.91168 8.23808 8.23808 12.38016 8.23808 19.91168a27.87328 27.87328 0 0 1-8.23296 19.90144z"  horiz-adv-x="1024" />

    
    <glyph glyph-name="wenjuandiaocha1" unicode="&#59021;" d="M156.101061 392.892092c-1.060901 106.402723 37.982302 204.635996 109.944184 276.597878 92.221502 92.221502 233.372573 124.924925 369.275516 88.331532l-95.281201-95.281202a30.658498 30.658498 0 0 1 43.358558-43.358558l127.666867 127.666867a30.617497 30.617497 0 0 1 8.517958 26.942782 30.673874 30.673874 0 0 1-19.695856 27.450171c-80.443964 30.745626-166.494815 39.986226-248.855575 26.712152-88.311031-14.232472-167.268709-54.034194-228.3397-115.105185-42.38991-42.38991-75.042082-92.626386-97.04937-149.305146-21.069389-54.264825-31.447768-111.886607-30.853253-171.261181 0.589389-59.143944 12.033794-116.693974 34.005205-171.045926 22.811932-56.422503 55.863864-106.520601 98.248649-148.91051a30.561121 30.561121 0 0 1 21.679279-8.979219 30.658498 30.658498 0 0 1 21.67928 52.337777c-71.592873 71.592873-113.255015 172.62959-114.300541 277.207768zM934.868949 546.768849c-22.806807 56.422503-55.863864 106.520601-98.248649 148.91051a30.658498 30.658498 0 0 1-43.358558-43.358558c151.278318-151.278318 153.271992-404.884885 4.351231-553.805646-67.405646-67.405646-160.934054-103.02014-259.464585-103.015015-36.270511 0-73.222663 4.858619-109.79043 14.703984l95.260701 95.260701a30.658498 30.658498 0 0 1-43.358559 43.358558l-127.666867-127.666866a30.617497 30.617497 0 0 1-8.517958-26.942783 30.673874 30.673874 0 0 1 19.695856-27.45017c56.576256-21.622903 115.92008-32.606046 174.812893-32.606046 24.841481 0 49.611211 1.957798 74.047808 5.893893 88.311031 14.227347 167.273834 54.029069 228.344825 115.10006 42.38991 42.38991 75.042082 92.626386 97.044244 149.305146 21.069389 54.264825 31.447768 111.886607 30.853253 171.266306-0.589389 59.138819-12.028669 116.688849-34.005205 171.045926zM759.005405 386.864945c-9.2201 9.225225-25.266867 9.276476-34.543343 0.148629a199.403243 199.403243 0 0 1-2.46006 26.691651c-6.180901 38.330811-23.483323 72.633273-50.051972 99.201922-35.737497 35.737497-84.298058 55.417978-136.733213 55.417978-53.434555 0-103.168769-20.305746-140.044044-57.181021a24.564725 24.564725 0 0 1 0-34.697097c9.261101-9.271351 25.430871-9.271351 34.697097 0 27.332292 27.332292 65.72973 43.01005 105.346947 43.01005 39.202082 0 75.441842-14.647608 102.036116-41.241882 37.941301-37.946426 48.714314-98.438278 27.434795-154.112512a24.385345 24.385345 0 0 1 0.522762-18.773334 24.5596 24.5596 0 0 1 22.391672-14.529729 24.713353 24.713353 0 0 1 18.988589 8.999719c0.22038 0.19988 0.445886 0.39976 0.661141 0.615015l51.753513 51.753514a24.5596 24.5596 0 0 1 0 34.697097zM639.261982 280.33921899999996c-27.327167-27.327167-65.724605-43.004925-105.341822-43.004925h-0.01025c-39.191832 0-75.426466 14.647608-102.025866 41.241882-37.946426 37.951552-48.714314 98.443403-27.43992 154.117638a24.56985 24.56985 0 0 1-14.160721 31.678398c-9.696737 3.695215-21.233393 0.568889-27.747427-7.385305a12.074795 12.074795 0 0 1-0.650891-0.60989L310.131572 404.618378c-4.633113-4.633113-7.190551-10.793514-7.190551-17.348548s2.552312-12.715435 7.190551-17.348549c9.20985-9.214975 25.251491-9.276476 34.543343-0.153753 0.225506-9.004845 1.050651-17.937938 2.46006-26.686527 6.170651-38.315435 23.478198-72.623023 50.051972-99.201922 35.737497-35.732372 84.292933-55.417978 136.728088-55.417978 52.660661 0 103.706907 20.838759 140.044044 57.181021a24.5596 24.5596 0 0 1 0 34.697097c-9.276476 9.276476-25.435996 9.266226-34.697097 0z"  horiz-adv-x="1025" />

    
    <glyph glyph-name="gouwuche" unicode="&#58920;" d="M1007.4 670.3c-4.6 5.9-11.7 9.7-19.2 9.7L201.2 680 167.8 855.5C165.6 867 155.5 875 143.7 875L34 875C20.5 875 9.6 864 9.6 850.5S20.5 826 34 826l89.5 0L155 650.6c0-0.1 0-0.2 0-0.4l98.8-513.6C256 125.1 267 117 278.7 117l587.2 0c13.5 0 24.5 11 24.5 24.5s-11 24.5-24.5 24.5L298.9 166l-15.1 77.2 612.3-3.2c0 0 0 0 0 0 11.3 0 21.2 9.5 23.8 20.5l92 389C1013.7 656.9 1012 664.5 1007.4 670.3zM876.8 292.3l-602.3 1.2-44.6 233.9L210.5 630l746.8 0L876.8 292.3zM353.1 66.6c-47.2 0-85.6-38.4-85.6-85.6s38.4-85.6 85.6-85.6c47.2 0 85.6 38.4 85.6 85.6S400.3 66.6 353.1 66.6zM353.1-55.8c-20.2 0-36.7 16.5-36.7 36.7 0 20.2 16.5 36.7 36.7 36.7 20.2 0 36.7-16.5 36.7-36.7C389.8-39.3 373.3-55.8 353.1-55.8zM769 66.6c-47.2 0-85.6-38.4-85.6-85.6s38.4-85.6 85.6-85.6c47.2 0 85.6 38.4 85.6 85.6S816.3 66.6 769 66.6zM769-55.8c-20.2 0-36.7 16.5-36.7 36.7 0 20.2 16.5 36.7 36.7 36.7 20.2 0 36.7-16.5 36.7-36.7C805.7-39.3 789.3-55.8 769-55.8z"  horiz-adv-x="1024" />

    
    <glyph glyph-name="gouwu" unicode="&#58966;" d="M256.180102 667.180548c28.255531 0 51.16224-23.068392 51.16224-51.484581 0-28.444842-22.906709-51.486628-51.16224-51.486628-28.252461 0-51.15917 23.042809-51.15917 51.486628C205.020932 644.112156 227.927641 667.180548 256.180102 667.180548L256.180102 667.180548zM256.180102 667.180548M767.815805 667.180548c28.251438 0 51.16224-23.068392 51.16224-51.484581 0-28.444842-22.910802-51.486628-51.16224-51.486628-28.278043 0-51.187823 23.042809-51.187823 51.486628C716.626959 644.112156 739.537761 667.180548 767.815805 667.180548L767.815805 667.180548zM767.815805 667.180548M870.136192-79.37658299999998L153.863808-79.37658299999998c-56.458873 0-102.352109 46.193065-102.352109 102.97121L51.511699 744.40435c0 56.779168 45.892213 102.972233 102.352109 102.972233l716.272383 0c56.429197 0 102.352109-46.193065 102.352109-102.972233l0-720.810746C972.487278-33.18351800000005 926.564365-79.37658299999998 870.136192-79.37658299999998L870.136192-79.37658299999998zM153.863808 795.893025c-28.230971 0-51.187823-23.12365-51.187823-51.487651l0-720.810746c0-28.364001 22.956851-51.487651 51.187823-51.487651l716.272383 0c28.226878 0 51.16224 23.124673 51.16224 51.487651L921.298432 744.40435c0 28.364001-22.935362 51.487651-51.16224 51.487651L153.863808 795.8920009999999 153.863808 795.893025zM153.863808 795.893025M511.985162 332.52974500000005c-155.156756 0-281.409205 127.009695-281.409205 283.166221 0 14.205537 11.455913 25.743314 25.605168 25.743314 14.127765 0 25.552979-11.537777 25.552979-25.743314 0-127.766942 103.296621-231.683686 230.252081-231.683686s230.251058 103.916744 230.251058 231.683686c0 14.205537 11.449773 25.743314 25.579585 25.743314 14.128789 0 25.578562-11.537777 25.578562-25.743314C793.394367 459.53944 667.140894 332.52974500000005 511.985162 332.52974500000005L511.985162 332.52974500000005zM511.985162 332.52974500000005"  horiz-adv-x="1024" />

    
    <glyph glyph-name="baoxiao" unicode="&#58929;" d="M512 835.82976c-249.1392 0-451.82976-202.69056-451.82976-451.82976S262.8608-67.82975999999996 512-67.82975999999996 963.82976 134.86080000000004 963.82976 384 761.1392 835.82976 512 835.82976z m0-850.97472c-220.08832 0-399.14496 179.05664-399.14496 399.14496S291.91168 783.14496 512 783.14496 911.14496 604.0883200000001 911.14496 384 732.08832-15.14495999999997 512-15.14495999999997zM709.2736 620.34944a26.17344 26.17344 0 0 1-18.63168-7.71584L512 433.98656 333.35296 612.6336a26.1632 26.1632 0 0 1-18.62656 7.71584 26.1632 26.1632 0 0 1-18.62656-7.71584 26.15296 26.15296 0 0 1-7.71584-18.62656c0-7.03488 2.7392-13.64992 7.71584-18.62656l152.30464-152.30464H352.128c-14.52544 0-26.3424-11.81696-26.3424-26.3424s11.81696-26.3424 26.3424-26.3424h133.88288v-78.88896H363.80672c-14.52544 0-26.3424-11.82208-26.3424-26.34752s11.81696-26.3424 26.3424-26.3424h122.20928v-126.45376c0-14.52544 11.81696-26.3424 26.3424-26.3424s26.3424 11.81696 26.3424 26.3424v126.45376h122.20928c14.52544 0 26.3424 11.81696 26.3424 26.3424s-11.81696 26.34752-26.3424 26.34752h-122.20928v78.88896h133.87776c14.52544 0 26.3424 11.81696 26.3424 26.3424s-11.81696 26.3424-26.3424 26.3424h-96.97792l152.30464 152.30464a26.368 26.368 0 0 1 0 37.25312 26.2144 26.2144 0 0 1-18.63168 7.71584z"  horiz-adv-x="1024" />

    
    <glyph glyph-name="weifenxiaopcjiemianzhuanhuan" unicode="&#59026;" d="M797.57121189 629.08636348a29.82272695 29.82272695 0 0 1-41.27727217-1e-8l-187.15909131-187.19999999-98.1 98.14090957a29.94545479 29.94545479 0 0 1-41.27727304 0l-163.26818174-163.30909131a29.12727305 29.12727305 0 0 1 41.23636435-41.23636348l142.65 142.65 98.14090869-98.14090957a29.86363652 29.86363652 0 0 1 41.27727305 0l207.77727217 207.81818262a29.16818174 29.16818174 0 0 1 0 41.27727217zM924.79848493 833.59090869H98.14848493C55.43939363 833.59090869 20.66666667 797.46818174 20.66666667 753.04090869v-536.93181738c0-44.38636348 34.77272695-80.55 77.48181826-80.55h387.4909087v-107.38636436h-180.81818174a26.34545479 26.34545479 0 0 1-25.81363652-26.83636348c0-14.80909131 11.57727305-26.83636348 25.81363652-26.83636347h413.30454609a26.38636347 26.38636347 0 0 1 25.85454521 26.83636347 26.38636347 26.38636347 0 0 1-25.85454521 26.83636348h-180.81818261v107.38636436h387.49090956c42.70909131 0 77.48181826 36.12272695 77.48181826 80.55V753.04090869c0 44.42727305-34.77272695 80.55-77.48181826 80.55z m16.32272696-607.66363564a25.69090869 25.69090869 0 0 0-25.28181826-26.01818174H107.31212146a25.69090869 25.69090869 0 0 0-25.28181826 26.01818174V746.61818174c0 14.35909131 11.33181826 26.01818174 25.28181826 26.01818174h808.56818174c13.95 0 25.28181826-11.65909131 25.28181826-26.01818174v-520.69090869z"  horiz-adv-x="1030" />

    
    <glyph glyph-name="liwu" unicode="&#59080;" d="M928.450058 675.724132c-14.63644 14.64154-33.566915 22.066855-56.266146 22.066856h-56.628232c15.585003 20.781704 23.479501 44.4091 23.479501 70.285509 0 31.848281-11.341966 59.392326-33.70971 81.862066-22.362644 22.367744-49.90159 33.70971-81.862066 33.70971-31.914578 0-59.453524-11.306267-81.805968-33.561815L481.809156 706.2260650000001 322.124069 849.933463c-22.367744 22.367744-49.911789 33.70971-81.862067 33.70971-31.950277 0-59.494322-11.341966-81.862066-33.70971-22.367744-22.367744-33.70971-49.911789-33.709709-81.862066 0-25.835611 7.868999-49.468106 23.403004-70.285509h-56.556835c-22.699231 0-41.634806-7.425316-56.271246-22.066855-14.646639-14.646639-22.071955-33.612813-22.071955-56.373242V489.290569c0-14.600741 8.042392-22.643133 22.643133-22.643133h14.483446v-516.248137c0-22.694131 7.461014-41.665405 22.18415-56.383442 14.743536-14.63644 33.674011-22.056656 56.261047-22.056655h706.180166c22.689031 0 41.660305 7.455915 56.373242 22.168851 14.64154 14.64154 22.066855 33.577115 22.066855 56.271246V466.647436h14.488546c14.605841 0 22.648233 8.042392 22.648233 22.643133V619.3508899999999c0 22.755329-7.425316 41.726603-22.071955 56.373242z m-60.447986-725.42173c0-22.546237-10.505598-33.046735-33.046735-33.046734H504.554285V466.647436h363.447787v-516.345034zM541.277979 697.8929840000001l125.557194 114.291725 6.849038 7.221323c13.116698 12.754612 29.400375 18.955974 49.774094 18.955974 20.506315 0 37.503964-6.690944 50.513566-19.889238 13.0504-12.953504 19.664847-29.940954 19.664848-50.493167 0-20.740906-6.435954-37.259174-19.664848-50.488067-12.606717-12.520021-28.757799-19.129368-47.963664-19.654648l-184.730228 0.056098z m363.952668-78.542094v-107.412088H504.554285V652.402725h367.629627c22.546237 0 33.046735-10.500498 33.046735-33.051835zM459.166023 466.647436V-82.65253600000005H128.770071c-22.546237 0-33.051835 10.505598-33.051835 33.046735V466.647436H459.166023zM169.981593 768.071397c0 20.63891 6.471652 37.192876 19.777043 50.605363 13.244193 13.239093 29.762461 19.675047 50.503366 19.675047 19.975935 0 36.687996-6.349257 49.6568-18.848879l3.671859-3.682059 128.770071-117.927885H240.160006c-20.740906 0-37.264273 6.435954-50.503366 19.675047s-19.675047 29.762461-19.675047 50.503366z m289.281326-115.571776V512.035699H58.586557V619.4477870000001c0 22.551337 10.505598 33.051835 33.051835 33.051834h367.624527z"  horiz-adv-x="1024" />

    
    <glyph glyph-name="kaoqinqiandao" unicode="&#59135;" d="M949.7344 416.48128l-90.74688 44.4416c-3.6608 2.0736-7.2192 3.1232-10.57792 3.1232-4.83328 0-11.70432-2.20672-16.95744-12.71296-4.9408-9.87648-1.4848-19.10784 9.76896-25.47712l56.58624-27.48928-386.86208-246.26176-386.86208 246.26688 56.87296 27.63776c10.96704 6.21568 14.42304 15.44704 9.48224 25.32352-5.25312 10.51136-12.12416 12.71296-16.95744 12.71296-3.35872 0-6.91712-1.05472-10.30656-2.98496l-90.69056-44.43648c-8.1664-3.31264-12.48256-9.45152-12.48256-17.75104 0-8.20736 4.18304-14.27968 12.1088-17.59232l430.1824-269.02528c2.18112-1.89952 5.08928-2.86208 8.65792-2.86208 3.57376 0 6.48192 0.96256 8.66304 2.8672l430.17728 269.02016c7.92576 3.30752 12.1088 9.38496 12.1088 17.59232-0.00512 8.30464-4.32128 14.44352-12.16512 17.60768zM949.7344 242.27328l-90.74688 44.4416c-3.6608 2.06848-7.2192 3.1232-10.5728 3.1232-4.8384 0-11.70944-2.21184-16.95744-12.71808-4.9408-9.87648-1.4848-19.10272 9.76896-25.472l56.58624-27.48928-386.86208-246.26176-386.86208 246.26176 56.87296 27.63776c10.96704 6.21568 14.41792 15.44704 9.48224 25.3184-5.25312 10.51136-12.12416 12.71808-16.95744 12.71808-3.35872 0-6.91712-1.05472-10.30656-2.97984l-90.69056-44.4416c-8.1664-3.31264-12.48256-9.45152-12.48256-17.75104 0-8.20736 4.18304-14.27968 12.1088-17.59232l430.1824-269.02016c2.18624-1.89952 5.0944-2.8672 8.65792-2.8672 3.56864 0 6.4768 0.96256 8.66304 2.87232l430.1824 269.01504c7.92064 3.30752 12.10368 9.38496 12.10368 17.59232-0.01024 8.30976-4.33152 14.44352-12.17024 17.6128zM72.10496 555.4995200000001l430.17728-269.01504c2.18112-1.90464 5.08928-2.87232 8.66304-2.87232s6.48704 0.96256 8.66304 2.87232l430.17728 269.01504c7.92576 3.30752 12.1088 9.37984 12.1088 17.5872 0 8.16128-4.17792 14.23872-12.09344 17.59232l-430.6432 274.41152-1.06496 0.4864a22.93248 22.93248 0 0 1-14.29504 0l-0.55296-0.1792-431.15008-274.71872c-7.91552-3.3536-12.09344-9.42592-12.09344-17.59232 0-8.20224 4.18304-14.27968 12.10368-17.5872z m51.14368 17.5872L510.94528 824.9856l387.69664-251.89888-387.69664-246.76864-387.69664 246.76864z"  horiz-adv-x="1024" />

    
    <glyph glyph-name="lanqiu" unicode="&#59022;" d="M512 832.208115c-247.13868 0-448.208115-201.069435-448.208115-448.208115s201.069435-448.208115 448.208115-448.208115 448.208115 201.069435 448.208115 448.208115S759.137657 832.208115 512 832.208115zM915.171386 391.90197 684.211177 391.90197c3.052522 112.563682 67.820642 218.192418 114.232694 275.153734C868.810498 596.015741 912.925229 493.209284 915.171386 391.90197zM525.500479 391.90197 525.500479 787.007657c100.284007-3.315512 173.231413-36.513612 238.857063-89.556689-50.630121-61.759599-121.94126-181.728948-124.974339-305.548998L525.500479 391.90197zM480.475006 391.90197l-101.877295 0c-2.987031 123.82005-73.766051 240.34802-124.253932 302.632575 62.623269 51.822272 147.33665 85.329411 226.131227 91.635023L480.475006 391.90197zM480.475006 346.876498l0-365.046067c-78.794577 6.305613-163.513074 39.066761-226.137367 90.892103 46.871517 57.81066 111.321388 151.356196 122.624828 274.15294L480.475006 346.875474zM525.500479 346.876498l115.517967 0c11.489682-122.796744 76.287477-219.680305 123.343189-277.069363-65.62565-53.045123-138.577149-85.498256-238.861156-88.813768L525.500479 346.876498zM222.293829 663.634792c46.186925-57.504692 108.48376-159.169139 111.475907-271.732821L108.828614 391.90197C111.038956 493.209284 153.85204 592.9141 222.293829 663.634792zM110.324688 346.876498l221.587748 0c-11.161201-111.540376-67.176982-191.155644-109.6227-244.0002C159.900803 167.343565 118.783337 246.59249 110.324688 346.876498zM798.447964 99.454362c-42.724057 52.435233-100.973716 135.880737-112.378463 247.421112l227.605811 0C905.065214 246.59249 862.688057 164.312532 798.447964 99.454362z"  horiz-adv-x="1024" />

    
    <glyph glyph-name="jiaoyu" unicode="&#59069;" d="M946.7648 385.16736V514.5241599999999l4.28544 0.01024 0.75264 0.76288c1.05472 1.0752 1.09568 3.6608 1.08544 4.43904-0.14848 8.20224-5.49376 15.4624-12.93312 17.91488l-418.48832 216.48384c-3.95776 1.32608-8.33024 1.32608-12.67712-0.16384L91.02848 537.77408a19.52256 19.52256 0 0 1-13.29664-18.10944c-0.128-7.44448 0.86016-15.46752 9.12896-18.56l120.04864-46.20288v-247.424c0-3.74272 1.39776-12.70272 3.9936-19.70176 23.01952-69.51424 194.3296-105.66144 296.90368-105.66144 63.93856 0 135.7824 11.19232 192.17408 29.93664 45.32224 15.05792 99.33824 50.5088 99.33824 79.11936 0 2.79552 0.08704 7.71072-0.19968 17.152L798.72 451.33824l109.15328 40.31488v-106.53696a43.49952 43.49952 0 0 1-24.0384-38.8864c0-24.04864 19.49184-43.54048 43.54048-43.54048s43.54048 19.49184 43.54048 43.54048c0 17.06496-9.85088 31.80032-24.15104 38.9376zM871.43936 523.9295999999999l-356.13184-130.03776L159.1808 523.9295999999999l356.12672 185.91232 356.13184-185.91232zM247.7824 439.58784l257.21856-89.81504c2.40128-0.896 6.528-1.2288 8.56576-1.2288 1.55648 0 2.304 0.2048 3.21536 0.8704a2.72384 2.72384 0 0 0 0.768 0.384l240.31744 85.77024 0.16896-223.29856c0-0.48128 0.03072 0.20992 0.04096-1.07008 0.05632-0.82432-0.21504-4.39808 0.08192-9.38496-0.64-27.17184-122.20416-80.78336-250.49088-80.78336-129.92512 0-237.84448 46.03904-257.93024 80.81408-1.8944 4.0704-1.77664 5.376-2.05824 8.79104l0.07168 2.76992 0.03584 224.5632-0.00512 1.61792z m679.59296-115.13344a21.77024 21.77024 0 1 0 0 43.5456 21.77024 21.77024 0 0 0 0-43.5456z"  horiz-adv-x="1024" />

    
    <glyph glyph-name="diqiu" unicode="&#58931;" d="M486.682925 778.766892l28.911998 0c50.172383-2.329621 100.159892-12.047232 146.79947-30.950016 97.253662-38.479711 179.329215-113.515037 226.575582-206.803387 30.032838-58.463562 45.930259-123.86402 47.336906-189.517707l0-15.587232c-1.388059-64.807461-16.85777-129.354498-46.162902-187.246047-28.538851-57.016143-69.939981-107.508309-120.025223-146.958762-51.245456-40.415398-111.719054-69.089158-175.503409-82.971945-25.905836-5.844038-52.385882-8.563194-78.850739-10.145521l-28.941178 0c-34.693278 1.834556-69.312206 6.508987-102.762927 16.042923-81.006078 22.449579-154.969731 69.240255-210.210677 132.563122-38.852858 44.206228-68.512349 96.472392-86.647853 152.469026-13.275 40.72219-20.038414 83.434631-21.110287 126.228617l0 15.553455c1.54855 79.43914 24.916507 158.362031 67.745269 225.345616 45.414209 71.568676 112.125779 129.46962 189.579265 163.988616C374.661675 764.081849 430.543388 776.233809 486.682925 778.766892L486.682925 778.766892zM403.62264 685.954019c-27.56591-34.639914-45.566506-75.701474-60.181797-117.203736 20.512892-5.151108 41.570815-7.392588 62.444063-10.539454 25.882452-2.66919 51.837054-5.027991 77.893988-5.231453-0.019787 63.104415 0.01499 126.207631-0.019787 189.331633C450.635365 735.326744 424.000624 711.890035 403.62264 685.954019L403.62264 685.954019zM518.617673 552.9933659999999c35.217722 0.631172 70.420255 3.553791 105.210068 9.194366 11.829779 1.513574 23.557428 3.723475 35.130382 6.596128-17.096209 48.576265-39.124873 96.943272-75.259774 134.470829-17.660027 18.50985-39.681696 33.684362-65.026112 39.057519C518.569906 679.2031959999999 518.658246 616.098981 518.617673 552.9933659999999L518.617673 552.9933659999999zM369.240751 721.608845c-61.525686-21.446259-117.651432-58.240313-161.822884-106.151629 32.308895-17.067029 66.929022-29.678278 102.281653-38.736537 18.460884 55.643274 44.362122 110.676162 86.088832 152.774819C386.711306 727.710908 377.992417 724.5500509999999 369.240751 721.608845L369.240751 721.608845zM606.43973 729.750125c8.684112-8.005172 15.669776-17.572686 23.251835-26.562591 28.43652-37.984447 48.324036-81.667629 63.090425-126.569186 35.332644 9.212954 69.855238 21.891558 102.30144 38.73194C744.570277 670.095971 678.486282 710.579923 606.43973 729.750125L606.43973 729.750125zM184.213999 588.244666c-50.003897-64.905194-79.67618-145.260314-82.856823-227.199958 57.992681 0.102331 115.985362 0.034976 173.973646 0.034976 1.12064 61.390777 8.994502 122.708404 24.441029 182.163493C259.710812 553.774637 220.605725 568.396923 184.213999 588.244666L184.213999 588.244666zM702.621519 543.242178c15.449925-59.45409 23.31919-120.772716 24.425839-182.144906 58.026458 0.01519 116.049518 0 174.075777 0-3.412087 81.919858-32.866916 162.323944-83.011518 227.181371C781.811828 568.294592 742.614803 553.8769669999999 702.621519 543.242178L702.621519 543.242178zM310.106444 361.234379c57.89155-0.305793 115.7821-0.053564 173.667853-0.137107l0 157.091292c-50.390835 0.932368-100.821443 6.169617-150.090639 16.9613C318.708012 478.433518 311.398168 419.833849 310.106444 361.234379L310.106444 361.234379zM518.617673 518.2035539999999c0-52.381086 0-104.743784 0.019787-157.106482 57.89155 0.102331 115.777503-0.188272 173.667853 0.149898-1.305515 58.605465-8.616558 117.204935-23.592404 173.935272C619.460102 524.325403 569.014304 519.140519 518.617673 518.2035539999999L518.617673 518.2035539999999zM101.324598 326.274682c3.261988-81.939645 32.872912-162.294764 82.907988-227.199958 36.353352 19.902506 75.512003 34.430656 115.540264 45.036265-15.465115 59.449293-23.266825 120.786707-24.474806 182.163493C217.30996 326.24110499999995 159.317279 326.24110499999995 101.324598 326.274682L101.324598 326.274682zM310.12623 326.138774c1.291524-58.619256 8.513228-117.292276 23.638773-174.003825 49.207437 10.980155 99.651836 16.042923 149.994104 17.014864 0.019787 52.361499 0.019787 104.743784 0.019787 157.105283C425.888544 326.17235100000005 367.998193 326.40959 310.12623 326.138774L310.12623 326.138774zM518.617673 326.25489500000003l0-157.091292c50.430408-0.917178 100.859817-6.218384 150.149998-16.944911 14.751399 56.817478 22.553109 115.436734 23.320389 174.124743C634.264864 326.138774 576.441868 326.30266300000005 518.617673 326.25489500000003L518.617673 326.25489500000003zM727.032368 326.25489500000003c-1.01831-61.37099-8.994502-122.688617-24.392262-182.143707 40.009474-10.552246 79.153134-25.086192 115.491497-45.022475 50.137407 64.841238 79.579645 145.246323 82.991732 227.151191C843.096876 326.274682 785.054029 326.24110499999995 727.032368 326.25489500000003L727.032368 326.25489500000003zM343.47462 118.68442800000003c16.941514-48.691387 39.138864-97.093171 75.293551-134.654504 17.64024-18.474874 39.668904-33.635395 64.991136-38.970178 0.053364 63.085828 0 126.189044 0.019787 189.294458C436.680227 133.42283499999996 389.550181 128.62628700000005 343.47462 118.68442800000003L343.47462 118.68442800000003zM518.617673 134.37379099999998c0.019787-63.104415-0.033577-126.228417 0.039573-189.331633 33.051791 6.984465 59.671343 30.338431 80.015749 56.240869 27.620473 34.687482 45.736191 75.798009 60.270137 117.402601-21.125477 5.102341-42.732228 7.563472-64.196075 10.674363C569.422428 131.82431899999995 544.07941 134.21809599999995 518.617673 134.37379099999998L518.617673 134.37379099999998zM207.349513 71.98329100000001c50.493365-54.706309 116.543583-95.243625 188.574946-114.331084-41.726709 42.201987-67.783643 97.233875-86.210749 152.99347C274.278535 101.71033599999998 239.828093 88.72493999999995 207.349513 71.98329100000001L207.349513 71.98329100000001zM692.748013 110.68025499999999c-18.543428-55.794371-44.545798-110.894813-86.360847-153.149165 71.982596 19.256144 138.081581 59.637766 188.595932 114.363661C762.705582 88.99215900000002 728.066867 101.505675 692.748013 110.68025499999999L692.748013 110.68025499999999z"  horiz-adv-x="1024" />

    
    <glyph glyph-name="shezhi" unicode="&#58887;" d="M516.493312 544.956416c43.292672 0 83.494912-17.770496 112.105472-46.381056l0 0c28.612608-29.411328 46.405632-68.839424 46.405632-112.930816 0-43.290624-17.793024-83.492864-46.405632-112.105472-28.612608-28.614656-68.814848-46.405632-112.105472-46.405632-44.091392 0-83.519488 17.793024-112.930816 46.405632l0 0c-28.61056 28.612608-46.381056 68.814848-46.381056 112.105472 0 44.091392 17.770496 83.519488 46.381056 112.930816l0 0 0 0C432.975872 527.187968 472.403968 544.956416 516.493312 544.956416L516.493312 544.956416zM599.988224 469.164032c-21.633024 21.659648-51.017728 34.791424-83.494912 34.791424-33.275904 0-62.631936-13.131776-83.519488-34.791424l0 0c-21.659648-20.887552-34.791424-50.245632-34.791424-83.519488 0-32.475136 13.131776-61.861888 34.791424-83.492864l0 0c20.887552-20.885504 50.243584-34.045952 83.519488-34.045952 32.475136 0 61.85984 13.160448 83.494912 34.045952 20.885504 21.633024 34.043904 51.017728 34.043904 83.492864C634.032128 418.9184 620.873728 448.27648 599.988224 469.164032L599.988224 469.164032zM775.524352 733.652992l44.86144-44.863488 48.728064-47.95392c7.725056-8.4992 7.725056-20.885504 0-29.35808-0.774144 0-0.774144-0.79872-1.54624-0.79872l-2.318336-2.316288 0 0-1.54624-1.54624c-16.252928-15.478784-23.975936-36.337664-23.975936-56.451072 0-20.885504 7.723008-40.972288 23.975936-57.225216 7.727104-7.723008 17.770496-13.90592 27.815936-17.795072 10.067968-3.835904 21.653504-6.178816 32.499712-5.380096 11.589632 0.745472 20.85888-7.75168 21.633024-19.339264 0-0.800768 0-1.54624 0-2.347008l0-62.631936 0-68.8128c0-11.589632-9.269248-20.887552-20.086784-20.887552l-1.54624 0.772096 0-0.772096-3.090432 0.772096-3.117056 0c-22.403072 0-42.520576-9.2672-56.449024-23.945216-14.680064-13.934592-23.95136-34.048-23.95136-56.451072 0-11.618304 3.09248-22.433792 6.95296-32.477184 4.636672-10.070016 11.589632-19.339264 20.113408-27.066368 8.497152-7.75168 8.497152-20.11136 1.548288-28.614656-0.774144-0.770048-1.548288-1.544192-1.548288-1.544192l-44.86144-44.86144-48.728064-48.728064c-7.723008-7.725056-20.85888-7.725056-28.61056 0-0.774144 0.774144-0.774144 0.774144-1.548288 1.54624l-1.542144 2.318336-0.772096 0-1.54624 1.54624c-15.45216 16.252928-36.337664 23.975936-56.45312 23.975936-20.885504 0-40.974336-7.723008-56.451072-23.975936-8.495104-7.727104-14.678016-17.770496-18.538496-27.815936-3.8912-10.067968-5.435392-21.653504-5.435392-32.499712 0.770048-11.589632-7.727104-20.85888-19.316736-21.633024-0.772096 0-0.772096 0-1.54624 0l-63.404032 0-68.839424 0c-10.815488 0-20.088832 9.269248-20.088832 20.086784l0 1.54624 0 0 0 3.090432 0 3.117056c0 22.403072-9.29792 42.520576-23.230464 56.449024-14.680064 14.680064-34.793472 23.95136-56.424448 23.95136-12.388352 0-23.20384-3.09248-33.247232-6.95296-10.072064-4.636672-19.341312-11.59168-27.068416-20.113408-6.977536-8.497152-20.113408-8.497152-28.61056-1.548288-0.79872 0.774144-0.79872 1.548288-1.544192 1.548288l-44.863488 44.86144-47.95392 48.728064c-8.4992 7.723008-8.4992 20.85888 0 28.61056l0.79872 1.54624 2.291712 1.544192 0.800768 0.772096 1.544192 1.54624c15.45216 15.45216 23.177216 36.337664 23.177216 56.45312 0 20.885504-7.725056 40.972288-23.177216 56.451072-8.523776 8.495104-17.795072 14.678016-27.865088 18.538496-10.817536 3.8912-22.407168 5.435392-33.24928 5.435392-11.587584-0.772096-20.885504 7.727104-21.633024 19.316736 0 0.772096 0 0.772096 0 1.54624l0 63.404032 0 68.839424c0 10.815488 9.271296 20.086784 20.887552 20.086784l1.544192 0 0 0 3.090432 0 2.289664 0c22.431744 0 42.5472 9.299968 57.225216 23.232512 13.934592 14.680064 23.230464 34.793472 23.230464 56.424448 0 12.388352-2.34496 23.20384-6.981632 33.247232-4.634624 10.070016-11.614208 19.341312-19.339264 27.066368-8.4992 6.979584-9.271296 20.115456-1.54624 28.612608 0 0.79872 0.800768 0.79872 1.54624 1.544192l44.863488 44.863488 47.95392 47.95392c8.4992 8.4992 20.885504 8.4992 29.35808 0l0.79872-0.79872 2.316288-2.291712 0-0.800768 1.54624-1.54624c15.478784-15.450112 36.337664-23.177216 56.451072-23.177216 20.885504 0 40.972288 7.725056 57.225216 23.177216 7.723008 8.525824 13.90592 17.79712 17.793024 27.867136 3.837952 10.815488 6.180864 22.403072 5.382144 33.247232-0.745472 11.587584 7.75168 20.887552 19.339264 21.633024 0.800768 0 1.54624 0 2.347008 0l62.631936 0 68.814848 0c11.589632 0 20.885504-9.271296 20.885504-20.887552l-0.770048-1.544192 0.770048 0-0.770048-3.090432 0-2.291712c0-22.429696 9.2672-42.545152 23.945216-57.223168 13.934592-13.934592 34.048-23.230464 56.451072-23.230464 11.618304 0 22.433792 2.34496 32.475136 6.981632 10.072064 4.634624 19.341312 11.587584 27.068416 19.339264 7.75168 8.4992 20.11136 9.271296 28.612608 1.54624C774.750208 735.199232 775.524352 734.400512 775.524352 733.652992L775.524352 733.652992zM791.773184 660.178944l-31.70304 31.70304c-7.723008-6.180864-16.248832-10.815488-25.520128-14.706688-14.680064-6.926336-31.700992-10.815488-48.728064-10.815488-33.245184 0-63.401984 13.907968-85.833728 35.592192l0 0c-18.542592 19.31264-31.70304 44.06272-34.793472 72.675328l-48.699392 0-44.091392 0c-1.542144-9.269248-3.86048-19.341312-6.950912-27.840512-6.207488-15.478784-15.480832-30.158848-27.840512-42.543104-23.20384-23.977984-54.908928-35.538944-85.837824-35.538944-26.294272 0-53.362688 9.269248-75.794432 27.039744l-34.019328-34.793472-31.70304-30.928896c6.180864-7.727104 10.815488-16.25088 14.706688-25.522176 6.924288-14.70464 10.815488-31.700992 10.815488-49.498112 0-33.247232-13.907968-63.40608-35.592192-85.037056l0 0c-19.314688-19.339264-44.06272-31.700992-72.675328-34.818048l0-48.726016 0-44.838912c9.269248-0.774144 19.341312-3.088384 27.840512-6.950912 15.478784-5.410816 30.158848-14.708736 42.543104-27.070464 23.977984-23.973888 35.538944-54.90688 35.538944-85.833728 0-27.068416-9.269248-53.364736-27.039744-75.79648l34.793472-34.789376 30.928896-30.932992c7.727104 5.40672 16.25088 10.815488 25.522176 14.680064 14.70464 6.979584 31.700992 10.842112 49.498112 10.842112 33.247232 0 63.404032-13.934592 85.037056-35.56352l0 0c19.339264-19.341312 31.700992-44.865536 34.818048-72.704l48.726016 0 44.838912 0c0.772096 9.269248 3.088384 18.567168 6.950912 27.838464 5.408768 15.478784 14.708736 30.158848 27.070464 42.522624 23.973888 23.201792 54.90688 35.588096 85.833728 35.588096 27.068416 0 53.364736-9.293824 75.79648-27.066368l34.789376 34.021376 30.932992 31.70304c-5.410816 7.723008-10.815488 16.248832-14.680064 25.520128-6.979584 14.680064-10.842112 31.700992-10.842112 48.728064 0 33.245184 13.934592 63.401984 35.56352 85.833728l0 0c19.341312 18.542592 44.865536 31.70304 72.704 34.793472l0 48.699392 0 44.091392c-9.269248 1.542144-18.567168 3.86048-27.838464 6.950912-15.478784 6.207488-30.158848 15.478784-42.545152 27.840512-23.177216 23.20384-35.56352 54.90688-35.56352 85.837824 0 26.294272 9.293824 53.362688 27.066368 75.792384L791.773184 660.178944zM164.64896 161.409024 164.64896 161.409024M291.459072 737.490944 291.459072 737.490944"  horiz-adv-x="1024" />

    
    <glyph glyph-name="qiche" unicode="&#59196;" d="M640.6592 291.32640000000004h-252.816c-10.8192 0-19.5696-8.7552-19.5696-19.5696s8.7552-19.5696 19.5696-19.5696h252.816c10.8192 0 19.5696 8.7552 19.5696 19.5696s-8.7552 19.5696-19.5696 19.5696zM925.5296 415.4352c15.8496 15.5424 25.9296 38.7072 25.9296 64.5504 0 46.5984-32.7696 84.5136-73.0416 84.5136h-24.2448l-16.6032 63.2688c-12.6576 47.9568-36.9888 82.0224-72.3264 101.2608-13.5408 7.4256-34.5456 14.8944-50.7936 14.8944h-76.9488v12.12c0 36.3216-20.3328 64.7568-46.2672 64.7568H450.0416c-25.9296 0-46.2672-28.4352-46.2672-64.7568v-12.12H315.7328c-16.2528 0-37.2048-7.4784-50.7936-14.8704-35.3424-19.2624-59.6736-53.328-72.3264-101.3088l-16.6464-63.24h-20.3328c-40.272 0-73.0416-37.9152-73.0416-84.5136 0-24.8112 9.2784-47.1312 24.0192-62.6208-28.104-26.7648-46.176-67.9728-46.176-114.1056v-159.4704c0-2.544 0.7104-8.3472 1.3344-10.7616 2.7984-10.8624 9.8592-20.9088 21.1392-30.1344v-100.416c0-43.488 30.504-78.888 67.9776-78.888h47.6448c37.4736 0 67.9776 35.424 67.9776 78.9648v45.648c14.2512-1.6176 27.9264-2.8512 40.584-3.9024 72.4176-6.0384 145.368-6.5472 208.0176-6.5472s135.5952 0.5184 208.0176 6.5472c12.7824 1.0512 26.5488 2.3088 40.9344 3.9312v-45.6768c0-43.5408 30.4608-78.9648 67.9344-78.9648h47.688c37.4736 0 67.9344 35.4 67.9344 78.888v100.6896c11.1024 9.192 18.1152 19.2384 20.8704 30.1104 0.5808 2.3376 1.2864 8.064 1.2864 10.5072v159.4704c-0.024 45.0528-17.2464 85.3824-44.2464 112.176z m-47.1072 96.456c15.1824 0 27.5712-14.3088 27.5712-31.9008 0-15.1536-9.144-27.8688-21.3984-31.1088l-16.56 63.0096h10.3872zM449.2448 756.048c0 7.5264 2.4864 12.12 0.7968 12.1488l138.576 0.792c0.888-0.8208 3.4176-5.4192 3.4176-12.9456v-12.12H449.2448V756.048zM236.12 612.4032c8.8368 33.624 24.6 56.2032 48.1728 69.024 0 0.024 0 0.024 0.0432 0.024 9.9456 5.4432 24.0192 9.864 31.392 9.864h398.7168c7.3728 0 21.4416-4.4208 31.4352-9.888 23.5776-12.8208 39.3408-35.4 48.1728-68.9952l42.936-163.2432H193.1408l42.9792 163.2144z m-80.5008-100.512h6.4848l-16.2528-61.776c-10.3872 4.5744-17.8032 16.2336-17.8032 29.8752 0 17.592 12.3888 31.9008 27.5712 31.9008z m65.4048-509.328c0-14.5392-10.08-26.352-22.5072-26.352h-47.6448c-12.6096 0-22.5072 11.5344-22.5072 26.2752v75.7008c4.6176-1.776 9.456-3.5232 14.5632-5.1888 20.1984-6.6528 41.424-11.7648 62.6448-15.7968l15.4512-4.8816v-49.7568z m681.1056-0.0768c0-14.7456-9.8592-26.2752-22.4688-26.2752h-47.688c-12.3888 0-22.4688 11.8176-22.4688 26.352V52.32000000000005l15.9408 5.0304c20.9568 4.008 41.9184 9.096 61.8048 15.6432a323.88 323.88 0 0 1 14.8752 5.3136v-75.8304h0.0048z m22.1568 146.0832c-2.712-2.7504-7.8624-6.3216-14.6976-10.0944l-93.864-29.6448c-33.5184-6.2688-67.3152-9.6816-95.904-12.072-70.9104-5.9088-142.8336-6.3936-204.7344-6.3936s-133.824 0.4896-204.7344 6.3936c-28.3728 2.3616-61.8048 5.7552-95.064 11.9232l-95.1072 30.0288c-6.6624 3.696-11.6736 7.1664-14.2944 9.888V303.264c0 46.5216 28.1952 85.176 64.9584 92.1888h1.5552c2.1312 0 4.2192 0.336 6.216 0.9984 1.3776 0.0768 2.7984 0.1296 4.2192 0.1296h664.4976c42.4464 0 76.9488-41.8704 76.9488-93.3264v-154.6848zM763.0928 324.696c-37.08 0-67.2384-30.1584-67.2384-67.2384s30.1584-67.2384 67.2384-67.2384 67.2384 30.1584 67.2384 67.2384-30.1632 67.2384-67.2384 67.2384z m0-95.3328c-15.48 0-28.0944 12.5952-28.0944 28.0944s12.6144 28.0944 28.0944 28.0944 28.0944-12.5952 28.0944-28.0944-12.6144-28.0944-28.0944-28.0944zM609.0464 216.00480000000005H419.4512c-10.8192 0-19.5696-8.7552-19.5696-19.5696s8.7552-19.5696 19.5696-19.5696h189.5952c10.8192 0 19.5696 8.7552 19.5696 19.5696s-8.7504 19.5696-19.5696 19.5696zM265.4048 324.696c-37.08 0-67.2384-30.1584-67.2384-67.2384s30.1584-67.2384 67.2384-67.2384 67.2384 30.1584 67.2384 67.2384-30.1584 67.2384-67.2384 67.2384z m0-95.3328c-15.48 0-28.0944 12.5952-28.0944 28.0944s12.6144 28.0944 28.0944 28.0944 28.0944-12.5952 28.0944-28.0944a28.1232 28.1232 0 0 0-28.0944-28.0944z"  horiz-adv-x="1024" />

    
    <glyph glyph-name="gouxuan" unicode="&#59083;" d="M950.88410469 206.96956780999994a20.57830594 20.57830594 0 0 1-29.10469875 0l-246.72890532-246.72411469-109.98088968 109.97130938a22.81049625 22.81049625 0 0 1-16.24325719 6.7301025c-6.13133906 0-11.89862906-2.38547438-16.23367781-6.72531281a22.99252031 22.99252031 0 0 1 0-32.476935l123.87699375-123.87699375c4.33504781-4.33504781 10.10712844-6.7301025 16.23846843-6.7301025s11.90341969 2.39026406 16.2384675 6.7301025c1.94478375 1.94478375 3.38181656 4.18176469 4.48354125 6.54328781l257.44916719 257.44916812a20.57830594 20.57830594 0 0 1 0.00479063 29.10948844zM669.97777625 653.29271063H299.01740937a22.99252031 22.99252031 0 0 1-22.96378031-22.96378032 22.99252031 22.99252031 0 0 1 22.96378032-22.96377937h370.96036687a22.99252031 22.99252031 0 0 1 22.96377938 22.96377937 22.99252031 22.99252031 0 0 1-22.96377938 22.96378032zM692.94155562 403.47897563a22.99252031 22.99252031 0 0 1-22.96377937 22.96378031H299.01740937a22.99252031 22.99252031 0 0 1-22.96378031-22.96378032 22.99252031 22.99252031 0 0 1 22.96378032-22.96377937h370.96036687a22.98773063 22.98773063 0 0 1 22.96377938 22.96377938zM299.01740937 213.91522499999996a22.99252031 22.99252031 0 0 1-22.96378031-22.96857 22.99252031 22.99252031 0 0 1 22.96378032-22.96377937H474.20604406a22.99252031 22.99252031 0 0 1 22.96378031 22.96377937 22.99252031 22.99252031 0 0 1-22.96378031 22.96857H299.01740937zM518.399585-46.312205619999986l-0.08143219 0.16286437H183.69554844c-42.5265825 0-77.12553563 34.59895313-77.12553563 77.13032531V740.19964781c0 42.5265825 34.59895313 77.12553563 77.12553563 77.12553563h603.52492125c42.5265825 0 77.13032625-34.59895313 77.13032625-77.12553563l0.00478969-435.00890625a23.38530938 23.38530938 0 0 1 23.30387718-24.8319225 23.38051969 23.38051969 0 0 1 23.35177875 23.35656844V740.19964781c0 68.259045-55.53172688 123.79077187-123.79077187 123.79077188H183.69554844c-68.259045 0-123.79077187-55.53172688-123.79077188-123.79077188v-709.21866375c0-68.259045 55.53172688-123.79077187 123.79077188-123.79077187l330.46958062 0.00478968a23.38530938 23.38530938 0 0 1 24.83671219 23.30387813 23.35656844 23.35656844 0 0 1-20.60225625 23.18891437z"  horiz-adv-x="1024" />

    
    <glyph glyph-name="shuzhi" unicode="&#58933;" d="M513.344-75.20000000000005c-12.8 0-25.6 6.4-25.6 25.6v352c0 12.8 12.8 25.6 25.6 25.6s25.6-12.8 25.6-25.6v-352c0-19.2-12.8-25.6-25.6-25.6z m-133.696 569.6H231.744c-12.8 0-19.2 6.4-25.6 12.8-6.4 6.4 0 19.2 6.4 25.6l236.8 281.6c32 38.4 102.4 38.4 140.8 0l236.8-281.6c6.4-6.4 6.4-19.2 6.4-25.6 0-6.4-25.6-12.8-38.4-12.8h-147.968l205.568-249.6c6.4-6.4 6.4-19.2 6.4-25.6 0-6.4-12.8-12.8-25.6-12.8h-224c-12.8 0-25.6 12.8-25.6 25.6s12.8 25.6 25.6 25.6h166.4l-230.4 281.6c-12.8 19.2-44.8 19.2-57.6 0l-236.8-281.6h166.4c12.8 0 25.6-12.8 25.6-25.6s-12.8-25.6-25.6-25.6h-224c-12.8 0-19.2 6.4-25.6 12.8-6.4 6.4 0 19.2 6.4 25.6l205.504 249.6z m228.928 46.592a23.872 23.872 0 0 0 13.568 4.608h121.6l-198.4 236.8c-19.2 19.2-44.8 19.2-64 0l-198.4-236.8h138.88l21.12 25.6c32 38.4 102.4 38.4 140.8 0l24.832-30.208z"  horiz-adv-x="1024" />

    
    <glyph glyph-name="more" unicode="&#59033;" d="M113.07060547 421.96451822a77.27607422 77.27607422 0 1 1 154.55302734 0 77.27607422 77.27607422 0 1 1-154.55302734 0zM434.72392578 426.66666666a77.27607422 77.27607422 0 1 1 154.55214844 0 77.27607422 77.27607422 0 1 1-154.55214844 0zM752.50566406 426.66666666a77.27607422 77.27607422 0 1 1 154.55302735 0 77.27607422 77.27607422 0 1 1-154.55302735 0z"  horiz-adv-x="1024" />

    
    <glyph glyph-name="fenlei" unicode="&#59023;" d="M856.653 780.63c26.343-0.03 47.774-21.743 47.774-48.404v-219.733c0-12.992-4.978-25.159-14.015-34.257l-0.03-0.03-0.03-0.03c-9.083-9.176-20.693-14.025-33.577-14.025h-217.85c-26.275 0-47.65 21.714-47.65 48.405V732.288c0 26.657 21.376 48.343 47.65 48.343h217.728m-523.092-0.063v-0.003h51.166c13.013 0 25.234-5.06 34.41-14.246 8.959-8.968 13.884-20.789 13.87-33.285v-217.97c0-26.273-21.687-47.649-48.343-47.649H164.931c-12.992 0-25.158 4.977-34.256 14.014-9.215 9.154-14.086 20.786-14.086 33.638v217.85c0 26.275 21.715 47.651 48.405 47.651h168.567M382.09 309.21000000000004c26.277 0 47.654-21.714 47.654-48.405v-219.732c0-12.993-4.977-25.158-14.012-34.255-9.156-9.216-20.789-14.088-33.642-14.088H164.24c-26.275 0-47.65 21.715-47.65 48.405V260.86800000000005c0 26.656 21.376 48.342 47.65 48.342h217.85m473.995-3.327c13.003 0 25.212-5.053 34.378-14.231 8.98-8.989 13.915-20.859 13.9-33.424v-217.846c0-26.275-21.685-47.652-48.341-47.652H636.289c-12.992 0-25.159 4.977-34.256 14.014-9.215 9.154-14.086 20.786-14.086 33.638V258.231c0 26.276 21.714 47.652 48.405 47.652h219.733m0.628 525.913H638.926c-54.494 0-98.817-44.634-98.817-99.508v-219.732c0-54.933 44.323-99.57 98.817-99.57h217.85c26.43 0 51.291 10.358 69.937 29.193 18.646 18.771 28.88 43.758 28.88 70.314V732.2280000000001c0 54.868-44.324 99.505-98.88 99.568z m-471.986-0.063H164.994c-54.87 0-99.57-44.323-99.57-98.817v-217.85c0-26.43 10.359-51.228 29.193-69.937 18.771-18.645 43.758-28.879 70.314-28.879h219.733c54.873 0 99.508 44.32 99.508 98.814V732.976c0.062 54.431-44.575 98.754-99.445 98.754v0.003z m-2.637-471.358H164.24c-54.493 0-98.816-44.637-98.816-99.507v-219.733c0-54.87 44.323-99.57 98.817-99.57H382.09c26.431 0 51.229 10.358 69.94 29.193 18.646 18.772 28.88 43.758 28.88 70.314V260.80499999999995c0 54.933-44.324 99.57-98.82 99.57z m473.995-3.327H636.352c-54.87 0-99.57-44.324-99.57-98.817v-217.85c0-26.43 10.359-51.228 29.192-69.936 18.773-18.647 43.76-28.88 70.315-28.88h219.733c54.87 0 99.507 44.323 99.507 98.817V258.169c0.063 54.556-44.574 98.88-99.444 98.88z"  horiz-adv-x="1024" />

    
    <glyph glyph-name="qingjia" unicode="&#59024;" d="M121.01 684.162l168.945-0.396v-48.857c0-15.452 12.505-27.957 27.957-27.957s27.957 12.505 27.957 27.957v48.726l214.676-0.503v-48.223c0-15.452 12.504-27.957 27.958-27.957 15.452 0 27.957 12.505 27.957 27.957v48.092l145.301-0.34v-243.808h55.915V682.66c0 31.671-25.746 57.417-57.417 57.417h-143.8v54.55c0 15.438-12.504 27.956-27.956 27.956-15.454 0-27.958-12.518-27.958-27.957v-54.55H345.87v54.55c0 15.44-12.504 27.957-27.957 27.957s-27.957-12.518-27.957-27.957v-54.55H121.01c-31.67 0-57.416-25.745-57.416-57.416V142.89999999999998c0-31.67 25.745-57.443 57.416-57.443H459.2V141.37L119.508 142.89999999999998l1.502 541.262zM212.949 484.965a43.209 43.209 0 1 1 86.419 0 43.209 43.209 0 1 1-86.418 0zM403.702 484.965a43.209 43.209 0 1 1 86.419 0 43.209 43.209 0 1 1-86.418 0zM588.864 484.965a43.209 43.209 0 1 1 86.418 0 43.209 43.209 0 1 1-86.418 0zM212.949 316.31399999999996a43.209 43.209 0 1 1 86.419 0 43.209 43.209 0 1 1-86.418 0zM403.702 316.31399999999996a43.209 43.209 0 1 1 86.419 0 43.209 43.209 0 1 1-86.418 0zM739.837 378.51599999999996c-119.474 0-216.668-97.195-216.668-216.668s97.195-216.669 216.668-216.669 216.67 97.194 216.67 216.669-97.196 216.668-216.67 216.668z m0-377.422c-88.65 0-160.754 72.105-160.754 160.754s72.105 160.754 160.754 160.754 160.755-72.105 160.755-160.754-72.105-160.754-160.755-160.754zM821.607 189.80499999999995h-53.813v63.722c0 15.453-12.505 27.958-27.957 27.958s-27.957-12.505-27.957-27.958v-91.68c0-15.453 12.505-27.958 27.957-27.958 0.21 0 0.419 0.012 0.628 0.017 0.21-0.004 0.417-0.017 0.627-0.017h80.514c15.453 0 27.957 12.505 27.957 27.958 0.002 15.453-12.503 27.958-27.956 27.958z"  horiz-adv-x="1024" />

    
    <glyph glyph-name="rizhouyuebao" unicode="&#59025;" d="M893.09 734.415H715.042V805.437c0 15.424-12.492 27.93-27.93 27.93-15.437 0-27.93-12.506-27.93-27.93v-71.022H390.473V805.437c0 15.424-12.491 27.93-27.93 27.93s-27.93-12.506-27.93-27.93v-71.022H126.402c-34.884 0-63.277-28.38-63.277-63.278v-647.362c0-34.898 28.393-63.278 63.277-63.278h766.69c34.883 0 63.276 28.38 63.276 63.278V671.137c0 34.898-28.392 63.278-63.277 63.278z m7.42-710.64a7.427 7.427 0 0 0-7.42-7.42H126.4a7.427 7.427 0 0 0-7.418 7.42V671.137a7.427 7.427 0 0 0 7.419 7.42h208.214v-64.696c0-15.424 12.491-27.93 27.93-27.93s27.929 12.506 27.929 27.93v64.695h268.71v-64.695c0-15.424 12.49-27.93 27.93-27.93 15.436 0 27.929 12.506 27.929 27.93v64.695H893.09a7.427 7.427 0 0 0 7.42-7.419v-647.362zM236.674 417.276a51.823 51.823 0 1 1 103.646 0 51.823 51.823 0 1 1-103.646 0zM465.455 417.276a51.823 51.823 0 1 1 103.646 0 51.823 51.823 0 1 1-103.646 0zM694.237 417.276a51.823 51.823 0 1 1 103.646 0 51.823 51.823 0 1 1-103.646 0zM236.674 215.00300000000004a51.823 51.823 0 1 1 103.646 0 51.823 51.823 0 1 1-103.646 0zM465.454 215.00300000000004a51.824 51.824 0 1 1 103.648 0 51.824 51.824 0 1 1-103.648 0zM694.236 215.00300000000004a51.824 51.824 0 1 1 103.648 0 51.824 51.824 0 1 1-103.648 0z"  horiz-adv-x="1024" />

    
    <glyph glyph-name="yingyongguanli" unicode="&#58959;" d="M512.0039 288.375a32.22 32.22 0 0 0-15.1725 3.81L80.8439 516.1800000000001a32.025 32.025 0 0 0 0 56.37L496.8314 796.5375a32.0475 32.0475 0 0 0 30.345 0l415.9875-223.98a32.025 32.025 0 0 0 0-56.37L527.1764 292.18499999999995A32.22 32.22 0 0 0 512.0039 288.375zM163.5089 544.3725L512.0039 356.71500000000003l348.495 187.65L512.0039 732.0225l-348.495-187.65zM512.0039 132.50250000000005a31.9275 31.9275 0 0 0-14.0925 3.2775L49.9214 355.6575C34.0439 363.43499999999995 27.4964 382.59749999999997 35.2814 398.4675s26.97 22.44 42.825 14.625L512.0039 200.15999999999997l433.8975 212.9325c15.84 7.815 35.0475 1.2525 42.825-14.625s1.2375-35.0325-14.64-42.81L526.0964 135.78750000000002a31.8375 31.8375 0 0 0-14.0925-3.285zM512.0039-31.620000000000005a31.9275 31.9275 0 0 0-14.0925 3.2775L49.9214 191.53499999999997C34.0439 199.3125 27.4964 218.47500000000002 35.2814 234.34500000000003s26.97 22.47 42.825 14.625L512.0039 36.03750000000002l433.8975 212.9325c15.84 7.815 35.0475 1.2525 42.825-14.625s1.2375-35.0325-14.64-42.81l-447.99-219.87a31.8375 31.8375 0 0 0-14.0925-3.285z"  horiz-adv-x="1024" />

    
    <glyph glyph-name="zybssj" unicode="&#59509;" d="M930.36339 803.053098c-18.975167 18.975167-44.166919 29.426193-70.939679 29.426193l-736.175689-0.468674-0.12689-148.804071H64.021106v-51.27685h59.057047l-0.106424-125.070531H64.021106v-51.27685h58.908668l-0.107448-124.746142H64.021106v-51.27685h58.757218l-0.106424-125.07053H64.019059v-51.276851h58.607816l-0.141216-165.513637 736.941122 0.687661c55.338353 0 100.359732 45.02138 100.359732 100.359732V732.118536c0 26.767644-10.44898 51.959396-29.423123 70.934562z m-20.675902-70.936609v-693.371814c0-27.713178-22.545482-50.258661-50.260707-50.258661l-73.241095-0.019442V782.341381L859.427804 782.37822c27.713178 0 50.259684-22.547529 50.259684-50.261731zM170.417321 154.488793l0.23536 125.07053h66.537416v51.27685h-66.440201l0.236383 124.746142h66.204841v51.27685h-66.10865l0.236384 125.070531h65.87022v51.27685h-65.775053l0.186242 98.825796 564.484352 0.283456v-793.863553l-565.982472-0.150426 0.218987 114.910123h66.86999V154.488793h-66.773799z"  horiz-adv-x="1024" />

    
    <glyph glyph-name="baoxiushenqing" unicode="&#59027;" d="M258.56 819.2c-28.16 0-53.76-5.12-79.36-17.92-15.36-7.68-20.48-28.16-7.68-40.96l87.04-87.04-30.72-30.72-87.04 87.04c-5.12 5.12-10.24 7.68-17.92 7.68-10.24 0-17.92-5.12-23.04-15.36-33.28-66.56-23.04-151.04 33.28-207.36 35.84-35.84 79.36-51.2 125.44-51.2 20.48 0 40.96 2.56 58.88 10.24l284.16-284.16c-23.04-64-7.68-135.68 40.96-186.88 35.84-35.84 79.36-51.2 125.44-51.2 28.16 0 53.76 5.12 79.36 17.92 15.36 7.68 20.48 28.16 7.68 40.96l-87.04 87.04 30.72 30.72 87.04-87.04c5.12-5.12 10.24-7.68 17.92-7.68 10.24 0 17.92 5.12 23.04 15.36 33.28 66.56 23.04 151.04-33.28 207.36-35.84 35.84-79.36 51.2-125.44 51.2-20.48 0-40.96-2.56-61.44-10.24l-284.16 284.16c23.04 64 7.68 135.68-40.96 186.88-33.28 33.28-76.8 51.2-122.88 51.2z m-33.28-230.4c12.8 0 25.6 5.12 35.84 15.36l30.72 30.72c20.48 20.48 20.48 51.2 0 71.68l-58.88 58.88c7.68 0 15.36 2.56 23.04 2.56 33.28 0 66.56-12.8 89.6-38.4 35.84-35.84 46.08-87.04 30.72-133.12-7.68-17.92-2.56-38.4 12.8-53.76l284.16-284.16c10.24-10.24 23.04-15.36 35.84-15.36 5.12 0 12.8 0 17.92 2.56 12.8 5.12 28.16 7.68 43.52 7.68 33.28 0 66.56-12.8 89.6-38.4 30.72-30.72 43.52-71.68 35.84-112.64l-58.88 58.88c-10.24 10.24-23.04 15.36-35.84 15.36-12.8 0-25.6-5.12-35.84-15.36l-30.72-30.72c-10.24-10.24-15.36-23.04-15.36-35.84s5.12-25.6 15.36-35.84l58.88-58.88c-7.68 0-15.36-2.56-23.04-2.56-33.28 0-66.56 12.8-89.6 38.4-35.84 35.84-46.08 87.04-30.72 133.12 7.68 17.92 2.56 38.4-12.8 53.76l-284.16 284.16c-10.24 10.24-23.04 15.36-35.84 15.36-5.12 0-10.24 0-17.92-2.56-12.8-5.12-28.16-7.68-43.52-7.68-33.28 0-66.56 12.8-89.6 38.4-30.72 30.72-43.52 71.68-35.84 112.64l58.88-58.88c10.24-10.24 23.04-15.36 35.84-15.36zM337.92 332.79999999999995c-12.8 0-25.6-5.12-35.84-15.36l-184.32-184.32c-20.48-20.48-20.48-51.2 0-71.68l71.68-71.68c10.24-10.24 23.04-15.36 35.84-15.36 12.8 0 25.6 5.12 35.84 15.36l184.32 184.32c20.48 20.48 20.48 51.2 0 71.68l-71.68 71.68c-7.68 10.24-20.48 15.36-35.84 15.36z m-110.08-307.2l-71.68 71.68 184.32 184.32 71.68-71.68-184.32-184.32zM849.92 757.76l35.84-35.84-89.6-89.6-17.92 17.92-17.92 17.92 89.6 89.6m0 61.44c-7.68 0-12.8-2.56-17.92-7.68l-125.44-125.44c-10.24-10.24-10.24-25.6 0-35.84l17.92-17.92-125.44-125.44c-10.24-10.24-10.24-25.6 0-35.84 5.12-5.12 12.8-7.68 17.92-7.68s12.8 2.56 17.92 7.68l125.44 125.44 17.92-17.92c5.12-5.12 12.8-7.68 17.92-7.68s12.8 2.56 17.92 7.68l125.44 125.44c10.24 10.24 10.24 25.6 0 35.84l-71.68 71.68c-2.56 5.12-10.24 7.68-17.92 7.68z"  horiz-adv-x="1024" />

    
    <glyph glyph-name="liucheng1" unicode="&#58888;" d="M917 541.50000001V789H669.50000001V834h292.49999999v-292.50000001h-45zM107 541.50000001H62V834h292.50000001v-45H107v-247.50000001z m0-315.00000002v-247.49999999h247.50000001v-45H62V226.49999999h45z m810 2e-8h45v-292.50000001H669.50000001v45h247.49999999V226.49999999zM62 406.50000001h900v-45.00000002H62z"  horiz-adv-x="1024" />

    
    <glyph glyph-name="liucheng2" unicode="&#59113;" d="M973.5 697.3c0 80.1-64.9 145-145 145s-145-64.9-145-145c0-57.5 33.5-107.2 82-130.6-1 0.5-2 1-2.9 1.5l-65.6-139c-1.5 0-3 0.1-4.5 0.1-27.4 0-53.1-7.6-74.9-20.8L464.3 547.1c5.3 15.1 8.2 31.3 8.2 48.2 0 80.1-64.9 145-145 145s-145-64.9-145-145c0-57.1 33.1-106.5 81.1-130.2l-61.4-249.6c-2.2 0.1-4.4 0.2-6.6 0.2-80.1 0-145-64.9-145-145s64.9-145 145-145 145 64.9 145 145c0 60.5-37 112.3-89.6 134l60.7 246.5c5.2-0.6 10.5-0.9 15.9-0.9 44.8 0 84.9 20.3 111.5 52.3l140.7-127.2c-20.1-24.9-32.1-56.5-32.1-91 0-80.1 64.9-145 145-145s145 64.9 145 145c0 60.7-37.3 112.7-90.2 134.3l63.6 134.8c5.8-0.7 11.7-1.1 17.6-1.1 79.9-0.1 144.8 64.8 144.8 144.9z m-683-626.6c0-52.4-42.6-95-95-95s-95 42.6-95 95 42.6 95 95 95 95-42.6 95-95z m-54.2 139.2h0.1c0-0.1 0-0.1-0.1 0z m-31.3 5.5h0.4c-0.1-0.1-0.2 0-0.4 0z m3.3-0.3h0.5-0.5z m3.3-0.3h0.4-0.4z m15.7-2.6z m2.8-0.7c0.1 0 0.2-0.1 0.3-0.1 0 0.1-0.2 0.1-0.3 0.1z m3.1-0.8c0.1 0 0.2-0.1 0.4-0.1-0.2 0.1-0.3 0.1-0.4 0.1z m62.6 243.1c0.1 0 0.1 0 0 0 0.1 0 0.1 0 0 0z m-29.6 10.1c0.1 0 0.1-0.1 0.2-0.1 0 0-0.1 0-0.2 0.1z m2.9-1.3c0.1 0 0.1-0.1 0.2-0.1-0.1 0-0.2 0-0.2 0.1z m17.6-6.5z m2.9-0.8c0.1 0 0.2 0 0.3-0.1-0.1 0.1-0.2 0.1-0.3 0.1z m3.1-0.8c0.1 0 0.2 0 0.3-0.1-0.2 0.1-0.3 0.1-0.3 0.1z m34.8 45.8c-52.4 0-95 42.6-95 95s42.6 95 95 95 95-42.6 95-95-42.6-95-95-95z m113.5 4.9l-0.3-0.3c0.1 0 0.2 0.1 0.3 0.3z m9.3 13.1c-0.1-0.1-0.1-0.2-0.2-0.3 0.1 0.1 0.2 0.2 0.2 0.3z m-1.7-2.6c-0.1-0.1-0.2-0.3-0.3-0.4 0.2 0.1 0.3 0.2 0.3 0.4z m-1.7-2.7c-0.1-0.2-0.2-0.3-0.4-0.5 0.1 0.2 0.2 0.4 0.4 0.5z m-1.9-2.6c-0.1-0.2-0.3-0.4-0.4-0.5 0.1 0.1 0.3 0.3 0.4 0.5z m-2-2.6c-0.1-0.2-0.2-0.3-0.4-0.5 0.2 0.1 0.3 0.3 0.4 0.5z m172.6-100.5l-0.9-0.6 0.9 0.6z m-2.7-1.7c-0.3-0.2-0.7-0.4-1-0.7 0.4 0.2 0.7 0.4 1 0.7z m-2.7-1.9c-0.3-0.2-0.7-0.5-1-0.7 0.4 0.3 0.7 0.5 1 0.7z m-2.7-1.9c-0.3-0.2-0.6-0.4-0.9-0.7 0.3 0.3 0.6 0.5 0.9 0.7z m-2.7-2c-0.3-0.2-0.5-0.4-0.8-0.6 0.3 0.2 0.6 0.4 0.8 0.6z m-2.6-2c-0.2-0.2-0.4-0.4-0.7-0.5 0.3 0.1 0.5 0.3 0.7 0.5z m-2.6-2.1c-0.1-0.1-0.3-0.2-0.4-0.4 0.1 0.2 0.3 0.3 0.4 0.4z m-18-17.9z m205.9-93.5c0-52.4-42.6-95-95-95s-95 42.6-95 95 42.6 95 95 95 95-42.6 95-95z m-64.6 141.8h0.2-0.2z m-9.8 1.7h0z m3.2-0.4c0.2 0 0.3-0.1 0.5-0.1-0.2 0-0.3 0-0.5 0.1z m3.3-0.6c0.1 0 0.3-0.1 0.4-0.1-0.2 0-0.3 0.1-0.4 0.1z m13.9 270.5c0 52.4 42.6 95 95 95s95-42.6 95-95-42.6-95-95-95-95 42.6-95 95z m74-143.5c0.2 0 0.3 0 0.5-0.1-0.2 0.1-0.4 0.1-0.5 0.1z m-40.9 12.4l1.8-0.9-1.8 0.9z m3.2-1.5c0.6-0.2 1.1-0.5 1.7-0.7-0.6 0.2-1.1 0.4-1.7 0.7z m3.2-1.4c0.5-0.2 1-0.4 1.6-0.6-0.6 0.2-1.1 0.4-1.6 0.6z m3.1-1.2l1.5-0.6-1.5 0.6z m3.2-1.2c0.4-0.2 0.9-0.3 1.3-0.5-0.4 0.2-0.8 0.3-1.3 0.5z m3.2-1.1c0.4-0.1 0.7-0.2 1.1-0.4-0.3 0.1-0.7 0.2-1.1 0.4z m3.2-1.1c0.1 0 0.1 0 0.2-0.1 0 0.1-0.1 0.1-0.2 0.1z m9-2.4c0.1 0 0.2-0.1 0.4-0.1-0.2 0-0.3 0.1-0.4 0.1z m3-0.7c0.2 0 0.4-0.1 0.6-0.1-0.2 0-0.4 0.1-0.6 0.1z m3.2-0.6c0.2 0 0.5-0.1 0.7-0.1-0.3 0-0.5 0-0.7 0.1z m3.2-0.6c0.2 0 0.4-0.1 0.6-0.1-0.2 0-0.4 0-0.6 0.1z"  horiz-adv-x="1024" />

    
    <glyph glyph-name="edit" unicode="&#59088;" d="M383.41973333 97.99039004999997l-218.07786667-40.24888888 43.99559112 214.33230222v0.00341334L383.41973333 97.99039004999997z m342.09792 690.26474668l-78.11299555-78.11185776L821.49148444 536.0610034l78.11299556 78.10958222-174.08682667 174.08455111zM248.35413333 311.09047896000004l174.08682667-174.08000001 360.03271111 360.02702223L608.39025778 671.12660339 248.35527111 311.09047896000004z"  horiz-adv-x="1024" />

    
    <glyph glyph-name="liucheng" unicode="&#58935;" d="M803.84 684.544h-49.664v-49.664h49.664c26.624 0 51.712-10.24 70.656-29.184 18.944-18.944 29.184-44.032 29.184-70.656s-10.24-51.712-29.184-70.656c-18.944-18.944-44.032-29.184-70.656-29.184v49.664l-74.752-74.752 74.752-74.752v49.664c82.432 0 149.504 67.072 149.504 149.504-0.512 83.456-67.072 150.016-149.504 150.016zM729.088 659.968a24.576 24.576 0 1 1 49.152 0 24.576 24.576 0 1 1-49.152 0ZM83.968 262.144c0-82.432 67.072-149.504 149.504-149.504v-49.664l74.752 74.752-74.752 74.752v-49.664c-26.624 0-51.712 10.24-70.656 29.184-18.944 18.944-29.184 44.032-29.184 70.656s10.24 51.712 29.184 70.656c18.944 18.944 44.032 29.184 70.656 29.184h49.664v49.664h-49.664c-82.432-0.512-149.504-67.584-149.504-150.016zM258.56 387.072a24.576 24.576 0 1 1 49.152 0 24.576 24.576 0 1 1-49.152 0ZM596.992 565.248h-150.016c-61.44 0-111.616 50.176-111.616 111.616s50.176 111.616 111.616 111.616h150.016c61.44 0 111.616-50.176 111.616-111.616s-49.664-111.616-111.616-111.616z m-149.504 172.032c-33.28 0-60.416-27.136-60.416-60.416s27.136-60.416 60.416-60.416h150.016c33.28 0 60.416 27.136 60.416 60.416s-27.136 60.416-60.416 60.416h-150.016zM596.992 290.304h-150.016c-61.44 0-111.616 50.176-111.616 111.616s50.176 111.616 111.616 111.616h150.016c61.44 0 111.616-50.176 111.616-111.616s-49.664-111.616-111.616-111.616z m-149.504 172.032c-33.28 0-60.416-27.136-60.416-60.416 0-33.28 27.136-60.416 60.416-60.416h150.016c33.28 0 60.416 27.136 60.416 60.416 0 33.28-27.136 60.416-60.416 60.416h-150.016zM596.992 8.704h-150.016c-61.44 0-111.616 50.176-111.616 111.616s50.176 111.616 111.616 111.616h150.016c61.44 0 111.616-50.176 111.616-111.616s-49.664-111.616-111.616-111.616z m-149.504 172.032c-33.28 0-60.416-27.136-60.416-60.416s27.136-60.416 60.416-60.416h150.016c33.28 0 60.416 27.136 60.416 60.416s-27.136 60.416-60.416 60.416h-150.016z"  horiz-adv-x="1024" />

    
    <glyph glyph-name="fasong" unicode="&#58893;" d="M943.16032 797.46048c-11.65824 11.66848-32.7168 18.63168-56.69376 18.63168-25.23136 0-75.43808-7.98208-128.27136-61.44l-130.304-130.60608-460.928 46.40256a21.99552 21.99552 0 0 1-17.72544-6.4256L84.97664 598.38976a21.92384 21.92384 0 0 1-5.20192-8.6528c-1.75616-5.53984-1.24928-11.42784 1.42848-16.5888s7.19872-8.96 12.73344-10.71616l372.20864-118.21568-113.98144-139.84256-204.99456 10.04544a22.02112 22.02112 0 0 1-16.64-6.54848l-33.6384-34.49344a21.59104 21.59104 0 0 1-4.39808-6.57408 21.79072 21.79072 0 0 1 11.392-28.5952l195.584-84.01408 72.8576-188.34944c1.12128-2.90304 2.82112-5.48864 5.05344-7.68a21.62688 21.62688 0 0 1 15.232-6.23104c5.888 0 11.40224 2.31424 15.52384 6.51264l33.77152 34.37568a21.61664 21.61664 0 0 1 6.23616 15.43168l-1.64864 200.32 134.08256 113.6128 113.5616-369.54112a21.64224 21.64224 0 0 1 20.79744-15.36512 21.90336 21.90336 0 0 1 15.5392 6.53824l64.31232 65.62304a21.76 21.76 0 0 1 6.13888 16.98304l-36.864 457.68704 131.63008 131.47136c74.08128 75.5712 75.16672 154.18368 47.46752 181.87776z m-223.27808-306.83136l36.87936-457.8304-31.7696-32.41472-112.50176 366.12096a21.64736 21.64736 0 0 1-20.7872 15.36512 21.7856 21.7856 0 0 1-14.06976-5.15584l-167.02976-141.5424a21.64736 21.64736 0 0 1-7.69024-16.77824l1.65376-201.50272-3.81952-3.8912-63.98976 165.43232a21.90336 21.90336 0 0 1-11.70432 12.13952l-174.88896 75.12576 4.67456 4.79232 206.1824-10.09152a21.8624 21.8624 0 0 1 17.92512 7.99232l141.13792 173.1584c1.7408 2.12992 3.0464 4.54144 3.88096 7.17312a21.6064 21.6064 0 0 1-1.42336 16.58368 21.58592 21.58592 0 0 1-12.73344 10.72128L140.8 593.20832l32.21504 32.90112 460.78976-46.39744a21.86752 21.86752 0 0 1 17.56672 6.272l137.71264 137.82528c41.58976 42.112 79.232 48.39936 97.9712 48.39936 14.23872 0 23.10144-3.50208 25.29792-5.66272 1.29024-1.37216 6.84032-13.26592 1.95584-36.6848-4.01408-19.24096-15.87712-49.40288-49.59232-83.81952l-138.52672-138.27072a21.66272 21.66272 0 0 1-6.30784-17.14176z"  horiz-adv-x="1024" />

    
    <glyph glyph-name="wenjianjia" unicode="&#59028;" d="M879.872 674.3705600000001H443.19232l-9.7024 38.81472c-13.34272 50.75968-43.92448 77.62944-97.03936 77.62944H142.37184c-42.87488 0-77.62944-34.75456-77.62944-77.62944v-696.53504c0-42.87488 34.75456-77.62944 77.62944-77.62944H879.872c42.86976 0 77.62944 34.75456 77.62944 77.62944V596.74112c0 42.87488-34.75968 77.62944-77.62944 77.62944z m38.8096-657.72032a38.81984 38.81984 0 0 0-38.81472-38.81984H142.37184a38.81984 38.81984 0 0 0-38.81472 38.81984V499.69664a38.81984 38.81984 0 0 0 38.81472 38.81984H879.872a38.81984 38.81984 0 0 0 38.81472-38.81984v-483.0464z m0 550.272a77.22496 77.22496 0 0 1-38.81472 10.40896H142.37184a77.27616 77.27616 0 0 1-38.81472-10.40896V713.18528a38.81984 38.81984 0 0 0 38.81472 38.81984h194.07872c37.19168 0 47.91296-16.77312 58.22464-38.81984l19.40992-77.62944h465.792a38.8096 38.8096 0 0 0 38.81472-38.81472v-29.81888h-0.01024z"  horiz-adv-x="1024" />

    
    <glyph glyph-name="wendang" unicode="&#59029;" d="M285.06112 542.79168h198.54848v-42.98752H285.06112zM285.06112 426.12224h198.54848v-42.98752H285.06112zM285.06112 192.77823999999998h431.89248v-42.98752H285.06112zM846.82752 575.3344l-240.01536 258.47808-0.60416 0.65536H228.77184c-44.01664 0-79.82592-35.80928-79.82592-79.82592v-738.9184c0-44.01664 35.80928-79.83104 79.82592-79.83104h544.46592c44.01664 0 79.83104 35.8144 79.83104 79.83104V569.1750400000001l-6.24128 6.15936zM191.92832 754.64192c0 20.31616 16.52736 36.84352 36.84352 36.84352h347.96544v-172.96384c0-44.01664 35.8144-79.82592 79.83104-79.82592h153.51296l-0.00512-522.97728c0-20.31616-16.52736-36.8384-36.8384-36.8384H228.77184c-20.31616 0-36.84352 16.52736-36.84352 36.8384V754.64192z m427.79648-136.12032l0.00512 137.5232 163.46624-174.36672h-126.62272c-20.32128 0.00512-36.84864 16.53248-36.84864 36.84352zM285.06112 309.44768h431.89248v-42.98752H285.06112z"  horiz-adv-x="1024" />

    
    <glyph glyph-name="wenjuandiaocha" unicode="&#59241;" d="M859.8 72.60000000000002C937.5 168 932 308.79999999999995 843 397.7c-47.5 47.5-109.6 71.2-171.8 71.2-62.2 0-124.4-23.7-171.8-71.2-94.9-94.9-94.9-248.8 0-343.7 47.4-47.4 109.6-71.2 171.8-71.2 54.4 0 108.7 18.1 153.3 54.4l99.9-99.9 35.4 35.4-100 99.9zM821 104.20000000000005l-12.6-15.5-15.6-12.7c-17.3-14.1-36.8-25-57.8-32.4-20.5-7.2-42-10.8-63.8-10.8-51.6 0-100 20.1-136.5 56.5-36.5 36.5-56.5 84.9-56.5 136.5 0 51.6 20.1 100 56.5 136.5 36.5 36.5 84.9 56.5 136.5 56.5 51.6 0 100-20.1 136.5-56.5 34-34 54-79.2 56.3-127.1 2.2-47.7-13-94.2-43-131zM432-14H172V782h680v-288h50V832H122v-896h310zM262 615h500v-50H262zM262 454.9h130v-50H262zM262 294.79999999999995h130v-50H262z"  horiz-adv-x="1024" />

    
    <glyph glyph-name="pcspbx" unicode="&#59030;" d="M704 290.55999999999995h-168.10496v122.88H704c14.28992 0 23.89504 9.6 23.89504 23.89504s-9.60512 23.89504-23.89504 23.89504h-113.28512l95.89248 95.89248c4.608 4.608 7.14752 10.55744 7.14752 16.74752s-2.53952 12.1344-7.14752 16.7424-10.55744 7.14752-16.74752 7.14752-12.12928-2.53952-16.7424-7.14752l-129.38752-129.3824h-23.48032l-129.3824 129.3824c-4.61312 4.608-10.55744 7.14752-16.74752 7.14752s-12.1344-2.53952-16.7424-7.14752c-9.54368-9.54368-9.54368-23.94112 0-33.48992l95.8976-95.89248H320c-14.28992 0-23.89504-9.6-23.89504-23.89504 0-14.28992 9.6-23.89504 23.89504-23.89504h168.10496v-122.88H320c-14.28992 0-23.89504-9.60512-23.89504-23.89504s9.6-23.88992 23.89504-23.88992h168.10496v-168.11008c0-14.28992 9.6-23.88992 23.89504-23.88992s23.89504 9.6 23.89504 23.88992v168.11008H704c14.28992 0 23.89504 9.6 23.89504 23.88992s-9.60512 23.89504-23.89504 23.89504zM853.33504 821.33504h-170.66496c0 23.46496-19.2 32.42496-42.66496 32.42496H384c-23.46496 0-42.66496-8.96-42.66496-32.42496H170.66496c-36.26496 0-64-27.73504-64-64V-32c0-36.26496 27.73504-64 64-64h682.66496c36.26496 0 64 27.73504 64 64V757.3350399999999c0.00512 36.26496-27.72992 64-63.99488 64z m21.32992-853.33504c0-12.8-8.53504-21.33504-21.33504-21.33504H170.66496c-12.8 0-21.33504 8.53504-21.33504 21.33504V757.3350399999999c0 12.8 8.53504 21.33504 21.33504 21.33504h682.66496c12.8 0 21.33504-8.53504 21.33504-21.33504V-32z"  horiz-adv-x="1024" />

    
    <glyph glyph-name="qinwu" unicode="&#58894;" d="M512.384-57.860000000000014c-246.953 0-447.139 200.2-447.139 447.14 0 246.943 200.186 447.138 447.139 447.138 246.944 0 447.138-200.195 447.138-447.139 0-246.94-200.194-447.139-447.138-447.139z m0 843.607c-218.962 0-396.468-177.502-396.468-396.468 0-218.962 177.506-396.467 396.468-396.467S908.85 170.317 908.85 389.279 731.346 785.747 512.384 785.747z m229.041-508.58c-6.158-13.193-21.88-18.86-35.073-12.678l-210.116 70.244c-10.05 4.693-15.645 14.9-15.08 25.334-0.127 1.056-0.612 1.933-0.612 3.02V653.342c0 14.586 11.8 26.39 26.386 26.39 14.585 0 26.385-11.804 26.385-26.39v-275.727l195.409-65.35c13.217-6.184 18.885-21.88 12.701-35.098z"  horiz-adv-x="1024" />

    
    <glyph glyph-name="qianbi" unicode="&#59031;" d="M855.22944 462.4128c-12.8768 0-21.52448-8.64768-21.52448-21.52448v-371.67616c0-38.03648-35.13344-71.39328-75.1872-71.39328H202.90048c-39.36768 0-71.39328 32.03072-71.39328 71.39328V624.82944c0 40.05376 33.36192 75.1872 71.39328 75.1872h373.57056c12.87168 0 21.51936 8.64768 21.51936 21.52448s-8.64768 21.52448-21.51936 21.52448H202.90048c-62.03392 0-114.44224-54.144-114.44224-118.23104v-557.51168c0-63.104 51.33824-114.44736 114.44224-114.44736h555.61728c64.09216 0 118.23616 52.40832 118.23616 114.44736V440.88832c0 12.87168-8.64768 21.52448-21.52448 21.52448zM927.2064 700.5952l-81.54624 81.54112c-12.22656 12.22656-29.81888 19.24096-48.26624 19.24096-18.45248 0-36.0448-7.0144-48.27136-19.24096l-360.29952-360.2944c-2.13504-2.13504-6.1184-6.1184-116.31616-234.32192-6.20032-20.67456-1.31072-42.32704 12.02176-53.74464 7.48032-7.48032 19.07712-12.12928 30.25408-12.12928 8.73472 0 16.32256 2.2784 20.43904 6.1184 147.23584 70.4768 225.18784 109.50656 231.68 115.9936l360.36608 360.36608c25.59488 27.56096 25.56928 70.84032-0.06144 96.47104zM345.7792 178.24256000000003l-27.8784-13.58848c-0.768-0.09728-1.45408-0.31744-2.03264-0.51712-0.38912-0.12288-0.87552-0.29696-1.17248-0.19456-1.93024 1.93024-2.44224 2.57536-1.39264 4.67456 29.66528 62.30016 72.33536 150.43072 95.17056 195.64544l104.02304-104.02304c-38.78912-19.65056-110.44352-54.56896-166.71744-81.9968z m199.49056 102.3232L428.4928 397.34784l279.49568 278.016 116.03968-116.03968-278.7584-278.7584z m351.76448 351.75936l-46.45888-46.45888-115.968 115.968 46.58176 46.336c4.03968 4.0448 10.29632 6.36416 17.152 6.36416 6.8608 0 13.11232-2.31936 17.15712-6.36416l81.71008-81.69984a20.91008 20.91008 0 0 0 7.58784-15.27808c0.30208-6.74816-2.52416-13.62432-7.76192-18.8672z"  horiz-adv-x="1024" />

    
    <glyph glyph-name="qudaoshangxitong" unicode="&#59168;" d="M944.51712 237.49120000000005c-8.94464 32.6144-29.54752 59.69408-58.07616 76.35968 1.2032 2.26816 1.99168 4.64896 2.33472 7.07072 3.43552 19.65056 5.18144 40.69888 5.18144 62.5664 0 158.39744-99.65568 302.31552-247.936 358.11328a20.65408 20.65408 0 0 1-8.07424 1.62304C637.2352 812.31872 580.73088 868.352 511.50848 868.352h-0.9472c-68.44416 0-124.30848-55.808-125.02016-124.62592-2.816-0.0768-5.44768-0.49664-7.92064-1.5616C229.23264 686.33088 129.536 542.39744 129.536 384c0-21.90848 1.73568-42.93632 5.15584-62.45376 0.3584-2.5088 1.152-4.9152 2.35008-7.17312-28.50816-16.62976-49.11104-43.71456-58.06592-76.37504-8.91392-32.51712-4.4288-66.58048 12.63104-95.90784 16.57856-29.0048 43.88352-49.96096 76.8768-59.00288 9.97888-2.85184 20.85376-4.23936 33.24416-4.23936 21.51936 0 42.94144 5.59616 62.02368 16.18944 1.36192-2.26816 3.1488-4.33664 5.3248-6.14912A382.38208 382.38208 0 0 1 512 1.5359999999999445c88.20736 0 174.47936 30.83776 242.93376 86.85056 2.2016 1.82784 3.84512 3.7632 5.23776 6.17472 19.14368-10.61376 40.59136-16.22528 62.09024-16.22528 10.42432 0 21.2736 1.3824 33.20832 4.224 33.024 9.05728 60.3392 30.01856 76.91264 59.01824 16.75264 29.29664 21.05856 63.35488 12.1344 95.91296zM278.18496 184.38144c-6.51264-20.53632-19.4048-37.01248-37.26336-47.63648a80.0512 80.0512 0 0 0-39.40352-10.43968c-6.74816 0-13.42976 0.87552-19.85024 2.60096a78.20288 78.20288 0 0 0-47.47264 36.70528c-10.39872 18.31424-13.184 39.36256-7.84896 59.24864a78.18752 78.18752 0 0 0 36.68992 47.46752c12.8 7.17312 25.99424 10.80832 39.20896 10.80832 6.79936 0 13.71648-0.98816 20.57728-2.94912a78.2592 78.2592 0 0 0 47.46752-36.7104c10.39872-18.30912 13.19936-39.31648 7.89504-59.09504z m476.544 59.10016c10.01472 17.63328 26.89536 30.67904 47.52384 36.72576a74.97216 74.97216 0 0 0 20.52608 2.92864c14.06464 0 27.24352-3.62496 39.18848-10.79296 17.63328-10.00448 30.6688-26.8544 36.68992-47.40096a80.9984 80.9984 0 0 0-8.33536-59.33056c-10.00448-17.6384-26.88-30.67392-47.48288-36.70528-6.4256-1.73056-13.1072-2.60608-19.85536-2.60608-13.73184 0-27.35104 3.61472-39.39328 10.4448-17.62816 10.00448-30.67392 26.87488-36.71552 47.47776-5.3248 19.89632-2.5344 40.93952 7.85408 59.25888z m-430.75584-71.87968c8.91392 32.52224 4.4288 66.58048-12.63104 95.90784-16.57856 29.0048-43.90912 49.9712-76.97408 59.02848-17.5616 4.52096-35.6864 5.504-52.24448 2.8416A333.35296 333.35296 0 0 0 177.664 383.48800000000006c0 138.31168 86.84032 263.91552 216.192 312.84736C412.76416 648.20224 460.1088 615.9359999999999 512 615.9359999999999c52.18816 0 99.33824 32.4608 117.66784 80.88064C759.30112 648.08448 846.336 522.46528 846.336 384c0-17.75616-1.48992-35.95264-4.4288-54.10816-16.49152 2.64704-34.16576 1.68448-52.32128-2.85696-33.024-9.05728-60.34432-30.01344-76.91776-59.01824-16.95744-29.68576-21.44768-63.73376-12.64128-95.85664 4.16768-16.21504 12.36992-32.24576 23.74144-46.4128-58.81856-49.07008-134.00064-76.0832-211.76832-76.0832-77.5424 0-152.69888 26.81856-211.7632 75.57632 10.83392 13.56288 18.816 29.14816 23.73632 46.3616zM512 664.064c-43.19744 0-78.336 35.13856-78.336 78.336s35.13856 78.336 78.336 78.336 78.336-35.13856 78.336-78.336-35.13856-78.336-78.336-78.336z"  horiz-adv-x="1024" />

    
    <glyph glyph-name="add" unicode="&#59163;" d="M665.6 409.6h-128v128c0 15.36-10.24 25.6-25.6 25.6s-25.6-10.24-25.6-25.6v-128h-128c-15.36 0-25.6-10.24-25.6-25.6s10.24-25.6 25.6-25.6h128v-128c0-15.36 10.24-25.6 25.6-25.6s25.6 10.24 25.6 25.6v128h128c15.36 0 25.6 10.24 25.6 25.6 0 12.8-10.24 25.6-25.6 25.6zM512 793.6C286.72 793.6 102.4 609.28 102.4 384s184.32-409.6 409.6-409.6 409.6 184.32 409.6 409.6S737.28 793.6 512 793.6z m0-768c-197.12 0-358.4 161.28-358.4 358.4S314.88 742.4 512 742.4s358.4-161.28 358.4-358.4-161.28-358.4-358.4-358.4z"  horiz-adv-x="1024" />

    
    <glyph glyph-name="icon--1" unicode="&#59164;" d="M665.6 409.6H358.4c-15.36 0-25.6-10.24-25.6-25.6s10.24-25.6 25.6-25.6h307.2c15.36 0 25.6 10.24 25.6 25.6 0 12.8-10.24 25.6-25.6 25.6zM512 793.6C286.72 793.6 102.4 609.28 102.4 384s184.32-409.6 409.6-409.6 409.6 184.32 409.6 409.6S737.28 793.6 512 793.6z m0-768c-197.12 0-358.4 161.28-358.4 358.4S314.88 742.4 512 742.4s358.4-161.28 358.4-358.4-161.28-358.4-358.4-358.4z"  horiz-adv-x="1024" />

    
    <glyph glyph-name="spbx" unicode="&#59318;" d="M358.3 20c42.4-17.9 87.2-28.2 133.3-30.5v-50C255.3-49.89999999999998 67 145.10000000000002 67 384 67 629.8 266.2 829 512 829c90.7 0 175.1-27.1 245.4-73.7L723 718a393.5 393.5 0 0 1-57.2 29.9c-48.7 20.6-100.4 31-153.7 31s-105.1-10.4-153.7-31c-47-19.9-89.3-48.4-125.6-84.7-36.3-36.3-64.8-78.5-84.7-125.6-20.6-48.7-31-100.4-31-153.7s10.4-105.1 31-153.7c19.9-47 48.4-89.3 84.7-125.6 36.2-36.2 78.4-64.7 125.5-84.6z m587 465.9c-5.8 24.7-13.6 48.5-23.3 71.4 0 0.1 0 0.1-0.1 0.2 0 0.1 0 0.1-0.1 0.2 0 0.1 0 0.1-0.1 0.2 0 0.1 0 0.1-0.1 0.2 0 0.1-0.1 0.2-0.1 0.4 0 0.1 0 0.1-0.1 0.1 0 0 0 0.1-0.1 0.1v0.1 0.1 0.1 0.1 0.1s0 0.1-0.1 0.1c0 0.1 0 0.1-0.1 0.2v0.1 0.1 0.1 0.1 0.1 0.1 0.1 0.1 0.1 0.1 0.1 0.1c-0.1 0.1-0.1 0.3-0.2 0.4 0 0 0 0.1-0.1 0.1v0.1 0.1c0 0.1 0 0.1-0.1 0.1 0 0 0 0.1-0.1 0.1-0.1 0.3-0.2 0.5-0.3 0.8 0 0.1 0 0.1-0.1 0.1-2.6 5.9-5.3 11.7-8.1 17.5l-44.9-22c13-26.5 23-54.6 29.8-83.3l48.3 11.2zM513.6-11l0.2-50c34.1 0.1 67.3 4.1 99.1 11.5l-11.3 48.7c-28.6-6.6-58.2-10.1-88-10.2zM957 384.2v0.1 2.4l-50-0.3v-2.4c0-28.9-3.1-57.8-9.3-85.7l48.8-10.8c4.2 19 7.2 38.4 8.9 58.3v0.2 0.2 0.2 0.2c0 0.5 0.1 1 0.1 1.5v0.2 0.4 0.2c0 0.6 0.1 1.1 0.1 1.7v0.2 0.2 0.2 0.2 0.2 0.2c0 0.4 0.1 0.8 0.1 1.1v0.2 0.1 0.1 0.1 0.1 0.1 0.1 0.1 0.2 0.8 0.2 0.2 0.2 0.1 0.1 0.1 0.1 0.1 0.1 0.1 0.1 0.1 0.1 0.2 0.2 0.2 0.2 0.1 0.1 0.1 0.1 0.1 0.1 0.1 0.1 0.1 0.1 0.1 0.1 0.1 0.1 0.1 0.1 0.1 0.4 0.2 0.1 0.1 0.1 0.1 0.1 0.1 0.1 0.1 0.1 0.1 0.1 0.2 0.2 0.2 0.6 0.2 0.1 0.1 0.1 0.1 0.1 0.1 0.1 0.1 0.1 0.1 0.1 0.1 0.1 0.1 0.1 0.1 0.1 0.2 0.6 0.1 0.1 0.1 0.1 0.1 0.1 0.1 0.1 0.1 0.1 0.1 0.1 0.1 0.1 0.1 0.1 0.1 0.1 0.1 0.2 0.4 0.1 0.1 0.1 0.1 0.1 0.1 0.1 0.1 0.1 0.1 0.1 0.1 0.1 0.1 0.1 0.1 0.1 0.1 0.1 0.1 0.1 0.2 0.2 0.2 0.1 0.1 0.1 0.1 0.1 0.1 0.1 0.1 0.1 0.1 0.1 0.1 0.1 0.1 0.1 0.1 0.1 0.1 0.1 0.1 0.1 0.2 0.1 0.1 0.1 0.1 0.1 0.1 0.1 0.1 0.1 0.1 0.1 0.1 0.1 0.1 0.1 0.1 0.1 0.1 0.1 0.1 0.1 0.1 0.1 0.1 0.4 0.1 0.1 0.1 0.1 0.1 0.1 0.1 0.1 0.1 0.1 0.1 0.1 0.1 0.1 0.1 0.1 0.1 0.1 0.1 0.1 0.1 0.1 0.1 0.1 0.1 0.1 0.1 0.1 0.1 0.1 0.1 0.1 0.1 0.1 0.1 0.1 0.1 0.1 0.1 0.1 0.1 0.1 0.1 0.1 0.1 0.1 0.1 0.1 0.1 0.1 0.1 0.1 0.1 0.1 0.1 0.1 0.1 0.1 0.1 0.1 0.1 0.1 0.1 0.1 0.1 0.1 0.1 0.1 0.1 0.1 0.1 0.1 0.4 0.2 0.1 0.1 0.1 0.1 0.1 0.1 0.1 0.1 0.1 0.1 0.1 0.1 0.1 0.1 0.1 0.1 0.1 0.1 0.1 0.1 0.1 0.2c1.3-0.8 1.3-0.8 1.3-0.7zM854.5 668.1c0 0.1-0.1 0.1-0.1 0.1l-0.1 0.1-0.1 0.1-0.1 0.1-0.1 0.1-0.1 0.1v0.1l-0.1 0.1v0.1s0 0.1-0.1 0.1l-0.1 0.1-0.1 0.1s0 0.1-0.1 0.1l-0.2 0.2-0.1 0.1-0.1 0.1-0.1 0.1-0.1 0.1c-0.2 0.2-0.3 0.4-0.5 0.6-13.6 16.1-28.2 31.2-43.9 45.2l-0.1 0.1c-0.2 0.1-0.3 0.3-0.5 0.4l-0.1 0.1-0.1 0.1-0.1 0.1-0.1 0.1-0.1 0.1h-0.1l-0.3 0.3-0.1 0.1-0.1 0.1-0.1 0.1-0.1 0.1-0.1 0.1-0.1 0.1-0.1 0.1-0.1 0.1s-0.1 0-0.1 0.1l-0.1 0.1-0.1 0.1-0.1 0.1-0.1 0.1-0.1 0.1-0.1 0.1-0.4 0.4c-5.9 5.1-11.9 10.1-18 15l-31-39.3c23.3-18.3 44.5-39.2 63.1-62.2L858 664c-1.2 1.3-2.3 2.7-3.5 4.1z m-32.3-528.7l39.2-31s0 0.1 0.1 0.1v0.1l0.1 0.1 0.1 0.1c0.1 0.1 0.2 0.3 0.4 0.4l0.1 0.1 0.1 0.1 0.1 0.1c0.1 0.2 0.2 0.3 0.4 0.5l0.1 0.1 0.1 0.1 0.1 0.1c0.2 0.3 0.4 0.5 0.6 0.8 0.2 0.3 0.4 0.5 0.6 0.8 0.3 0.4 0.5 0.7 0.8 1.1 6.2 8.1 12.2 16.5 17.9 25 0.2 0.3 0.4 0.6 0.6 1 0.2 0.3 0.4 0.6 0.6 1 0 0.1 0.1 0.1 0.1 0.2 0.1 0.2 0.3 0.4 0.4 0.6l0.1 0.1 0.1 0.1c0 0.1 0.1 0.1 0.1 0.2 0.1 0.2 0.2 0.3 0.3 0.5l0.1 0.1 0.1 0.1 0.1 0.1c0.1 0.2 0.3 0.4 0.4 0.6l0.1 0.1 0.1 0.1c0.1 0.1 0.1 0.2 0.2 0.3 0 0 0.1 0.1 0.1 0.2l0.1 0.1 0.1 0.1 0.1 0.1c0.1 0.1 0.1 0.2 0.2 0.3l0.1 0.1s0 0.1 0.1 0.1c0 0 0 0.1 0.1 0.1 0 0 0 0.1 0.1 0.1l0.1 0.1c0 0.1 0.1 0.1 0.1 0.2l0.1 0.1s0 0.1 0.1 0.1v0.1s0 0.1 0.1 0.1v0.1s0 0.1 0.1 0.1v0.1s0 0.1 0.1 0.1c0 0.1 0.1 0.1 0.1 0.2 0 0 0 0.1 0.1 0.1v0.1s0 0.1 0.1 0.1v0.1s0 0.1 0.1 0.1v0.1s0 0.1 0.1 0.1c0 0 0 0.1 0.1 0.1l0.1 0.1v0.1s0 0.1 0.1 0.1v0.1s0 0.1 0.1 0.1v0.1 0.1s0 0.1 0.1 0.1v0.1l0.1 0.1v0.1 0.1 0.1c0 0.1 0.1 0.1 0.1 0.2 0 0 0 0.1 0.1 0.1 0 0 0 0.1 0.1 0.1v0.1s0 0.1 0.1 0.1v0.1s0 0.1 0.1 0.1c0.1 0.1 0.2 0.2 0.2 0.4 0 0 0 0.1 0.1 0.1v0.1s0 0.1 0.1 0.1v0.1s0 0.1 0.1 0.1v0.1s0 0.1 0.1 0.1c0 0 0 0.1 0.1 0.1 0.1 0.1 0.1 0.1 0.1 0.2v0.1s0 0.1 0.1 0.1c0 0 0 0.1 0.1 0.1v0.1s0 0.1 0.1 0.1c0 0 0 0.1 0.1 0.1 0.1 0.2 0.2 0.4 0.3 0.5 0 0 0 0.1 0.1 0.1 0 0 0 0.1 0.1 0.1l0.1 0.1c0.1 0.2 0.2 0.4 0.3 0.5 0 0 0 0.1 0.1 0.1 0 0 0 0.1 0.1 0.1 0 0 0 0.1 0.1 0.1 0.1 0.2 0.3 0.5 0.4 0.7l0.1 0.1c7.6 12.5 14.5 25.4 20.8 38.7l-45.2 21.5c-11.9-25.2-27.7-50.5-46-73.7zM685.1 28.799999999999955l21.9-44.9c3.8 1.9 7.6 3.8 11.4 5.8 0.1 0 0.1 0.1 0.2 0.1 0.3 0.2 0.7 0.4 1 0.5 0.3 0.2 0.6 0.3 0.9 0.5 0.1 0 0.1 0.1 0.2 0.1s0.1 0.1 0.2 0.1 0.1 0.1 0.2 0.1c0.1 0.1 0.2 0.1 0.3 0.2 0.1 0 0.1 0.1 0.2 0.1s0.1 0.1 0.2 0.1 0.1 0.1 0.2 0.1c0.2 0.1 0.3 0.2 0.5 0.3l0.1 0.1s0.1 0 0.1 0.1c0 0 0.1 0 0.1 0.1 0 0 0.1 0 0.1 0.1 0.1 0.1 0.2 0.1 0.3 0.2 0 0 0.1 0 0.1 0.1 0 0 0.1 0 0.1 0.1h0.1s0.1 0 0.1 0.1l0.1 0.1c0.1 0.1 0.2 0.1 0.3 0.2 0 0 0.1 0 0.1 0.1 0 0 0.1 0 0.1 0.1h0.1s0.1 0 0.1 0.1h0.1s0.1 0 0.1 0.1h0.1c0.1 0.1 0.2 0.1 0.3 0.2 0 0 0.1 0 0.1 0.1h0.1s0.1 0 0.1 0.1h0.5s0.1 0 0.1 0.1h0.1l0.1 0.1h0.4s0.1 0 0.1 0.1H726.9s0.1 0 0.1 0.1c0.1 0.1 0.2 0.1 0.3 0.2h0.1s0.1 0 0.1 0.1h0.1s0.1 0 0.1 0.1h0.1s0.1 0 0.1 0.1h0.1s0.1 0 0.1 0.1c0.1 0.1 0.3 0.1 0.4 0.2 0 0 0.1 0 0.1 0.1h0.1s0.1 0 0.1 0.1c0 0 0.1 0 0.1 0.1l0.6 0.3s0.1 0 0.1 0.1c0 0 0.1 0 0.1 0.1 0 0 0.1 0 0.1 0.1 0.2 0.1 0.5 0.3 0.7 0.4 0 0 0.1 0 0.1 0.1 0 0 0.1 0 0.1 0.1h0.1s0.1 0 0.1 0.1c0.1 0.1 0.3 0.2 0.4 0.2 0.1 0.1 0.2 0.1 0.3 0.2l0.1 0.1c0.2 0.1 0.5 0.3 0.7 0.4 0 0 0.1 0 0.1 0.1 0 0 0.1 0 0.1 0.1 0.3 0.2 0.6 0.3 0.9 0.5l0.1 0.1c0.3 0.2 0.7 0.4 1 0.6 1 0.6 1.9 1.1 2.9 1.7 9.2 5.5 18.3 11.3 27.1 17.4 8.9 6.2 17.6 12.7 26 19.4l-31.4 38.9c-22.5-18.6-47.6-34.6-74.1-47.6zM488.5 704v-400.6l285.9-90.9 15.2 47.6-251 79.8V704h-50.1z"  horiz-adv-x="1024" />

    
    <glyph glyph-name="yifa" unicode="&#59389;" d="M512-64c247.424 0 448 200.576 448 448S759.424 832 512 832 64 631.424 64 384s200.576-448 448-448z m0-64C229.216-128 0 101.21600000000001 0 384S229.216 896 512 896s512-229.216 512-512-229.216-512-512-512zM463.84 283.77599999999995l280.576 280.576a32 32 0 1 0 45.28-45.248l-294.176-294.176a64 64 0 0 0-90.496 0l-158.4 158.4a32 32 0 1 0 45.248 45.248l144.832-144.8a19.2 19.2 0 0 1 27.136 0z"  horiz-adv-x="1024" />

    
    <glyph glyph-name="liucheng3" unicode="&#58881;" d="M255.957333 167.637333A128.256 128.256 0 0 0 128 42.66666699999996a128 128 0 1 0 118.613333 176.170666h224.085334V643.2A128.042667 128.042667 0 1 0 627.2 768a128.298667 128.298667 0 0 0-105.301333-125.952v-181.717333h250.581333A128.042667 128.042667 0 0 0 1024 426.666667a128.256 128.256 0 0 0-128-128 128 128 0 0 0-126.805333 110.506666h-247.296v-367.530666h253.013333A128.042667 128.042667 0 0 0 1024 0a128.256 128.256 0 0 0-128-128 128 128 0 0 0-127.658667 118.442667H470.613333v51.2h0.085334V167.67999999999995H256zM896 85.33333300000004a85.333333 85.333333 0 1 1 0-170.666666 85.333333 85.333333 0 0 1 0 170.666666z m0 426.666667a85.333333 85.333333 0 1 1 0-170.666667 85.333333 85.333333 0 0 1 0 170.666667z m-396.8 341.333333a85.333333 85.333333 0 1 1 0-170.666666 85.333333 85.333333 0 0 1 0 170.666666zM128 256a85.333333 85.333333 0 1 1 0-170.666667 85.333333 85.333333 0 0 1 0 170.666667z"  horiz-adv-x="1027" />

    
    <glyph glyph-name="shouye" unicode="&#59034;" d="M657.692672-84.01919999999996h-65.024v241.664a9.728 9.728 0 0 1-9.728 9.1648h-111.104a9.728 9.728 0 0 1-9.728-9.1136v-241.7152H221.059072a79.2576 79.2576 0 0 0-78.6432 80.5888v372.9408H69.660672a65.024 65.024 0 0 0-65.024 44.8512 70.144 70.144 0 0 0 20.1728 78.592L467.996672 877.6192a65.024 65.024 0 0 0 89.0368 0l442.4704-384.6656c22.528-19.456 30.3104-50.8928 19.456-78.592a65.024 65.024 0 0 0-64.9216-44.8512h-72.1408v-372.9408a79.2576 79.2576 0 0 0-78.6432-80.5888h-145.5104z m0 65.024h145.5104a14.9504 14.9504 0 0 1 13.6704 15.5648V434.4832h138.3936c3.8912 4.5568 4.5568 7.168 0 9.728L512.131072 828.928l-444.416-384.6656a5.8368 5.8368 0 0 1 0-6.4512h141.6192v-437.9648a14.9504 14.9504 0 0 1 13.6704-15.5648H398.364672V157.69600000000003a74.752 74.752 0 0 0 74.752 74.0864h109.7728a74.752 74.752 0 0 0 74.752-74.0864v-176.7424z"  horiz-adv-x="1024" />

    
    <glyph glyph-name="baobiao" unicode="&#59032;" d="M602.88 266.66666699999996a25.173333 25.173333 0 0 0 26.453333-26.88v-106.666667a26.88 26.88 0 0 0-53.333333 0v106.666667a25.173333 25.173333 0 0 0 26.88 26.88zM245.333333 384a19.626667 19.626667 0 0 1 16.213334 5.546667l175.786666 170.666666L533.333333 469.333333a26.026667 26.026667 0 0 1 37.546667 0l165.12 160V597.333333a42.666667 42.666667 0 0 1 10.666667-21.333333 27.306667 27.306667 0 0 1 21.333333-10.666667 25.173333 25.173333 0 0 1 26.88 26.88V687.786667c0 21.333333-5.546667 26.88-21.333333 26.88h-106.666667a25.173333 25.173333 0 0 1-26.88-26.88 25.173333 25.173333 0 0 1 26.88-26.453334h26.453333L554.666667 522.666667l-96 90.453333a25.6 25.6 0 0 1-37.12 0L229.12 426.666667a25.6 25.6 0 0 1 0-37.12c0-5.546667 10.666667-5.546667 16.213333-5.546667z m527.786667-10.666667a25.173333 25.173333 0 0 1-26.453333-26.88v-213.333333a26.88 26.88 0 0 1 53.333333 0v213.333333c-5.546667 16.213333-15.786667 26.88-26.88 26.88z m-367.786667 26.88v-266.666666a26.88 26.88 0 1 1 53.333334 0v266.666666a26.88 26.88 0 0 1-53.333334 0z m506.88-389.546666H165.546667a25.173333 25.173333 0 0 0-26.88 26.88V783.786667A25.173333 25.173333 0 0 1 112.213333 810.666667a25.173333 25.173333 0 0 1-26.88-26.88v-773.12A50.346667 50.346667 0 0 1 138.666667-42.66666699999996h773.546666a26.88 26.88 0 0 1 0 53.333334zM234.666667 293.12v-160a25.173333 25.173333 0 0 1 26.88-26.453333 25.173333 25.173333 0 0 1 26.453333 26.453333v160a25.173333 25.173333 0 0 1-26.453333 26.88 25.173333 25.173333 0 0 1-26.88-26.88z"  horiz-adv-x="1024" />

    
    <glyph glyph-name="qingyingyongguanli_huaban" unicode="&#58936;" d="M119.466667 520.5333330000001l388.266666-209.066666c4.266667-4.266667 8.533333-4.266667 12.8-4.266667 4.266667 0 8.533333 0 12.8 4.266667l388.266667 209.066666 12.8 12.8c8.533333 12.8 4.266667 34.133333-12.8 38.4l-388.266667 209.066667c-8.533333 4.266667-21.333333 4.266667-29.866666 0l-384-204.8c-8.533333-4.266667-12.8-8.533333-12.8-12.8-8.533333-12.8-4.266667-34.133333 12.8-42.666667zM520.533333 725.333333l324.266667-174.933333-324.266667-174.933333-324.266666 174.933333L520.533333 725.333333zM89.6 371.20000000000005l418.133333-204.8c4.266667 0 8.533333-4.266667 12.8-4.266667 4.266667 0 8.533333 0 12.8 4.266667l418.133334 204.8c12.8 8.533333 21.333333 25.6 12.8 38.4-4.266667 17.066667-25.6 25.6-38.4 17.066667l-405.333334-200.533334L115.2 426.666667c-12.8 8.533333-34.133333 0-38.4-12.8s-4.266667-34.133333 12.8-42.666667zM925.866667 273.06666700000005l-405.333334-200.533334-405.333333 200.533334c-12.8 8.533333-34.133333 0-38.4-12.8-8.533333-12.8 0-34.133333 12.8-38.4l418.133333-204.8c4.266667 0 8.533333-4.266667 12.8-4.266667 4.266667 0 8.533333 0 12.8 4.266667l418.133334 204.8c12.8 8.533333 21.333333 25.6 12.8 38.4-4.266667 12.8-25.6 21.333333-38.4 12.8z"  horiz-adv-x="1024" />

    
    <glyph glyph-name="distance" unicode="&#58923;" d="M731.63872636 565.58823545l3.27068789 66.95264179 13.19940177 13.20388858c21.58025888 22.91724844 39.49052871 62.16998994 2.29710849 118.9875375C722.0420167 808.04087724 673.99116875 829.99800586 607.58588427 829.99800586c-25.66301133 0-85.62562295 0-141.48753661-37.20239297-72.40378887-1.63758692-121.54935234-17.81605195-150.23629161-49.4416749-27.66849434-30.50847422-31.21734815-70.32203349-31.21734814-101.59770674 0-15.5458626 3.4680955-48.87188438 6.48305156-74.92522412a58.48654043 58.48654043 0 0 1-38.19391875-62.26420781l9.27816592-74.22981065a58.45962129 58.45962129 0 0 1 44.94616084-49.58973018 258.8778668 258.8778668 0 0 1 67.6390834-136.69142607l-12.16301133-48.72382822-140.59022959-35.16101719A210.46360957 210.46360957 0 0 1 62.02706153-44.747258490000036a21.05084707 21.05084707 0 0 1 6.14207373-15.00299034 21.04187432 21.04187432 0 0 1 14.95812568-6.25872393h0.15254208l482.33898282 0.66400753c11.71435693 0 21.24376875 9.52941182 21.24376875 21.24376875s-9.52941182 21.24376875-21.24825556 21.24376875l-459.83898281-0.64606201c8.67696943 68.64855469 59.17298115 125.65902305 126.50697948 142.38484541l152.96410723 38.25672978a21.1764709 21.1764709 0 0 1 15.42472559 15.46510517l18.18394892 72.77168497a21.22133643 21.22133643 0 0 1-6.05682949 20.63808545 214.60019941 214.60019941 0 0 0-65.52592295 136.09022959c-0.87936153 10.96061836-10.18444658 19.54785674-21.20338916 19.54785585h-6.04785673a15.88235273 15.88235273 0 0 0-15.73429747 13.89481612l-9.27816503 74.23878339a15.62662002 15.62662002 0 0 0 3.88534394 12.49950148 15.68943193 15.68943193 0 0 0 11.88484541 5.34795644h3.86739756a21.3110666 21.3110666 0 0 1 21.06879345 23.91774697c-2.97008964 23.81455635-8.58723838 73.30109677-8.5872375 90.13908252 0 56.48105654 11.16251279 107.29112695 145.95613155 108.63708838a20.83100713 20.83100713 0 0 1 12.1540377 4.02891328c40.79611143 29.1804583 84.73728779 33.11515459 122.34346962 33.11515459 51.18245244 0 87.26769668-15.48305068 107.25523418-46.02293086 23.63509512-36.07627148 13.85892334-54.31854463 2.7637084-66.12711856l-18.55633095-18.55184502a21.16749727 21.16749727 0 0 1-6.20937159-13.98454628l-4.52691914-92.9027918c-0.24227315-5.70239297 1.75872393-11.14905322 5.61714873-15.3484541s9.12562295-6.64456641 14.82801591-6.88683955l0.55633096-0.01345957a15.72532383 15.72532383 0 0 0 11.14905235-4.72881358 15.73878339 15.73878339 0 0 0 4.42372939-13.02442734l-9.27816591-74.22083701c-1.02741768-8.30907246-8.08025888-13.8903293-17.56031924-13.8903293a21.19441641 21.19441641 0 0 1-20.93419688-17.63658984c-3.27068789-18.93320068-16.11116631-43.31306075-18.740279-48.17198408a21.25274151 21.25274151 0 0 1 18.55184414-31.60319063 21.32004023 21.32004023 0 0 1 18.6236288 10.9875375c2.16699873 3.93469629 13.10069795 24.29461582 19.68245333 45.99152578 22.56281191 6.20039883 39.56679932 25.71236279 42.53240214 49.01993965l9.27816593 74.21635108a58.15453623 58.15453623 0 0 1-35.39880352 61.01694931zM83.26634346-63.30807539zM943.34510674 200.46011982000005h-17.34496523v17.34945117c0 72.89730791-59.30757685 132.20488565-132.20488477 132.20488565s-132.20488565-59.30757685-132.20488565-132.20488565v-17.34945117h-17.34496523a20.05932217 20.05932217 0 0 1-20.04137578-20.03688984v-224.32701884a20.06380898 20.06380898 0 0 1 20.04137578-20.04137579h299.09970088a20.06380898 20.06380898 0 0 1 20.04137578 20.04137578v224.32701885a20.05932217 20.05932217 0 0 1-20.04137578 20.03688984z m-241.67198408 0v17.34945117c0 50.79660996 41.32552324 92.1221332 92.12213408 92.12213409s92.1221332-41.32552324 92.1221332-92.12213409v-17.34945117h-184.24426728z m-37.39082696-224.32701884v184.24875322h259.02592207v-184.24875323h-259.02592207zM793.79525674 124.34147549a37.38634102 37.38634102 0 0 1-37.38634102-37.38634102c0-13.68394805 7.70339004-25.16051865 18.69541348-31.66600166v-24.41575283a18.69541347 18.69541347 0 1 1 37.39082783 0v24.41575283a36.83449687 36.83449687 0 0 1 18.69541348 31.66600166 37.39980058 37.39980058 0 0 1-37.39531377 37.38634102z"  horiz-adv-x="1024" />

    
    <glyph glyph-name="financial-care" unicode="&#58946;" d="M960.12500029 110.55000028999996a123.75 123.75 0 0 1-41.43750029 47.32499971c3.75000029 18.52499971 5.88750029 37.575 5.88750029 56.8125 0 89.25000029-143.6625 279.60000029-204.48750058 356.24999971h35.70000029a18.74999971 18.74999971 0 0 1 0 37.50000029h-23.9625c47.43749971 42.3 119.85000029 114.33750029 124.16249971 163.64999971 1.2375 14.0625-2.62500029 26.58750029-11.1375 36.225-31.20000029 35.36250029-112.6125-11.025-159.14999971-42.4125-21.33749971 30.375-52.9875 67.5-79.91250029 67.5-26.92500029 0-58.57499971-37.125-79.91249942-67.5C479.33749971 797.325 397.85000029 843.63749971 366.72499971 808.31249971c-8.51249971-9.63749971-12.375-22.1625-11.1375-36.225 4.275-49.31250029 76.725-121.34999971 124.16250058-163.64999971h-23.9625a18.74999971 18.74999971 0 0 1 0-37.50000029h35.24999942c-48.15-59.2875-150.3-190.05000029-182.66249971-270.93749942l-23.81249971 5.2875c1.0125 7.12500029 1.8 13.91249971 2.3625 20.25a18.74999971 18.74999971 0 0 1-5.77500029 15.26249971c-32.13749971 30.44999971-160.65 40.31250029-199.27500029 42.59999971a18.74999971 18.74999971 0 0 1-19.83749942-18.71249942v-337.5a18.74999971 18.74999971 0 0 1 18.74999971-18.75000058h112.5a18.74999971 18.74999971 0 0 1 17.81250029 12.90000058c0.48750029 1.53749971 3.07500029 9.41249971 6.89999942 21.63749942l268.68750029-89.58749942c31.5-11.88749971 53.28749971-18.7875 77.69999971-18.7875 38.025 0.03750029 82.575 16.65 180.45 56.73749942l206.25000029 93.75000029a18.82500029 18.82500029 0 0 1 9.03750029 25.46250029zM392.93749971 775.3875c-0.48750029 5.47499971 1.16250029 7.35000029 1.6875 7.94999971 10.87499971 6.56250029 67.95-17.81250029 125.25000029-58.87499942a18.74999971 18.74999971 0 0 1 26.6625 5.0625c21.2625 32.92499971 49.76250029 64.61250029 58.76250029 66.44999971 9.93750029-1.83750029 38.43749971-33.525 59.7375-66.44999971a18.63749971 18.63749971 0 0 1 26.6625-5.0625c52.23750029 37.42499971 113.175 66.30000029 125.02499942 59.0625 0.74999971-0.82500029 2.40000029-2.7 1.9125-8.17500058-3.41250029-39.11249971-88.3125-121.20000029-144.48749942-166.91249971h-136.72500029c-56.17500029 45.71250029-141.075 127.8-144.48750029 166.95z m146.62500029-204.45000029h132.37499971c64.9125-79.49999971 215.1-279.5625 215.1-356.24999971 0-13.68749971-1.4625-27.225-3.67499971-40.53750029a123.3 123.3 0 0 1-63.37500029 0.86250058l-121.53749942-30.375c-2.06250029 17.84999971-7.57500029 32.81249971-16.46250029 45.3375 11.21249971 12.6 17.55 27.60000029 17.55 43.425 0 35.17499971-24.56250029 58.8375-74.99999971 71.24999942v76.46250058c20.7-5.02499971 36.3375-17.92500029 37.61249942-33.15000058a19.19999971 19.19999971 0 0 1 20.25-17.1 18.74999971 18.74999971 0 0 1 17.1 20.28750029c-2.925 34.68750029-33.93749971 61.91250029-74.96249942 68.32500029v20.21249971a18.74999971 18.74999971 0 0 1-37.50000029 0v-20.28750029C544.32500029 412.42499971 512.07499971 382.12500029 512.07499971 345.93749971c0-35.1 24.56250029-58.79999971 74.96250029-71.2125v-36.675L345.57499971 291.71249971c38.475 89.51249971 165.78749971 245.28750029 193.98750029 279.225z m47.475-257.5125c-24.975 7.23750029-37.4625 17.62499971-37.4625 32.5125 0 15.93749971 15.90000029 29.77499971 37.4625 35.1v-67.6125z m37.50000029-79.9875v32.5125c24.975-7.2 37.50000029-17.58750029 37.49999942-32.5125a27.82500029 27.82500029 0 0 0-7.57499942-18.29999971 144.71250029 144.71250029 0 0 1-30.86250029 13.65000029c0.41249971 1.53749971 0.93750029 2.99999971 0.93750029 4.64999942z m-444.9375-187.49999971H99.53749971v298.64999971c60.26249971-4.76250029 125.28749971-15.11250029 148.95-26.58749942-9.97499971-82.125-54.93750029-228.0375-68.88749942-272.06250029z m550.38749942-20.17500029c-157.65000029-64.64999971-163.16250029-62.55-230.69999971-37.04999942l-270.26250029 90.07499971c15.4125 51.03749971 36.86249971 126.74999971 49.1625 189.45l323.06250058-71.775c41.5125-10.35 58.23749971-26.73749971 60.525-60.975l-36-9a94.57499971 94.57499971 0 0 0-41.13750058-0.97499971l-162.71249942 32.54999942a18.74999971 18.74999971 0 0 1-7.3125-36.74999971l162.71249942-32.55000029a131.77500029 131.77500029 0 0 1 57.56250058 1.38750029l50.2875 12.56249971h0.225l143.6625 35.92500029a85.46249971 85.46249971 0 0 0 86.81249971-28.35l-185.88750029-84.52500029z"  horiz-adv-x="1024" />

    
    <glyph glyph-name="fork-knife" unicode="&#58947;" d="M480.68103125 846.94696125c-1.47995156 9.99967125-9.15969844 16.75944844-20.43932719 17.03943937a19.99934156 19.99934156 0 0 1-19.2393675-18.31939687l-17.5194225-210.11308406c-1.07996437-12.95957344-24.03920906-12.919575-25.11917344-0.03999844L380.84431719 845.62700437a19.99934156 19.99934156 0 0 1-39.87868688 0.03999938l-17.51942344-210.11308406c-1.07996437-12.95957344-24.03920906-12.919575-25.11917343-0.03999844L280.80761 845.62700437A19.99934156 19.99934156 0 0 1 261.56824344 863.98640062c-10.71964688-0.39998719-18.91937719-7.03976813-20.43932719-17.03943937l-36.31880437-241.99203469a156.59484563 156.59484563 0 0 1 92.75694656-167.03450156l-30.9189825-432.82575281c-1.83993937-25.99914375 7.27976062-51.87829219 25.079175-70.9976625a94.59688594 94.59688594 0 0 1 138.35544562 0 94.63688531 94.63688531 0 0 1 25.03917563 70.9976625l-30.87898313 432.82575281a156.55484719 156.55484719 0 0 1 92.71694813 167.03450156l-36.27880594 241.99203469zM397.16378 470.3593575a19.91934469 19.91934469 0 0 1-13.79954531-20.43932719l31.9589475-447.665265c1.07996437-15.15950063-4.03986656-29.71902187-14.439525-40.87865437-20.67931969-22.23926813-58.95805969-22.47925969-79.83737156 0a53.83822781 53.83822781 0 0 0-14.47952344 40.91865375l31.99894687 447.62526562a19.99934156 19.99934156 0 0 1-13.79954625 20.43932719A116.95615031 116.95615031 0 0 0 244.40880781 599.03512219l10.83964313 72.27762 3.23989406-39.11871188A52.91825813 52.91825813 0 0 1 310.92661906 583.99561687c22.99924312 0 43.03858313 15.1995 49.99835344 36.31880438 6.91977188-21.11930437 26.99911125-36.31880437 49.99835437-36.31880437 27.1191075 0 50.15834906 21.15930375 52.43827407 48.19841343l3.2798925 39.11871188 10.83964312-72.27762a116.8761525 116.8761525 0 0 0-80.31735656-128.67576469zM812.47010937 860.34652031a20.2793325 20.2793325 0 0 1-18.23939906 2.51991656c-1.71994312-0.63997875-173.31429469-63.67790437-173.31429562-258.87147843 0-140.51537438 45.67849688-211.47303938 71.43764906-240.23209219l-25.55915906-25.5991575a20.2793325 20.2793325 0 0 1-5.75981063-12.1596l-31.63895812-316.42958438A96.0768375 96.0768375 0 0 1 724.91299156-95.98200094000003c52.91825813 0 95.99683969 43.07858156 95.99683969 95.99684063V843.98705906a20.19933469 20.19933469 0 0 1-8.43972188 16.35946125zM780.91114812 0.014839690000030714a56.07815438 56.07815438 0 0 0-97.51678968-37.55876344 55.27818 55.27818 0 0 0-14.1995325 43.11858l30.91898156 309.30981844 34.95885 34.95885a20.03934 20.03934 0 0 1-2.43991969 30.35900062c-0.71997656 0.5199825-71.71763906 55.03818844-71.71764 223.79263313 0 123.55593281 77.59744594 184.35393188 119.99605031 208.39314V0.014839690000030714z"  horiz-adv-x="1024" />

    
    <glyph glyph-name="map" unicode="&#58948;" d="M185.0624 774.48c-35.0304 0-63.5424-28.5072-63.5424-63.5424s28.5072-63.5424 63.5424-63.5424 63.5424 28.5072 63.5424 63.5424-28.512 63.5424-63.5424 63.5424z m0-84.72a21.2256 21.2256 0 0 0-21.1824 21.1824c0 11.6496 9.5328 21.1824 21.1824 21.1824s21.1824-9.5328 21.1824-21.1824-9.5376-21.1824-21.1824-21.1824zM185.0624 859.2C103.304 859.2 36.8 792.696 36.8 710.9376c0-74.6832 117.4224-246.792 130.8528-266.1888a21.1824 21.1824 0 0 1 34.8192 0c13.4304 19.4016 130.848 191.5104 130.848 266.1888C333.32 792.696 266.816 859.2 185.0624 859.2z m0-364.4688C138.3824 565.9824 79.16 669.936 79.16 710.9376c0 58.416 47.4864 105.9024 105.9024 105.9024 58.416 0 105.8976-47.4864 105.8976-105.9024 0-40.9632-59.2176-144.9552-105.8976-216.2064zM805.0544 407.3136c-57.3408-0.048-103.8144-46.5168-103.8576-103.8576 0-57.288 46.5696-103.8576 103.8576-103.8576s103.8576 46.5696 103.8576 103.8576-46.5696 103.8576-103.8576 103.8576z m0-166.1712c-34.3536 0-62.3136 27.9552-62.3136 62.3136 0 34.3536 27.96 62.3136 62.3136 62.3136s62.3136-27.96 62.3136-62.3136c0.0048-34.3584-27.9552-62.3136-62.3136-62.3136zM805.0544 490.4016c-103.2-0.1152-186.8304-83.7456-186.9456-186.9456 0-94.6752 151.7136-355.0704 169.0368-384.4368a20.856 20.856 0 0 1 35.8128 0c17.328 29.3712 169.0416 289.7616 169.0416 384.4368 0 103.0704-83.8752 186.9456-186.9456 186.9456z m0-519.2496c-52.6752 92.9328-145.4016 269.6544-145.4016 332.304 0 80.1792 65.2224 145.4016 145.4016 145.4016s145.4016-65.2224 145.4016-145.4016c0-62.6448-92.7216-239.3712-145.4016-332.304zM310.0304 453.288c-16.6992 2.448-35.2272 3.6528-54.96 3.6528a18.2688 18.2688 0 1 1 0-36.5424c17.9808 0 34.7136-1.0944 49.7712-3.288a18.2736 18.2736 0 0 1 5.1888 36.1776zM498.5216 83.80319999999995c-4.9344 24.1536-7.3824 50.2848-9.024 70.3824a18.2688 18.2688 0 1 1-36.3984-2.9232c1.68-21.0864 4.3104-48.6768 9.6096-74.7312a18.2736 18.2736 0 0 1 35.8128 7.272zM444.5456 375.5952a159 159 0 0 1-59.5632 54.5568 18.3072 18.3072 0 0 1-17.2128-32.2656c19.3296-10.2672 34.3872-24.0432 46.08-42.1344a18.24 18.24 0 0 1 25.2912-5.4096 18.312 18.312 0 0 1 5.4048 25.2528zM693.584-54.6576a350.208 350.208 0 0 0-68.7024 6.1776 18.2832 18.2832 0 0 1-7.2-35.8464c22.6176-4.5696 48.1632-6.8688 75.8976-6.8688a18.2736 18.2736 0 0 1 0.0048 36.5376zM563.8976-25.132799999999975a128.9952 128.9952 0 0 0-43.2288 45.8592 18.2784 18.2784 0 1 1-31.7904-18.0528 163.6944 163.6944 0 0 1 55.2912-58.5792 18.168 18.168 0 0 1 25.1232 5.352l0.1296 0.2016a18.2304 18.2304 0 0 1-5.4912 25.1952l-0.0336 0.024zM466.0352 207.57600000000002a18.2688 18.2688 0 0 1 18.2352 19.8096c-2.5968 31.0608-5.8464 54.1584-10.56 74.8752a18.048 18.048 0 0 1-21.8544 13.776 18.192 18.192 0 0 1-13.8048-21.72l0.0288-0.1344c4.3104-19.0032 7.344-40.5264 9.792-69.8688a18.2208 18.2208 0 0 1 18.1632-16.7376z"  horiz-adv-x="1024" />

    
    <glyph glyph-name="xuanzhong" unicode="&#58942;" d="M512 384m-512 0a512 512 0 1 1 1024 0 512 512 0 1 1-1024 0ZM426.216727 176.872727L833.163636 583.819636 800.256 616.727273 416.581818 233.053091 219.089455 430.545455 186.181818 397.637818l230.4-230.4 9.634909 9.634909zM512-128C229.236364-128 0 101.236364 0 384S229.236364 896 512 896s512-229.236364 512-512-229.236364-512-512-512z"  horiz-adv-x="1024" />

    
    <glyph glyph-name="biaoshi-" unicode="&#58951;" d="M565.312 896c-281.6 0-512-230.4-512-512s230.4-512 512-512 512 230.4 512 512-230.4 512-512 512z m-64-729.6L283.712 384l89.6 89.6 128-128 256 256 89.6-89.6-345.6-345.6z"  horiz-adv-x="1088" />

    
    <glyph glyph-name="biaoshi-3" unicode="&#58953;" d="M544 896c-281.6 0-512-230.4-512-512s230.4-512 512-512 512 230.4 512 512-230.4 512-512 512z m256-576h-512V448h512v-128z"  horiz-adv-x="1088" />

    
    <glyph glyph-name="biaoshi-4" unicode="&#58955;" d="M533.312 896c-281.6 0-512-230.4-512-512s230.4-512 512-512 512 230.4 512 512-230.4 512-512 512z m256-576h-192v-192h-128V320h-192V448h192V640h128v-192h192v-128z"  horiz-adv-x="1088" />

    
    <glyph glyph-name="biaoshi-5" unicode="&#58956;" d="M522.688 896c-281.6 0-512-230.4-512-512s230.4-512 512-512 512 230.4 512 512-230.4 512-512 512z m64-768h-128V448h128v-320z m-64 384c-38.4 0-64 25.6-64 64s25.6 64 64 64 64-25.6 64-64-25.6-64-64-64z"  horiz-adv-x="1088" />

    
    <glyph glyph-name="biaoshi-6" unicode="&#58957;" d="M554.688 896c-281.6 0-512-230.4-512-512s230.4-512 512-512 512 230.4 512 512-230.4 512-512 512z m0-896c-211.2 0-384 172.8-384 384s172.8 384 384 384 384-172.8 384-384-172.8-384-384-384z m134.4 608l-134.4-134.4-134.4 134.4-89.6-89.6 134.4-134.4-134.4-134.4 89.6-89.6 134.4 134.4 134.4-134.4 89.6 89.6-134.4 134.4 134.4 134.4-89.6 89.6z"  horiz-adv-x="1088" />

    
    <glyph glyph-name="biaoshi-7" unicode="&#58958;" d="M0 532.637538V542.326154h1260.150154v-596.755692c0-40.566154-34.658462-73.570462-77.272616-73.570462H77.272615C34.658462-128 0-94.838154 0-54.429538V532.637538z m1183.035077 253.164308c42.614154 0 77.272615-33.004308 77.272615-73.570461v-89.718154H0V801.949538C0 853.858462 43.086769 896 96.019692 896h453.159385C601.875692 896 645.12 853.858462 645.12 801.949538v-16.147692h537.915077zM0 532.637538V542.326154h1260.150154v-596.755692c0-40.566154-34.658462-73.570462-77.272616-73.570462H77.272615C34.658462-128 0-94.838154 0-54.429538V532.637538z m1183.035077 253.164308c42.614154 0 77.272615-33.004308 77.272615-73.570461v-89.718154H0V801.949538C0 853.858462 43.086769 896 96.019692 896h453.159385C601.875692 896 645.12 853.858462 645.12 801.949538v-16.147692h537.915077z"  horiz-adv-x="1260" />

    
    <glyph glyph-name="biaoshi-1" unicode="&#58954;" d="M682.666667-128c308.138667 0 547.84 264.533333 650.581333 418.133333 42.752 59.733333 42.752 136.533333 0 196.266667C1230.506667 631.466667 990.72 896 682.666667 896 374.528 896 134.826667 631.466667 32.085333 477.866667c-42.752-59.733333-42.752-136.533333 0-187.733334C134.826667 136.533333 374.613333-128 682.666667-128z m0 768c145.493333 0 256.853333-110.933333 256.853333-256S828.074667 128 682.666667 128C537.173333 128 425.813333 238.933333 425.813333 384S537.258667 640 682.666667 640z"  horiz-adv-x="1365" />

    
    </font>
</defs>
</svg>
