<?xml version="1.0" encoding="UTF-8"?>
<svg width="20px" height="18px" viewBox="0 0 20 18" version="1.1" xmlns="http://www.w3.org/2000/svg" xmlns:xlink="http://www.w3.org/1999/xlink">
    <title>1</title>
    <g id="页面-1" stroke="none" stroke-width="1" fill="none" fill-rule="evenodd">
        <g id="查询逻辑-接口设置2" transform="translate(-1314.000000, -197.000000)" fill="#7F7F7F" fill-rule="nonzero">
            <g id="1" transform="translate(1314.000000, 197.000000)">
                <path d="M8.80754547,5.75835866 L1.04648552,5.75835866 C0.469346508,5.75835866 0,5.28191489 0,4.69832827 L0,1.0600304 C0,0.474164134 0.469346508,0 1.04423984,0 L8.8052998,0 C9.38243881,0 9.84954766,0.476443769 9.84954766,1.0600304 L9.84954766,4.69604863 C9.85178531,5.28191489 9.38243881,5.75835866 8.80754547,5.75835866 Z M1.04648552,0.909574468 C0.965641141,0.909574468 0.898270829,0.977963526 0.898270829,1.0600304 L0.898270829,4.69604863 C0.898270829,4.7781155 0.965641141,4.84650456 1.04648552,4.84650456 L8.80754547,4.84650456 C8.88838985,4.84650456 8.95576016,4.7781155 8.95576016,4.69604863 L8.95576016,1.0600304 C8.95576016,0.977963526 8.88838985,0.909574468 8.80754547,0.909574468 L1.04648552,0.909574468 Z M18.9557602,18 L4.32966539,18 C3.75252639,18 3.28542556,17.5235562 3.28542556,16.9399696 L3.28542556,9.06155015 C3.28542556,8.47568389 3.75477206,8.00151976 4.32966539,8.00151976 L18.9557602,8.00151976 C19.5328992,8.00151976 20,8.47796353 20,9.06155015 L20,16.9399696 C20,17.5258359 19.5328992,18 18.9557602,18 Z M4.32966539,8.90881459 C4.24882102,8.90881459 4.18145071,8.97720365 4.18145071,9.05927052 L4.18145071,16.93769 C4.18145071,17.0197568 4.24882102,17.0881459 4.32966539,17.0881459 L18.9557602,17.0881459 C19.0366045,17.0881459 19.1039748,17.0197568 19.1039748,16.93769 L19.1039748,9.06155015 C19.1039748,8.97948328 19.0366045,8.91109422 18.9557602,8.91109422 L4.32966539,8.91109422 L4.32966539,8.90881459 Z" id="形状"></path>
                <path d="M3.58185493,13.1512158 L2.25016843,13.1512158 C1.83920952,13.1512158 1.50460364,12.8115502 1.50460364,12.3966565 L1.49337525,5.42553191 C1.49337525,5.17477204 1.69324051,4.96960486 1.94026499,4.96960486 C2.18728947,4.96960486 2.38715473,5.1724924 2.38715473,5.42325228 L2.39838311,12.2416413 L3.58185493,12.2416413 C3.82887941,12.2416413 4.02874467,12.4445289 4.02874467,12.6952888 C4.02874467,12.9460486 3.83112508,13.1512158 3.58185493,13.1512158 L3.58185493,13.1512158 Z" id="路径"></path>
            </g>
        </g>
    </g>
</svg>