<?xml version="1.0" encoding="UTF-8"?>
<svg width="17px" height="18px" viewBox="0 0 17 18" version="1.1" xmlns="http://www.w3.org/2000/svg" xmlns:xlink="http://www.w3.org/1999/xlink">
    <title>2</title>
    <g id="页面-1" stroke="none" stroke-width="1" fill="none" fill-rule="evenodd">
        <g id="查询逻辑-接口设置2" transform="translate(-1348.000000, -197.000000)" fill="#7F7F7F" fill-rule="nonzero">
            <g id="2" transform="translate(1348.000000, 197.000000)">
                <path d="M12.1218415,5.41907418 L4.87619707,5.41907418 C4.3387562,5.41907418 3.90134995,4.97133296 3.90134995,4.42119353 L3.90134995,0.997880647 C3.90134995,0.447741216 4.3387562,0 4.87619707,0 L12.1218415,0 C12.6592823,0 13.0966952,0.447741216 13.0966952,0.997880647 L13.0966952,4.42119353 C13.0986501,4.97133296 12.6612438,5.41907418 12.1218415,5.41907418 Z M4.87619707,0.853318461 C4.79970001,0.853318461 4.73693319,0.919576129 4.73693319,0.995872839 L4.73693319,4.41918572 C4.73693319,4.49749024 4.80166147,4.5617401 4.87619707,4.5617401 L12.1218415,4.5617401 C12.1983385,4.5617401 12.2611053,4.49548243 12.2611053,4.41918572 L12.2611053,0.997880647 C12.2611053,0.919576129 12.1963771,0.855326269 12.1218415,0.855326269 L4.87619707,0.855326269 L4.87619707,0.853318461 Z M16.0251529,18 L0.974847121,18 C0.437406254,18 0,17.5522588 0,17.0021194 L0,9.58326827 C0,9.03312883 0.437406254,8.58538762 0.974847121,8.58538762 L16.0251529,8.58538762 C16.5625937,8.58538762 17,9.03312883 17,9.58326827 L17,17.0001115 C17,17.5522588 16.5625937,18 16.0251529,18 Z M0.974847121,9.44071389 C0.898350063,9.44071389 0.835583247,9.50697156 0.835583247,9.58326827 L0.835583247,17.0001115 C0.835583247,17.0784161 0.900311526,17.1426659 0.974847121,17.1426659 L16.0251529,17.1426659 C16.1016499,17.1426659 16.1644168,17.0764083 16.1644168,17.0001115 L16.1644168,9.58326827 C16.1644168,9.50496375 16.0996885,9.44071389 16.0251529,9.44071389 L0.974847121,9.44071389 Z" id="形状"></path>
                <path d="M8.50098073,9.41260457 C8.2695281,9.41260457 8.08318911,9.2218628 8.08318911,8.98494144 L8.08122765,4.99141104 C8.08122765,4.75448968 8.26756663,4.56374791 8.49901927,4.56374791 C8.7304719,4.56374791 8.91681089,4.75448968 8.91681089,4.99141104 L8.91877235,8.98494144 C8.91877235,9.2218628 8.73243337,9.41260457 8.50098073,9.41260457 L8.50098073,9.41260457 Z" id="路径"></path>
            </g>
        </g>
    </g>
</svg>