<?xml version="1.0" encoding="UTF-8"?>
<svg width="20px" height="20px" viewBox="0 0 20 20" version="1.1" xmlns="http://www.w3.org/2000/svg" xmlns:xlink="http://www.w3.org/1999/xlink">
    <title>address</title>
    <g id="页面-1" stroke="none" stroke-width="1" fill="none" fill-rule="evenodd">
        <g id="页面组件" transform="translate(-350.000000, -652.000000)" fill="#ABABAB" fill-rule="nonzero">
            <g id="address" transform="translate(350.000000, 652.000000)">
                <path d="M9.99888355,14.166115 C9.84034833,14.166115 9.69744334,14.0768095 9.62599085,13.9383859 L7.78608909,10.2969521 C6.08909233,9.45971258 4.99944178,7.72048702 4.99944178,5.8227441 C4.99944178,3.07213319 7.24126382,0.835029191 9.99888355,0.835029191 C12.7565033,0.835029191 14.9983253,3.07213319 14.9983253,5.8227441 C14.9983253,7.71602174 13.9109077,9.45524731 12.2183767,10.2924868 L10.3695434,13.9383859 C10.3003238,14.0790421 10.1551859,14.166115 9.99888355,14.166115 Z M9.99888355,1.66780344 C7.70123925,1.66780344 5.83230993,3.53205677 5.83230993,5.8227441 C5.83230993,7.44363982 6.78798705,8.92611193 8.26616054,9.60036882 C8.35324327,9.64055632 8.42246288,9.70753548 8.4648878,9.79237575 L9.99888355,12.8265318 L11.539578,9.78791048 C11.5820029,9.7030702 11.6512225,9.63609104 11.7383052,9.59813618 C13.2142458,8.92164665 14.1654572,7.43917454 14.1654572,5.8227441 C14.1654572,3.53205677 12.2965279,1.66780344 9.99888355,1.66780344 Z" id="形状"></path>
                <path d="M9.99888355,7.49052523 C9.07893268,7.49052523 8.33314726,6.74259126 8.33314726,5.82497674 C8.33314726,4.90736222 9.08116557,4.15719561 9.99888355,4.15719561 C10.9166015,4.15719561 11.6646199,4.90512959 11.6646199,5.82497674 C11.6646199,6.74482389 10.9188344,7.49052523 9.99888355,7.49052523 L9.99888355,7.49052523 Z M9.99888355,4.98996986 C9.53890812,4.98996986 9.16601541,5.36282052 9.16601541,5.8227441 C9.16601541,6.28266768 9.53890812,6.65551835 9.99888355,6.65551835 C10.458859,6.65551835 10.8317517,6.28266768 10.8317517,5.8227441 C10.8317517,5.36282052 10.458859,4.98996986 9.99888355,4.98996986 L9.99888355,4.98996986 Z" id="形状"></path>
                <path d="M12.9150385,20 C12.843586,20 12.7721335,19.9821389 12.7073797,19.944184 L7.02020766,16.693462 L0.518030591,18.3210557 C0.392988724,18.3523126 0.261248186,18.3232883 0.160768114,18.245146 C0.0602880429,18.1670036 0,18.0442085 0,17.9169481 L0,2.08530688 C0,1.89329995 0.129507648,1.72808468 0.314837557,1.68119927 L6.98224852,0.0156507796 C7.20553757,-0.0423978272 7.43105951,0.0960257737 7.48688177,0.319289646 C7.54270403,0.542553519 7.40649771,0.76805003 7.18320866,0.823865998 L0.832868148,2.41127213 L0.832868148,17.3833474 L6.98224852,15.847292 C7.08719437,15.8205003 7.19660601,15.8361288 7.29038741,15.8897121 L12.9775595,19.1382015 L19.164899,17.5909828 L19.164899,2.61890753 L14.0426482,3.89820952 C13.8193592,3.95402549 13.5938372,3.81783453 13.538015,3.59457065 C13.4821927,3.37130678 13.618399,3.14581027 13.8416881,3.0899943 L19.4819694,1.68119927 C19.6047784,1.64994233 19.7365189,1.67673399 19.8392319,1.75710898 C19.939712,1.83525134 20,1.95804647 20,2.08530688 L20,17.9169481 C20,18.108955 19.8704924,18.2741703 19.6851624,18.3210557 L13.0155186,19.9866042 C12.9820252,19.9955347 12.9485319,20 12.9150385,20 Z" id="路径"></path>
                <path d="M12.9150385,20 C12.6850508,20 12.497488,19.814691 12.497488,19.5824966 L12.497488,9.34808065 C12.497488,9.11811886 12.6828179,8.93057721 12.9150385,8.93057721 C13.1450262,8.93057721 13.332589,9.11588622 13.332589,9.34808065 L13.332589,19.5824966 C13.332589,19.8124583 13.1450262,20 12.9150385,20 Z M7.08272859,2.714911 C6.85274087,2.714911 6.66517807,2.52960198 6.66517807,2.29740756 L6.66517807,0.419758389 C6.66517807,0.1897966 6.85050798,0.00225494728 7.08272859,0.00225494728 C7.31271631,0.00225494728 7.50027911,0.187563961 7.50027911,0.419758389 L7.50027911,2.29964019 C7.49804622,2.52736934 7.31271631,2.714911 7.08272859,2.714911 Z M7.08272859,16.6666704 C6.85274087,16.6666704 6.66517807,16.4813614 6.66517807,16.2491669 L6.66517807,9.34808065 C6.66517807,9.11811886 6.85050798,8.93057721 7.08272859,8.93057721 C7.31271631,8.93057721 7.50027911,9.11588622 7.50027911,9.34808065 L7.50027911,16.2491669 C7.49804622,16.4791287 7.31271631,16.6666704 7.08272859,16.6666704 L7.08272859,16.6666704 Z" id="形状"></path>
                <path d="M8.81098582,1.82408815 C8.74176622,1.82408815 8.67031372,1.80622704 8.6055599,1.76827218 L6.87506978,0.779213223 C6.67634253,0.665348648 6.60489003,0.410827834 6.72100033,0.209890349 C6.83487775,0.0111855022 7.08942726,-0.060258937 7.29038741,0.0558382767 L9.02087753,1.04489723 C9.21960478,1.15876181 9.29105727,1.41328262 9.17494697,1.61422011 C9.0967958,1.74817843 8.9561237,1.82408815 8.81098582,1.82408815 Z" id="路径"></path>
            </g>
        </g>
    </g>
</svg>