<?xml version="1.0" encoding="UTF-8"?>
<svg width="12px" height="6px" viewBox="0 0 12 6" version="1.1" xmlns="http://www.w3.org/2000/svg" xmlns:xlink="http://www.w3.org/1999/xlink">
    <title>arrow12x6</title>
    <g id="页面-1" stroke="none" stroke-width="1" fill="none" fill-rule="evenodd">
        <g id="页面呈现" transform="translate(-786.000000, -83.000000)" fill="#7F7F7F" fill-rule="nonzero">
            <g id="arrow12x6" transform="translate(786.000000, 83.000000)">
                <path d="M11.9869168,0.0792166482 L6.50206739,5.78843537 C6.24764302,6.05009334 5.83182868,6.07181609 5.55098124,5.83812151 L5.49840626,5.78843537 L0.0130831974,0.0796853853 C0,0.0661339437 -0.00362423325,0.0461946823 0.00379091727,0.0289701506 C0.0112060678,0.0117456189 0.0282672856,0.000539995757 0.047185888,0.000468803651 L1.32603679,0.000468803651 C1.35182104,0.000566184702 1.37645109,0.0110608319 1.39424217,0.0295305082 L6,4.82189933 L10.6052842,0.029061771 C10.6231889,0.0104744855 10.6480144,0 10.6739632,0 L11.9528141,0 C11.9717327,7.12585877e-05 11.9887939,0.0112768817 11.9962091,0.0285014134 C12.0036242,0.0457259451 12,0.0656652065 11.9869168,0.0792166482 Z" id="路径"></path>
            </g>
        </g>
    </g>
</svg>