<?xml version="1.0" encoding="UTF-8"?>
<svg width="4px" height="8px" viewBox="0 0 4 8" version="1.1" xmlns="http://www.w3.org/2000/svg" xmlns:xlink="http://www.w3.org/1999/xlink">
    <title>arrow-right</title>
    <g id="页面-1" stroke="none" stroke-width="1" fill="none" fill-rule="evenodd">
        <g id="页面呈现" transform="translate(-114.000000, -28.000000)" fill="#7F7F7F" fill-rule="nonzero">
            <g id="arrow-right" transform="translate(114.000000, 28.000000)">
                <path d="M0.0528110988,7.9915933 L3.85895692,4.33488269 C4.03339556,4.16525975 4.04787739,3.88803925 3.89208101,3.70080023 L3.85895692,3.66574886 L0.0531235902,0.00872247586 C0.0440892958,0 0.0307964549,-0.00241625087 0.0193134337,0.00252737794 C0.00783041258,0.00747100674 0.000359997172,0.0188456009 0.000312535767,0.0314585004 L0.000312535767,0.884059419 C0.000377456468,0.901249598 0.00737388795,0.917670284 0.0196870054,0.929531468 L3.21459955,4.00015789 L0.019374514,7.07015275 C0.00698299031,7.08208968 0,7.09864068 0,7.11594058 L0,7.9685415 C4.75057251e-05,7.9811544 0.00751792113,7.99252899 0.0190009423,7.99747262 C0.0304839634,8.00241625 0.0437768043,8 0.0528110988,7.99127752 L0.0528110988,7.9915933 Z" id="路径"></path>
            </g>
        </g>
    </g>
</svg>