<?xml version="1.0" encoding="UTF-8"?>
<svg width="18px" height="20px" viewBox="0 0 18 20" version="1.1" xmlns="http://www.w3.org/2000/svg" xmlns:xlink="http://www.w3.org/1999/xlink">
    <title>enclosure</title>
    <g id="页面-1" stroke="none" stroke-width="1" fill="none" fill-rule="evenodd">
        <g id="页面组件" transform="translate(-236.000000, -452.000000)" fill="#ABABAB" fill-rule="nonzero">
            <g id="enclosure" transform="translate(236.000000, 452.000000)">
                <path d="M11.3661342,4.89358297 C11.6779553,4.64266283 12.115016,4.64266283 12.457508,4.92430789 C12.7693291,5.23667787 12.7693291,5.67450792 12.457508,5.9868779 L5.77891374,12.6465034 C5.34185304,13.0536086 5.34185304,13.7730837 5.77891374,14.2416387 C6.18530351,14.6794687 6.90351438,14.6794687 7.37124601,14.2416387 L15.2051118,6.36325812 C16.2964856,5.26996319 16.2964856,3.45719315 15.2051118,2.36133781 C14.113738,1.26804289 12.3041534,1.26804289 11.2102236,2.36133781 L10.2747604,3.29844775 L10.0242812,3.5493679 L2.81661342,10.7697232 C1.03769968,12.5517683 1.03769968,15.3963834 2.81661342,17.1784285 C4.59552716,18.9604737 7.43514377,18.9604737 9.21405751,17.1784285 L16.4549521,9.98879821 C16.5801917,9.92734838 16.6415335,9.83261322 16.7054313,9.73787806 C17.0172524,9.42550808 17.4543131,9.42550808 17.7661342,9.73787806 C18.0779553,10.050248 18.0779553,10.4880781 17.7661342,10.8004481 L17.7047923,10.8618979 C17.6434505,10.8926228 17.5795527,10.987358 17.5182109,11.0488078 L10.2747604,18.2409986 C7.93354633,20.5863338 4.09456869,20.5863338 1.75591054,18.2409986 C-0.585303514,15.8956633 -0.585303514,12.049928 1.75591054,9.70715314 L10.1495208,1.26548248 C11.8338658,-0.421827492 14.5814696,-0.421827492 16.2964856,1.26548248 C17.9808307,2.95279245 17.9808307,5.70523284 16.2964856,7.42326772 L8.43194888,15.3042087 C7.40191693,16.3360538 5.71757188,16.3360538 4.71821086,15.3042087 C3.68817891,14.2723636 3.68817891,12.5850536 4.71821086,11.5839334 L11.3661342,4.89358297 Z" id="路径"></path>
            </g>
        </g>
    </g>
</svg>