<?xml version="1.0" encoding="UTF-8"?>
<svg width="16px" height="16px" viewBox="0 0 16 16" version="1.1" xmlns="http://www.w3.org/2000/svg" xmlns:xlink="http://www.w3.org/1999/xlink">
    <title>attribute</title>
    <g id="页面-1" stroke="none" stroke-width="1" fill="none" fill-rule="evenodd">
        <g id="attribute">
            <rect id="矩形" fill="#FFE4E4" opacity="0" x="0" y="0" width="16" height="16"></rect>
            <g id="调节器备份-2" fill="#7F7F7F" fill-rule="nonzero">
                <path d="M15.6075808,7.11397059 L14.483835,7.11397059 C14.3411371,6.26838235 13.5919732,5.58823529 12.7001115,5.58823529 C11.8082497,5.58823529 11.0590858,6.19485294 10.916388,7.11397059 L0.37458194,7.11397059 C0.142697882,7.11397059 0,7.26102941 0,7.5 C0,7.73897059 0.142697882,7.88602941 0.37458194,7.88602941 L10.9342252,7.88602941 C11.0769231,8.73161765 11.826087,9.41176471 12.7179487,9.41176471 C13.6098105,9.41176471 14.3589744,8.80514706 14.5016722,7.88602941 L15.6254181,7.88602941 C15.8573021,7.88602941 16,7.73897059 16,7.5 C15.9821628,7.26102941 15.7502787,7.11397059 15.6075808,7.11397059 Z M12.7001115,8.63970588 C12.1114827,8.63970588 11.5763657,8.10661765 11.5763657,7.5 C11.5763657,6.89338235 12.0936455,6.34191176 12.7001115,6.34191176 C13.2887402,6.34191176 13.8238573,6.875 13.8238573,7.5 C13.7525084,8.10661765 13.3065775,8.63970588 12.7001115,8.63970588 Z M0.37458194,2.29779412 L2.2296544,2.29779412 C2.37235229,3.14338235 3.12151616,3.82352941 4.01337793,3.82352941 C4.90523969,3.82352941 5.65440357,3.21691176 5.79710145,2.29779412 L15.6075808,2.29779412 C15.8394649,2.29779412 15.9821628,2.15073529 15.9821628,1.91176471 C15.9821628,1.67279412 15.8394649,1.52573529 15.6075808,1.52573529 L5.72575251,1.52573529 C5.58305463,0.680147059 4.83389075,0 3.94202899,0 C3.05016722,0 2.30100334,0.606617647 2.15830546,1.52573529 L0.37458194,1.52573529 C0.142697882,1.52573529 0,1.67279412 0,1.91176471 C0,2.05882353 0.142697882,2.29779412 0.37458194,2.29779412 Z M4.01337793,0.753676471 C4.60200669,0.753676471 5.13712375,1.28676471 5.13712375,1.89338235 C5.13712375,2.5 4.61984392,3.05147059 4.01337793,3.05147059 C3.40691193,3.05147059 2.88963211,2.51838235 2.88963211,1.89338235 C2.88963211,1.26838235 3.33556299,0.753676471 4.01337793,0.753676471 Z M15.6075808,12.7022059 L8.68673356,12.7022059 C8.54403567,11.8566176 7.79487179,11.1764706 6.90301003,11.1764706 C6.01114827,11.1764706 5.26198439,11.7830882 5.11928651,12.7022059 L0.37458194,12.7022059 C0.142697882,12.7022059 0,12.8492647 0,13.0882353 C0,13.3088235 0.142697882,13.4742647 0.37458194,13.4742647 L5.13712375,13.4742647 C5.27982163,14.3198529 6.02898551,15 6.92084727,15 C7.81270903,15 8.56187291,14.3933824 8.70457079,13.4742647 L15.6075808,13.4742647 C15.8394649,13.4742647 15.9821628,13.3272059 15.9821628,13.0882353 C15.9821628,12.9411765 15.7502787,12.7022059 15.6075808,12.7022059 Z M6.90301003,14.2463235 C6.31438127,14.2463235 5.79710145,13.7132353 5.79710145,13.1066176 C5.79710145,12.5 6.31438127,11.9485294 6.90301003,11.9485294 C7.4916388,11.9485294 8.02675585,12.4816176 8.02675585,13.1066176 C7.95540691,13.7132353 7.50947603,14.2463235 6.90301003,14.2463235 Z" id="形状"></path>
            </g>
        </g>
    </g>
</svg>