<?xml version="1.0" encoding="UTF-8"?>
<svg width="26px" height="26px" viewBox="0 0 26 26" version="1.1" xmlns="http://www.w3.org/2000/svg" xmlns:xlink="http://www.w3.org/1999/xlink">
    <title>bangding</title>
    <g id="页面-1" stroke="none" stroke-width="1" fill="none" fill-rule="evenodd">
        <g id="展示组件-表格组件" transform="translate(-661.000000, -272.000000)" fill="#000000" fill-rule="nonzero">
            <g id="bangding" transform="translate(661.000000, 272.000000)">
                <rect id="矩形" opacity="0" x="0" y="0" width="26" height="26"></rect>
                <path d="M16.3066612,19.2220395 L24.1291118,11.3995888 C24.4337993,11.0949013 24.4337993,10.5977796 24.1291118,10.2898849 L18.8564145,5.0171875 C18.551727,4.7125 18.0546053,4.7125 17.7467105,5.0171875 L13.8338816,8.93001645 L15.1071546,10.2032895 L17.7435033,7.56694079 C18.0481908,7.26225329 18.5453125,7.26225329 18.8532072,7.56694079 L21.5665296,10.2802632 C21.8712171,10.5849507 21.8712171,11.0820724 21.5665296,11.3899671 L16.2970395,16.6626645 C15.992352,16.967352 15.4952303,16.967352 15.1873355,16.6626645 L12.4740132,13.9493421 C12.1693257,13.6446546 12.1693257,13.1475329 12.4740132,12.8396382 L12.6696546,12.6439967 L11.3963816,11.3675164 L9.92425987,12.8396382 C9.61957237,13.1443257 9.61957237,13.6414474 9.92425987,13.9493421 L15.1969572,19.2220395 C15.5016447,19.5299342 15.9987664,19.5299342 16.3066612,19.2220395 Z" id="路径" fill-opacity="0.6"></path>
                <path d="M9.62598684,6.71060855 L1.80353618,14.5330592 C1.49884868,14.8377467 1.49884868,15.3348684 1.80353618,15.6427632 L7.07623355,20.9154605 C7.38092105,21.220148 7.87804276,21.220148 8.1859375,20.9154605 L12.0987664,17.0026316 L10.8254934,15.7293586 L8.18914474,18.3657072 C7.88445724,18.6703947 7.38733553,18.6703947 7.07944079,18.3657072 L4.36611842,15.6523849 C4.06143092,15.3476974 4.06143092,14.8505757 4.36611842,14.5426809 L9.63881579,9.26998355 C9.94350329,8.96529605 10.440625,8.96529605 10.7485197,9.26998355 L13.4618421,11.9833059 C13.7665296,12.2879934 13.7665296,12.7851151 13.4618421,13.0930099 L13.2662007,13.2886513 L14.5394737,14.5619243 L16.0115954,13.0898026 C16.3162829,12.7851151 16.3162829,12.2879934 16.0115954,11.9800987 L10.7356908,6.71060855 C10.4310033,6.40271382 9.93388158,6.40271382 9.62598684,6.71060855 Z" id="路径" fill-opacity="0.6"></path>
            </g>
        </g>
    </g>
</svg>