<?xml version="1.0" encoding="UTF-8"?>
<svg width="18px" height="18px" viewBox="0 0 18 18" version="1.1" xmlns="http://www.w3.org/2000/svg" xmlns:xlink="http://www.w3.org/1999/xlink">
    <title>biaoge</title>
    <g id="页面-1" stroke="none" stroke-width="1" fill="none" fill-rule="evenodd">
        <g id="展示组件-表格组件" transform="translate(-80.000000, -296.000000)" fill-rule="nonzero">
            <g id="biaoge" transform="translate(80.000000, 296.000000)">
                <path d="M16.4640749,18 L1.53392002,18 C0.687757603,18 0,17.3120891 0,16.4657382 L0,1.53426184 C0,0.687910864 0.687757603,5.70726926e-14 1.53392002,5.70726926e-14 L16.4640749,5.70726926e-14 C17.3102373,5.70726926e-14 17.9979949,0.687910864 17.9979949,1.53426184 L17.9979949,16.4677437 C17.9959898,17.3120891 17.3102373,18 16.4640749,18 Z M1.53392002,0.932590529 C1.20307452,0.932590529 0.93438788,1.20133705 0.93438788,1.53225627 L0.93438788,16.4657382 C0.93438788,16.7966574 1.20307452,17.0654039 1.53392002,17.0654039 L16.4640749,17.0654039 C16.7949204,17.0654039 17.063607,16.7966574 17.063607,16.4657382 L17.063607,1.53426184 C17.063607,1.20334262 16.7949204,0.9345961 16.4640749,0.9345961 L1.53392002,0.9345961 L1.53392002,0.932590529 Z" id="形状" fill="#ABABAB"></path>
                <path d="M17.5308009,5.13426184 L0.46719394,5.13426184 L0.46719394,0.627743733 C0.46719394,0.539498607 0.539378411,0.46729805 0.627603877,0.46729805 L17.370391,0.46729805 C17.4586165,0.46729805 17.5308009,0.539498607 17.5308009,0.627743733 L17.5308009,5.13426184 L17.5308009,5.13426184 Z" id="路径" fill="#515151"></path>
                <path d="M17.9959898,5.59955432 L0.00200512421,5.59955432 L0.00200512421,1.53426184 C0.00200512421,0.687910864 0.689762727,2.85363463e-13 1.53592514,2.85363463e-13 L16.46608,2.85363463e-13 C17.3122424,2.85363463e-13 18,0.687910864 18,1.53426184 L18,5.59955432 L17.9959898,5.59955432 Z M0.93438788,4.66696379 L17.063607,4.66696379 L17.063607,1.53426184 C17.063607,1.20334262 16.7949204,0.9345961 16.4640749,0.9345961 L1.53392002,0.9345961 C1.20307452,0.9345961 0.93438788,1.20334262 0.93438788,1.53426184 L0.93438788,4.66696379 Z M17.5308009,11.7325905 L0.46719394,11.7325905 C0.208532917,11.7325905 0,11.5240111 0,11.2652925 C0,11.0085794 0.208532917,10.7979944 0.46719394,10.7979944 L17.5308009,10.7979944 C17.789462,10.7979944 17.9979949,11.0065738 17.9979949,11.2652925 C17.9959898,11.5240111 17.7874568,11.7325905 17.5308009,11.7325905 Z" id="形状" fill="#ABABAB"></path>
                <path d="M5.99933163,18 C5.7406706,18 5.53213769,17.7914206 5.53213769,17.5327019 L5.53213769,5.13426184 C5.53213769,4.87754875 5.7406706,4.66696379 5.99933163,4.66696379 C6.25799265,4.66696379 6.46652557,4.87554318 6.46652557,5.13426184 L6.46652557,17.5327019 C6.46652557,17.7914206 6.25799265,18 5.99933163,18 Z M11.9986633,18 C11.7400022,18 11.5314693,17.7914206 11.5314693,17.5327019 L11.5314693,5.13426184 C11.5314693,4.87754875 11.7400022,4.66696379 11.9986633,4.66696379 C12.2573243,4.66696379 12.4658572,4.87554318 12.4658572,5.13426184 L12.4658572,17.5327019 C12.4658572,17.7914206 12.2553191,18 11.9986633,18 Z" id="形状" fill="#ABABAB"></path>
            </g>
        </g>
    </g>
</svg>