<?xml version="1.0" encoding="UTF-8"?>
<svg width="45px" height="20px" viewBox="0 0 45 20" version="1.1" xmlns="http://www.w3.org/2000/svg" xmlns:xlink="http://www.w3.org/1999/xlink">
    <title>btn</title>
    <g id="页面-1" stroke="none" stroke-width="1" fill="none" fill-rule="evenodd">
        <g id="页面组件" transform="translate(-144.000000, -453.000000)">
            <g id="btn" transform="translate(144.000000, 453.000000)">
                <rect id="矩形备份-5" stroke="#ABABAB" stroke-width="0.909090909" fill="#515151" x="0.454545455" y="0.454545455" width="44.0909091" height="19.0909091" rx="3.63636364"></rect>
                <path d="M16.9596,14.8981818 C18.3204,14.8981818 19.404,14.4527273 20.1978,13.5618182 C20.9538,12.6963636 21.3318,11.5763636 21.3318,10.1890909 C21.3318,8.78909091 20.9538,7.65636364 20.1978,6.80363636 C19.404,5.9 18.3204,5.45454545 16.9596,5.45454545 C15.5862,5.45454545 14.5026,5.9 13.7214,6.81636364 C12.9654,7.68181818 12.6,8.80181818 12.6,10.1890909 C12.6,11.5636364 12.9654,12.6836364 13.7214,13.5490909 C14.5026,14.44 15.5862,14.8981818 16.9596,14.8981818 Z M16.9596,13.6763636 C16.002,13.6763636 15.2586,13.3454545 14.7294,12.7090909 C14.2254,12.0854545 13.9734,11.2454545 13.9734,10.1890909 C13.9734,9.12 14.2254,8.28 14.7294,7.65636364 C15.2586,6.99454545 16.002,6.67636364 16.9596,6.67636364 C17.9172,6.67636364 18.6606,6.98181818 19.1772,7.61818182 C19.6812,8.24181818 19.9458,9.09454545 19.9458,10.1890909 C19.9458,11.2709091 19.6812,12.1236364 19.1772,12.7345455 C18.6606,13.3581818 17.9172,13.6763636 16.9596,13.6763636 Z M25.4412,14.72 L25.4412,11.5763636 L26.613,10.4436364 L30.267,14.72 L32.1066,14.72 L27.5454,9.54 L31.527,5.63272727 L29.7882,5.63272727 L25.4412,10.0236364 L25.4412,5.63272727 L24.0678,5.63272727 L24.0678,14.72 L25.4412,14.72 Z" id="OK" fill="#ABABAB" fill-rule="nonzero"></path>
            </g>
        </g>
    </g>
</svg>