<?xml version="1.0" encoding="UTF-8"?>
<svg width="12px" height="12px" viewBox="0 0 12 12" version="1.1" xmlns="http://www.w3.org/2000/svg" xmlns:xlink="http://www.w3.org/1999/xlink">
    <title>circle</title>
    <g id="页面-1" stroke="none" stroke-width="1" fill="none" fill-rule="evenodd">
        <g id="页面呈现-点击" transform="translate(-35.000000, -143.000000)" fill="#FFFFFF" fill-rule="nonzero">
            <g id="circle" transform="translate(35.000000, 143.000000)">
                <path d="M6,0 C2.6869173,0 0,2.6869173 0,6 C0,9.3130827 2.6869173,12 6,12 C9.3130827,12 12,9.3130827 12,6 C12,2.6869173 9.3130827,0 6,0 Z M7.75759398,6.01443608 C7.75759398,6.98345864 6.96902256,7.77203008 6,7.77203008 L5.99278195,7.77203008 C5.81593985,7.77022557 5.67157895,7.62586467 5.67157895,7.44721804 C5.67157895,7.26857141 5.81774436,7.12240601 5.99639098,7.12240601 L6.00180451,7.12240601 C6.61172932,7.1206015 7.10796993,6.62436091 7.10796993,6.01443608 C7.10796993,5.40270676 6.61172932,4.90646615 6,4.90646617 C5.38827068,4.90646618 4.89203007,5.40270678 4.89203007,6.01443608 C4.89203007,6.04150375 4.89383458,6.06857142 4.89563909,6.09563909 C4.90827068,6.27428571 4.77473684,6.42947368 4.59428571,6.44210527 C4.4156391,6.45473685 4.26045113,6.32120302 4.24781955,6.14075187 C4.24421053,6.09744361 4.24240602,6.05413533 4.24240602,6.01263159 C4.24240602,5.04360903 5.03097744,4.25503759 6,4.25503759 C6.96902256,4.25503759 7.75759398,5.04541353 7.75759398,6.01443608 L7.75759398,6.01443608 Z M8.88360902,8.99548873 C8.1130827,9.76601504 7.08992481,10.1900752 6,10.1900752 C4.91007519,10.1900752 3.8869173,9.76601503 3.11639098,8.99548873 C2.34586466,8.22496242 1.92180452,7.20180451 1.92180452,6.1118797 C1.92180452,5.02375941 2.34586466,4.00060151 3.11458647,3.2300752 C3.88330827,2.45954888 4.90466166,2.03548873 5.99278195,2.03368421 C6.17142857,2.03368421 6.31759398,2.1780451 6.31759399,2.35849625 C6.31759399,2.53714286 6.17323309,2.68330827 5.99278195,2.68330827 C4.10526315,2.6869173 2.57142857,4.22436091 2.57142857,6.1118797 C2.57142857,8.00300753 4.10887218,9.54045114 6,9.54045112 C7.89112782,9.54045111 9.42857143,8.00300751 9.42857143,6.1118797 L9.42857143,6.10466166 C9.42857143,5.92601504 9.57473684,5.77984963 9.75338346,5.77984963 C9.93203008,5.77984963 10.0781955,5.92601504 10.0781955,6.10466166 L10.0781955,6.1118797 C10.0781955,7.20180451 9.65413534,8.22496241 8.88360902,8.99548873 Z" id="形状"></path>
            </g>
        </g>
    </g>
</svg>