<?xml version="1.0" encoding="UTF-8"?>
<svg width="14px" height="14px" viewBox="0 0 14 14" version="1.1" xmlns="http://www.w3.org/2000/svg" xmlns:xlink="http://www.w3.org/1999/xlink">
    <title>copy2</title>
    <g id="页面-1" stroke="none" stroke-width="1" fill="none" fill-rule="evenodd">
        <g id="页面逻辑" transform="translate(-232.000000, -278.000000)" fill="#FFFFFF" fill-rule="nonzero">
            <g id="copy2" transform="translate(232.000000, 278.000000)">
                <path d="M3.50000001,13.3 L11.9,13.3 C12.7015,13.3 13.3,12.6714 13.3,11.9 L13.3,3.50000001 C13.3,3.11340068 12.9865993,2.8 12.6,2.8 C12.4067003,2.8 12.25,2.64329966 12.25,2.45 C12.25,2.25670034 12.4067003,2.1 12.6,2.1 C12.9713031,2.1 13.3273986,2.24749957 13.5899495,2.5100505 C13.8525004,2.77260144 14,3.12869692 14,3.50000001 L14,11.9 C14,13.1789 13.1278,14 11.9,14 L3.50000001,14 C3.12869692,14 2.77260144,13.8525004 2.5100505,13.5899495 C2.24749957,13.3273986 2.09998242,12.9713031 2.09998242,12.6 C2.09874957,12.474957 2.16430375,12.3587455 2.27196892,12.2951411 C2.37963408,12.2315367 2.51305333,12.2302025 2.62196892,12.2916411 C2.73088451,12.3530797 2.79874958,12.467957 2.8,12.593 C2.8,12.9864 3.11360001,13.3 3.50000001,13.3 Z M1.32230001,0 L10.577,0 C11.3078,0 11.9000002,0.5922 11.9000002,1.32230001 L11.9000002,10.577 C11.9001857,10.927817 11.7609544,11.2643291 11.5129549,11.5124598 C11.2649554,11.7605906 10.9285171,11.9000002 10.5777,11.9000002 L1.323,11.9000002 C0.972182965,11.9001857 0.635670924,11.7609544 0.387540152,11.5129549 C0.13940938,11.2649554 0,10.9285171 0,10.5777 L0,1.323 C0,0.5922 0.5922,0 1.32230001,0 Z M1.3566,0.69999963 C0.993969836,0.69999963 0.700000005,0.993969836 0.700000005,1.3566 L0.700000005,10.5434 C0.700000005,10.906 0.994000005,11.1999996 1.3566,11.1999996 L10.5434,11.1999996 C10.906,11.1999996 11.2,10.906 11.2,10.5434 L11.2,1.3566 C11.200186,1.1824019 11.1310684,1.01528502 11.0078917,0.892108295 C10.884715,0.768931565 10.7175981,0.699813998 10.5434,0.69999963 L1.3566,0.69999963 Z M5.60000001,5.60000001 L5.60000001,3.15 C5.60000001,2.95670034 5.75670034,2.8 5.95,2.8 C6.14329966,2.8 6.3,2.95670034 6.3,3.15 L6.3,5.60000001 L8.75,5.60000001 C8.94329966,5.60000001 9.1,5.75670034 9.1,5.95 C9.1,6.14329966 8.94329966,6.3 8.75,6.3 L6.3,6.3 L6.3,8.75 C6.3,8.94329966 6.14329966,9.1 5.95,9.1 C5.75670034,9.1 5.60000001,8.94329966 5.60000001,8.75 L5.60000001,6.3 L3.15,6.3 C2.95670034,6.3 2.8,6.14329966 2.8,5.95 C2.8,5.75670034 2.95670034,5.60000001 3.15,5.60000001 L5.60000001,5.60000001 Z" id="形状"></path>
            </g>
        </g>
    </g>
</svg>