<?xml version="1.0" encoding="UTF-8"?>
<svg width="11px" height="12px" viewBox="0 0 11 12" version="1.1" xmlns="http://www.w3.org/2000/svg" xmlns:xlink="http://www.w3.org/1999/xlink">
    <title>copy</title>
    <g id="页面-1" stroke="none" stroke-width="1" fill="none" fill-rule="evenodd">
        <g id="页面呈现-点击" transform="translate(-311.000000, -151.000000)" fill="#FFFFFF" fill-rule="nonzero">
            <path d="M318.294243,153.249252 C318.528785,153.249252 318.737918,153.301097 318.921642,153.404786 C319.105366,153.508475 319.263682,153.636092 319.396588,153.787637 C319.529495,153.939182 319.63113,154.102692 319.701493,154.278165 C319.771855,154.453639 319.807036,154.609172 319.807036,154.744766 L319.807036,161.504487 C319.807036,161.735793 319.762082,161.94317 319.672175,162.12662 C319.582267,162.31007 319.464996,162.465603 319.320362,162.59322 C319.175728,162.720837 319.013504,162.820538 318.833689,162.892323 C318.653873,162.964108 318.474058,163 318.294243,163 L312.512793,163 C312.36425,163 312.202026,162.956132 312.026119,162.868395 C311.850213,162.780658 311.686034,162.665005 311.533582,162.521436 C311.38113,162.377866 311.254087,162.212363 311.152452,162.024925 C311.050817,161.837488 311,161.648056 311,161.45663 L311,154.792622 C311,154.625125 311.03909,154.451645 311.117271,154.272183 C311.195451,154.092722 311.297086,153.927218 311.422175,153.775673 C311.547264,153.624128 311.691898,153.498504 311.856077,153.398804 C312.020256,153.299103 312.192253,153.249252 312.372068,153.249252 L318.294243,153.249252 L318.294243,153.249252 Z M317.602345,160.72682 C317.805615,160.72682 317.979566,160.655035 318.1242,160.511466 C318.268834,160.367896 318.341151,160.192423 318.341151,159.985045 C318.341151,159.777667 318.268834,159.600199 318.1242,159.452642 C317.979566,159.305085 317.805615,159.231306 317.602345,159.231306 L313.204691,159.231306 C313.001421,159.231306 312.82747,159.305085 312.682836,159.452642 C312.538202,159.600199 312.465885,159.777667 312.465885,159.985045 C312.465885,160.192423 312.538202,160.367896 312.682836,160.511466 C312.82747,160.655035 313.001421,160.72682 313.204691,160.72682 L317.602345,160.72682 L317.602345,160.72682 Z M317.602345,157.735793 C317.805615,157.735793 317.979566,157.664008 318.1242,157.520439 C318.268834,157.376869 318.341151,157.201396 318.341151,156.994018 C318.341151,156.78664 318.268834,156.609172 318.1242,156.461615 C317.979566,156.314058 317.805615,156.240279 317.602345,156.240279 L313.204691,156.240279 C313.001421,156.240279 312.82747,156.314058 312.682836,156.461615 C312.538202,156.609172 312.465885,156.78664 312.465885,156.994018 C312.465885,157.201396 312.538202,157.376869 312.682836,157.520439 C312.82747,157.664008 313.001421,157.735793 313.204691,157.735793 L317.602345,157.735793 L317.602345,157.735793 Z M319.678038,151 C320.014215,151 320.323028,151.101695 320.604478,151.305085 C320.885928,151.508475 321.130242,151.759721 321.33742,152.058824 C321.544598,152.357926 321.706823,152.680957 321.824094,153.027916 C321.941365,153.374875 322,153.691924 322,153.979063 L322,160.332004 C322,160.499501 321.951137,160.653041 321.853412,160.792622 C321.755686,160.932203 321.636461,161.051844 321.495736,161.151545 C321.355011,161.251246 321.202559,161.331007 321.03838,161.390828 C320.8742,161.450648 320.721748,161.480558 320.581023,161.480558 L320.534115,161.480558 L320.534115,154.337986 C320.471571,153.787637 320.303483,153.364905 320.029851,153.069791 C319.756219,152.774676 319.392679,152.58325 318.939232,152.495513 L313.216418,152.495513 C313.224236,152.479561 313.228145,152.451645 313.228145,152.411765 C313.228145,152.252243 313.275053,152.088734 313.36887,151.921236 C313.462687,151.753739 313.585821,151.602193 313.738273,151.4666 C313.890725,151.331007 314.060768,151.219342 314.248401,151.131605 C314.436034,151.043868 314.623667,151 314.811301,151 L319.678038,151 L319.678038,151 Z" id="copy"></path>
        </g>
    </g>
</svg>