<?xml version="1.0" encoding="UTF-8"?>
<svg width="20px" height="20px" viewBox="0 0 20 20" version="1.1" xmlns="http://www.w3.org/2000/svg" xmlns:xlink="http://www.w3.org/1999/xlink">
    <title>counter</title>
    <g id="页面-1" stroke="none" stroke-width="1" fill="none" fill-rule="evenodd">
        <g id="页面组件" transform="translate(-350.000000, -586.000000)" fill="#ABABAB" fill-rule="nonzero">
            <g id="counter" transform="translate(350.000000, 586.000000)">
                <path d="M18.0211082,0 L1.97889182,0 C0.885980047,0 0,0.884521403 0,1.97563385 L0,18.0243662 C0,19.1154786 0.885980047,20 1.97889182,20 L18.0211082,20 C19.11402,20 20,19.1154786 20,18.0243662 L20,1.97563385 C20,0.884521403 19.11402,0 18.0211082,0 L18.0211082,0 Z M18.6807388,18.0243662 C18.6807388,18.199023 18.6112422,18.3665264 18.4875375,18.4900275 C18.3638327,18.6135286 18.1960531,18.6829108 18.0211082,18.6829108 L1.97889182,18.6829108 C1.6145879,18.6829108 1.31926121,18.3880703 1.31926121,18.0243662 L1.31926121,1.97563385 C1.31926121,1.6119297 1.6145879,1.31708923 1.97889182,1.31708923 L18.0211082,1.31708923 C18.1960531,1.31708923 18.3638327,1.38647141 18.4875375,1.50997249 C18.6112422,1.63347356 18.6807388,1.80097696 18.6807388,1.97563385 L18.6807388,18.0243662 Z" id="形状"></path>
                <path d="M6.128,3 L6.128,5.616 L3.5,5.616 L3.5,6.432 L6.128,6.432 L6.128,9.06 L6.944,9.06 L6.944,6.432 L9.56,6.432 L9.56,5.616 L6.944,5.616 L6.944,3 L6.128,3 Z M10.76,5.616 L10.76,6.432 L16.82,6.432 L16.82,5.616 L10.76,5.616 Z M10.5,13 L10.5,13.804 L16.56,13.804 L16.56,13 L10.5,13 Z M10.5,15.46 L10.5,16.276 L16.56,16.276 L16.56,15.46 L10.5,15.46 Z M3.68181818,12 L6.01674641,14.4019608 L3.5,17 L4.46650718,17 L6.49521531,14.8571429 L8.53349282,17 L9.5,17 L6.96411483,14.4019608 L9.31818182,12 L8.35167464,12 L6.49521531,13.9467787 L4.64832536,12 L3.68181818,12 Z" id="形状结合" stroke="#ABABAB" stroke-width="0.3"></path>
            </g>
        </g>
    </g>
</svg>