<?xml version="1.0" encoding="UTF-8"?>
<svg width="16px" height="16px" viewBox="0 0 16 16" version="1.1" xmlns="http://www.w3.org/2000/svg" xmlns:xlink="http://www.w3.org/1999/xlink">
    <title>daily</title>
    <g id="页面-1" stroke="none" stroke-width="1" fill="none" fill-rule="evenodd">
        <g id="daily">
            <rect id="矩形" fill="#FFE4E4" opacity="0" x="0" y="0" width="16" height="16"></rect>
            <g id="cb18-成长日记2备份-2" transform="translate(2.000000, 0.000000)" fill="#7F7F7F" fill-rule="nonzero">
                <path d="M10.7591329,16 L1.23866798,16 C0.909962375,16 0.594735751,15.8657694 0.36240898,15.6268687 C0.130082209,15.387968 -0.000290947947,15.0639904 4.87555099e-07,14.7262838 L4.87555099e-07,2.22702549 C4.87555099e-07,1.52419565 0.554571089,0.9544395 1.23866798,0.9544395 L1.97295769,0.9544395 C1.97295769,0.427317119 2.38888527,0 2.90195794,0 C3.4150306,0 3.83095818,0.427317119 3.83095818,0.9544395 L8.16684268,0.9544395 C8.16684268,0.427317119 8.58277026,0 9.09584293,0 C9.60891559,0 10.0248432,0.427317119 10.0248432,0.9544395 L10.7585829,0.9544395 C11.087574,0.953689057 11.4033408,1.08743333 11.636231,1.32617088 C11.8691213,1.56490844 12.0000005,1.88902459 12.0000005,2.22702549 L12.0000005,14.7262838 C12.0000005,15.4291136 11.4454299,15.9988698 10.761333,15.9988698 L10.7591329,16 Z M3.21162468,0.9544395 C3.21164992,0.840759418 3.15263329,0.735703594 3.0568117,0.678856066 C2.96099011,0.622008538 2.84292575,0.622008538 2.74710416,0.678856066 C2.65128257,0.735703594 2.59226594,0.840759418 2.59229117,0.9544395 L2.59229117,1.59073249 C2.59226594,1.70441258 2.65128257,1.8094684 2.74710416,1.86631593 C2.84292575,1.92316346 2.96099011,1.92316346 3.0568117,1.86631593 C3.15263329,1.8094684 3.21164992,1.70441258 3.21162468,1.59073249 L3.21162468,0.9544395 Z M9.40550968,0.9544395 C9.40547067,0.778760383 9.26683957,0.636365569 9.09584293,0.636365569 C8.92484629,0.636365569 8.7862152,0.778760383 8.78617619,0.9544395 L8.78617619,1.59073249 C8.7862152,1.76641161 8.92484629,1.90880643 9.09584293,1.90880643 C9.26683957,1.90880643 9.40547067,1.76641161 9.40550968,1.59073249 L9.40550968,0.9544395 Z M11.3784664,2.22702549 C11.3784664,2.05827009 11.3132154,1.89642648 11.1970678,1.77709839 C11.0809202,1.65777031 10.9233903,1.59073249 10.7591329,1.59073249 L10.0248432,1.59073249 C10.0248432,2.11785487 9.60891559,2.54517199 9.09584293,2.54517199 C8.58277026,2.54517199 8.16684268,2.11785487 8.16684268,1.59073249 L3.83095818,1.59073249 C3.83095818,2.11785487 3.4150306,2.54517199 2.90195794,2.54517199 C2.38888527,2.54517199 1.97295769,2.11785487 1.97295769,1.59073249 L1.23866798,1.59073249 C1.07441052,1.59073249 0.916880618,1.65777031 0.800733054,1.77709839 C0.684585491,1.89642648 0.619334468,2.05827009 0.619334468,2.22702549 L0.619334468,3.82001836 L11.3784664,3.82001836 L11.3784664,2.22702549 Z M11.3784664,4.45405099 L0.619334468,4.45405099 L0.619334468,14.7262838 C0.619334468,14.8950392 0.684585484,15.0568828 0.800733048,15.1762109 C0.916880612,15.295539 1.07441052,15.3625768 1.23866798,15.3625768 L10.7591329,15.3625768 C10.9233903,15.3625768 11.0809203,15.295539 11.1970678,15.1762109 C11.3132154,15.0568828 11.3784664,14.8950392 11.3784664,14.7262838 L11.3784664,4.45405099 Z M2,8 L8,8 L8,8.6 L2,8.6 L2,8 Z M2,12 L10,12 L10,12.6 L2,12.6 L2,12 Z" id="形状"></path>
            </g>
        </g>
    </g>
</svg>