<?xml version="1.0" encoding="UTF-8"?>
<svg width="18px" height="18px" viewBox="0 0 18 18" version="1.1" xmlns="http://www.w3.org/2000/svg" xmlns:xlink="http://www.w3.org/1999/xlink">
    <title>date</title>
    <g id="页面-1" stroke="none" stroke-width="1" fill="none" fill-rule="evenodd">
        <g id="页面组件" transform="translate(-236.000000, -376.000000)" fill="#ABABAB" fill-rule="nonzero">
            <g id="date" transform="translate(236.000000, 376.000000)">
                <path d="M16.7431504,1.125 L14.2543037,1.125 L14.2543037,0.675 C14.2543037,0.3375 13.9149155,0 13.5755273,0 C13.2361392,0 12.896751,0.3375 12.896751,0.675 L12.896751,1.125 L5.31708154,1.125 L5.31708154,0.675 C5.31708154,0.3375 4.97769336,0 4.63830518,0 C4.29891699,0 3.95952881,0.3375 3.95952881,0.675 L3.95952881,1.125 L1.35755273,1.125 C0.678776367,1.125 0,1.6875 0,2.475 L0,16.5375 C0,17.325 0.678776367,18 1.35755273,18 L16.630021,18 C17.4219268,18 17.9875737,17.325 17.9875737,16.65 L17.9875737,2.475 C18.1007031,1.6875 17.4219268,1.125 16.7431504,1.125 Z M16.7431504,16.65 L1.35755273,16.65 L1.35755273,5.4 L16.630021,5.4 L16.630021,16.65 L16.7431504,16.65 Z M16.7431504,3.9375 L1.35755273,3.9375 L1.35755273,2.475 L3.84639941,2.475 L3.84639941,2.5875 C3.84639941,2.925 4.1857876,3.2625 4.52517578,3.2625 C4.86456397,3.2625 5.20395215,2.925 5.20395215,2.5875 L5.20395215,2.475 L12.6704922,2.475 L12.6704922,2.5875 C12.6704922,2.925 13.0098804,3.2625 13.3492686,3.2625 C13.6886567,3.2625 14.0280449,2.925 14.0280449,2.5875 L14.0280449,2.475 L16.5168916,2.475 L16.5168916,3.9375 L16.7431504,3.9375 Z" id="形状"></path>
                <path d="M4.63830518,10.125 L5.99585791,10.125 C6.44837549,10.125 6.78776367,9.7875 6.78776367,9.45 C6.78776367,9.1125 6.44837549,8.6625 6.10898731,8.6625 L4.63830518,8.6625 C4.29891699,8.6625 3.95952881,9 3.95952881,9.45 C3.95952881,9.9 4.29891699,10.125 4.63830518,10.125 Z M8.3715752,10.125 L9.72912793,10.125 C10.1816455,10.125 10.4079043,9.7875 10.4079043,9.45 C10.4079043,9.1125 10.1816455,8.6625 9.72912793,8.6625 L8.3715752,8.6625 C7.91905762,8.6625 7.69279883,9 7.69279883,9.45 C7.69279883,9.9 7.91905762,10.125 8.3715752,10.125 Z M11.9917158,10.125 L13.3492686,10.125 C13.6886567,10.125 14.0280449,9.7875 14.0280449,9.45 C14.0280449,9.1125 13.6886567,8.775 13.3492686,8.775 L11.9917158,8.775 C11.6523276,8.6625 11.3129395,9 11.3129395,9.45 C11.3129395,9.9 11.6523276,10.125 11.9917158,10.125 Z M4.63830518,13.8375 L5.99585791,13.8375 C6.44837549,13.8375 6.78776367,13.5 6.78776367,13.05 C6.78776367,12.6 6.44837549,12.375 6.10898731,12.375 L4.63830518,12.375 C4.29891699,12.375 3.95952881,12.7125 3.95952881,13.05 C3.95952881,13.3875 4.29891699,13.8375 4.63830518,13.8375 Z M8.3715752,13.8375 L9.72912793,13.8375 C10.0685161,13.8375 10.4079043,13.5 10.4079043,13.1625 C10.4079043,12.825 10.1816455,12.375 9.72912793,12.375 L8.3715752,12.375 C8.03218701,12.375 7.69279883,12.7125 7.69279883,13.05 C7.69279883,13.3875 7.91905762,13.8375 8.3715752,13.8375 Z" id="形状"></path>
            </g>
        </g>
    </g>
</svg>