<?xml version="1.0" encoding="UTF-8"?>
<svg width="13px" height="16px" viewBox="0 0 13 16" version="1.1" xmlns="http://www.w3.org/2000/svg" xmlns:xlink="http://www.w3.org/1999/xlink">
    <title>deactivate</title>
    <g id="页面-1" stroke="none" stroke-width="1" fill="none" fill-rule="evenodd" stroke-linecap="round" stroke-linejoin="round">
        <g id="门户列表" transform="translate(-1177.000000, -580.000000)" stroke="#FFFFFF" stroke-width="0.7">
            <g id="deactivate" transform="translate(1178.000000, 581.000000)">
                <polygon id="路径" points="0 14 0 0 7.90625 0 11 3.675 11 14"></polygon>
                <path d="M8.9375,7.35 C8.9375,9.28298 7.3984625,10.85 5.5,10.85 C3.6015375,10.85 2.0625,9.28298 2.0625,7.35 C2.0625,5.41702 3.6015375,3.85 5.5,3.85 C6.41375625,3.85 7.24425625,4.21302 7.85994688,4.80515 C8.52345312,5.443235 8.9375,6.34739 8.9375,7.35 Z" id="路径"></path>
                <line x1="3.09375" y1="4.9" x2="7.90625" y2="9.8" id="路径"></line>
                <path d="M8.9375,7.35 C8.9375,9.28298 7.3984625,10.85 5.5,10.85" id="路径"></path>
                <path d="M2.0625,7.35 C2.0625,5.41702 3.6015375,3.85 5.5,3.85" id="路径"></path>
            </g>
        </g>
    </g>
</svg>