<?xml version="1.0" encoding="UTF-8"?>
<svg width="14px" height="14px" viewBox="0 0 18 18" version="1.1" xmlns="http://www.w3.org/2000/svg" xmlns:xlink="http://www.w3.org/1999/xlink">
    <title>delete</title>
    <g id="页面-1" stroke="none" stroke-width="1" fill="none" fill-rule="evenodd">
        <g id="页面逻辑-设置查询逻辑-逻辑条件" transform="translate(-1252.000000, -238.000000)" fill="#ffffff" fill-rule="nonzero">
            <g id="delete" transform="translate(1252.000000, 238.000000)">
                <path d="M15.0001667,16 C15.0001667,16.623 14.6231876,17 14.0002222,17 L4.00077774,17 C3.3788123,17 3.00083329,16.623 3.00083329,16 L3.00083329,4.00000001 L1.99888895,4.00000001 L2.00088885,16 C2.00088885,17.243 3.25481919,18 4.49775012,18 L13.4972501,18 C14.7401811,18 16.0001111,17.243 16.0001111,16 L15.9961113,4.00000001 L15.0001667,4.00000001 L15.0001667,16 Z M6.00066663,5.99999999 L6.00066663,14 L7.00061107,14 L7.00061107,5.99999999 L6.00066663,5.99999999 Z M11.0003889,5.99999999 L11.0003889,14 L12.0003333,14 L12.0003333,5.99999999 L11.0003889,5.99999999 Z M0,2 L0,3.00100001 L18,3.00100001 L18,2 L0,2 Z M13.0002778,0 L5.00072218,0 L5.00072218,1 L13.0002778,1 L13.0002778,0 Z" id="形状"></path>
            </g>
        </g>
    </g>
</svg>