<?xml version="1.0" encoding="UTF-8"?>
<svg width="11px" height="12px" viewBox="0 0 11 12" version="1.1" xmlns="http://www.w3.org/2000/svg" xmlns:xlink="http://www.w3.org/1999/xlink">
    <title>delete2</title>
    <g id="页面-1" stroke="none" stroke-width="1" fill="none" fill-rule="evenodd">
        <g id="页面呈现-点击" transform="translate(-311.000000, -186.000000)" fill="#FFFFFF" fill-rule="nonzero">
            <path d="M320.641828,187.724043 C320.91076,187.724043 321.13263,187.769658 321.307486,187.860873 C321.482277,187.952088 321.621232,188.066135 321.724337,188.202949 C321.827458,188.339779 321.899144,188.488018 321.939477,188.647664 C321.979809,188.807328 322,188.955499 322,189.09238 C322,189.156202 321.997767,189.20636 321.99327,189.242906 C321.988788,189.279386 321.986539,189.311288 321.986539,189.338681 L321.986539,189.420759 L321.099028,189.420759 L321.099028,196.60432 C321.099028,196.78675 321.063177,196.962398 320.991425,197.13113 C320.919739,197.299914 320.816635,197.448152 320.68216,197.575846 C320.547702,197.703523 320.384058,197.806163 320.191309,197.883731 C319.99856,197.961249 319.77669,198 319.52565,198 L313.528093,198 C313.295012,198 313.075391,197.963521 312.869165,197.890579 C312.663021,197.817571 312.485966,197.714948 312.338047,197.582694 C312.190112,197.45044 312.07353,197.290777 311.988384,197.103788 C311.903221,196.916799 311.860656,196.704671 311.860656,196.467507 L311.860656,189.420759 L311.026872,189.420759 C311.017958,189.411623 311.013461,189.38879 311.013461,189.352327 C311.004481,189.306712 311,189.165321 311,188.928157 C311,188.809616 311.026872,188.677295 311.080665,188.531328 C311.134458,188.385378 311.215123,188.250836 311.322726,188.127719 C311.430328,188.004535 311.569284,187.901912 311.739593,187.819834 C311.909968,187.737756 312.11163,187.696717 312.344777,187.696717 L313.541554,187.696717 L313.541554,186.862021 C313.541554,186.624856 313.622219,186.421866 313.783615,186.25315 C313.94501,186.08435 314.142191,186 314.375338,186 L318.584329,186 C318.898158,186 319.11553,186.08435 319.236593,186.25315 C319.35759,186.421866 319.418114,186.624856 319.418114,186.862021 L319.418114,187.710346 C319.606381,187.719483 319.808044,187.724043 320.023249,187.724043 L320.641828,187.724043 L320.641828,187.724043 Z M314.375338,187.724043 L318.584329,187.724043 L318.584329,186.862021 L314.375338,186.862021 L314.375338,187.724043 Z M313.958421,196.385428 C314.245296,196.385428 314.38875,196.198439 314.38875,195.824444 L314.38875,189.475511 L313.555015,189.475511 L313.555015,195.824444 C313.555015,196.01601 313.584135,196.1574 313.642426,196.248615 C313.700701,196.339829 313.806054,196.385428 313.958421,196.385428 L313.958421,196.385428 Z M316.500041,196.371732 C316.652392,196.371732 316.755497,196.328405 316.809306,196.24175 C316.863099,196.155112 316.889971,196.01601 316.889971,195.824444 L316.889971,189.475511 L316.056252,189.475511 L316.056252,195.824444 C316.056252,196.189303 316.204171,196.371732 316.500041,196.371732 L316.500041,196.371732 Z M319.028118,196.344389 C319.18953,196.344389 319.29705,196.301062 319.35086,196.214357 C319.404653,196.127702 319.431525,195.9886 319.431525,195.797034 L319.431525,189.475511 L318.584329,189.475511 L318.584329,195.797034 C318.584329,196.161893 318.732264,196.344389 319.028118,196.344389 L319.028118,196.344389 Z" id="delete2"></path>
        </g>
    </g>
</svg>