<?xml version="1.0" encoding="UTF-8"?>
<svg width="13px" height="13px" viewBox="0 0 13 13" version="1.1" xmlns="http://www.w3.org/2000/svg" xmlns:xlink="http://www.w3.org/1999/xlink">
    <title>empty</title>
    <g id="页面-1" stroke="none" stroke-width="1" fill="none" fill-rule="evenodd">
        <g id="页面逻辑-设置查询逻辑-接口设置" transform="translate(-1393.000000, -352.000000)" fill="#FFFFFF" fill-rule="nonzero">
            <g id="empty" transform="translate(1393.000000, 352.000000)">
                <path d="M12.4999614,2.85071309 L0.499963506,2.85071309 C0.321353238,2.85071309 0.156298366,2.75547103 0.0669850138,2.6007957 C-0.0223283379,2.44612037 -0.0223283379,2.25554429 0.0669850138,2.10086897 C0.156298366,1.94619364 0.321353238,1.85092313 0.499963506,1.8509516 L3.74998228,1.8509516 L3.74998228,0.999761473 C3.75134409,0.448052756 4.19834694,0.00119102506 4.75005948,0 L8.25017493,0 C8.80188747,0.00119102506 9.24889032,0.448052756 9.25025213,0.999761473 L9.25025213,1.8509516 L12.5002709,1.8509516 C12.7763491,1.85103707 13,2.07491059 13,2.3509871 C13,2.6270636 12.7760396,2.85079854 12.4999614,2.85071309 Z M8.24986541,0.999761473 L4.74974995,0.999761473 L4.74974995,1.74880878 L8.24986541,1.74880878 L8.24986541,0.999761473 L8.24986541,0.999761473 Z M8.69867753,10.5609479 C8.60803048,10.6577193 8.48135485,10.7126306 8.34875883,10.7126306 C8.21616282,10.7126306 8.08948719,10.6577193 7.99884014,10.5609479 L6.49980768,9.05975804 L5.00077521,10.5609479 C4.91012817,10.6577193 4.78345254,10.7126306 4.65085653,10.7126306 C4.51826051,10.7126306 4.39158489,10.6577193 4.30093784,10.5609479 C4.20533991,10.469716 4.1512509,10.3433304 4.1512509,10.2111861 C4.1512509,10.0790418 4.20533991,9.95265628 4.30093784,9.86142437 L5.80027983,8.3571393 L4.35108098,6.90547324 C4.2156523,6.78276446 4.15880939,6.59544503 4.20320609,6.41816811 C4.24760279,6.24089119 4.38602266,6.10247218 4.56330067,6.05807576 C4.74057869,6.01367933 4.92789928,6.07052189 5.05060883,6.20594974 L6.49980768,7.65761578 L7.94900653,6.20594974 C8.07171607,6.07052189 8.25903666,6.01367933 8.43631468,6.05807576 C8.6135927,6.10247218 8.75201257,6.24089119 8.79640927,6.41816811 C8.84080597,6.59544503 8.78396306,6.78276446 8.64853437,6.90547324 L7.19933552,8.3571393 L8.69867753,9.86142437 C8.79411419,9.95282537 8.84797964,10.0793067 8.84774651,10.2114511 C8.84751187,10.3435954 8.79319903,10.4698853 8.69743942,10.5609479 L8.69867753,10.5609479 Z M1.39975441,3.69880795 C1.53488844,3.69095137 1.66692538,3.74129637 1.76252255,3.83712957 C1.85811971,3.93296276 1.90813846,4.06512295 1.89994778,4.2002363 L1.89994778,11.6009474 C1.89868652,11.7073339 1.94043458,11.8097228 2.01572517,11.8848963 C2.09101577,11.9600699 2.19346981,12.001659 2.29985485,12.000233 L10.6499269,12.000233 C10.7562609,12.0014877 10.858615,11.9598434 10.9338679,11.8847074 C11.0091209,11.8095714 11.0509239,11.7072826 11.049834,11.6009474 L11.049834,4.2002363 C11.0415504,4.06515296 11.0914955,3.93298627 11.1870458,3.8371407 C11.2825962,3.74129513 11.4146086,3.69094206 11.5497178,3.69880795 C11.6825415,3.68418096 11.8142694,3.73449149 11.9035252,3.8339368 C11.9927809,3.9333821 12.0286136,4.069761 11.999768,4.2002363 L11.999768,11.6009474 C12.0002624,11.9723101 11.8528935,12.3285913 11.5902115,12.5910975 C11.3275294,12.8536037 10.9711483,13.0007352 10.5997837,12.9999972 L2.29985485,12.9999972 C1.9285155,13.0006526 1.57218232,12.8534946 1.30951824,12.5910063 C1.04685416,12.3285181 0.899458768,11.9722848 0.899870578,11.6009474 L0.899870578,4.2002363 C0.891587023,4.06515296 0.941532097,3.93298627 1.03708244,3.8371407 C1.13263278,3.74129513 1.26464526,3.69094206 1.39975441,3.69880795 Z" id="形状"></path>
            </g>
        </g>
    </g>
</svg>