<?xml version="1.0" encoding="UTF-8"?>
<svg width="16px" height="16px" viewBox="0 0 16 16" version="1.1" xmlns="http://www.w3.org/2000/svg" xmlns:xlink="http://www.w3.org/1999/xlink">
    <title>delete</title>
    <g id="页面-1" stroke="none" stroke-width="1" fill="none" fill-rule="evenodd">
        <g id="delete">
            <rect id="矩形" fill="#FFE4E4" opacity="0" x="0" y="0" width="16" height="16"></rect>
            <g id="删除-(1)备份-2" fill="#FFFFFF" fill-rule="nonzero">
                <path d="M13.3334815,14.2222222 C13.3334815,14.776 12.998389,15.1111111 12.444642,15.1111111 L3.55624688,15.1111111 C3.00338871,15.1111111 2.66740737,14.776 2.66740737,14.2222222 L2.66740737,3.55555556 L1.77679018,3.55555556 L1.77856786,14.2222222 C1.77856786,15.3271111 2.89317261,16 3.99800011,16 L11.9975557,16 C13.1023832,16 14.222321,15.3271111 14.222321,14.2222222 L14.2187656,3.55555556 L13.3334815,3.55555556 L13.3334815,14.2222222 Z M5.33392589,5.33333333 L5.33392589,12.4444444 L6.2227654,12.4444444 L6.2227654,5.33333333 L5.33392589,5.33333333 Z M9.77812344,5.33333333 L9.77812344,12.4444444 L10.666963,12.4444444 L10.666963,5.33333333 L9.77812344,5.33333333 Z M0,1.77777778 L0,2.66755556 L16,2.66755556 L16,1.77777778 L0,1.77777778 Z M11.5558025,0 L4.44508638,0 L4.44508638,0.888888891 L11.5558025,0.888888891 L11.5558025,0 Z" id="形状"></path>
            </g>
        </g>
    </g>
</svg>