<?xml version="1.0" encoding="UTF-8"?>
<svg width="20px" height="18px" viewBox="0 0 20 18" version="1.1" xmlns="http://www.w3.org/2000/svg" xmlns:xlink="http://www.w3.org/1999/xlink">
    <title>description-text</title>
    <g id="页面-1" stroke="none" stroke-width="1" fill="none" fill-rule="evenodd">
        <g id="页面组件" transform="translate(-79.000000, -296.000000)" fill="#ABABAB" fill-rule="nonzero">
            <g id="description-text" transform="translate(79.000000, 296.000000)">
                <path d="M2.90005476,8.10004526 L7.70001041,8.10004526 L8.80002806,11.0000453 L10.5999973,11.0000453 L6.29997149,0 L4.3000258,0 L0,11.1 L1.79996922,11.1 L2.89998687,8.10002263 L2.90005476,8.10004526 Z M4.90002308,2.49990948 C5.00006789,2.19995474 5.10004481,1.89997737 5.20006698,1.49997737 L5.30011179,1.49997737 C5.30011179,1.59993211 5.40006608,1.79997737 5.60006517,2.29990948 C5.60006517,2.39995474 5.70010998,2.49988685 5.70010998,2.49988685 C5.70010998,2.59993211 6.30003938,3.99993211 7.30010274,6.79993211 L3.30007558,6.79993211 C4.40004797,3.99993211 4.90006834,2.59993211 4.90006834,2.49988685 L4.90006834,2.49988685 L4.90002308,2.49990948 Z" id="形状"></path>
                <polygon id="路径" points="10.800019 4.19997737 20 4.19997737 20 5.59997737 10.800019 5.59997737"></polygon>
                <polygon id="路径" points="4.52589036e-05 12.5000226 20 12.5000226 20 13.9000226 4.52589036e-05 13.9000226"></polygon>
                <polygon id="路径" points="10.800019 8.39990948 20 8.39990948 20 9.79990948 10.800019 9.79990948"></polygon>
                <polygon id="路径" points="4.52589036e-05 16.6 20 16.6 20 18 4.52589036e-05 18"></polygon>
                <polygon id="路径" points="10.800019 0.100045259 20 0.100045259 20 1.50002263 10.800019 1.50002263"></polygon>
            </g>
        </g>
    </g>
</svg>