<?xml version="1.0" encoding="UTF-8"?>
<svg width="20px" height="15px" viewBox="0 0 20 15" version="1.1" xmlns="http://www.w3.org/2000/svg" xmlns:xlink="http://www.w3.org/1999/xlink">
    <title>email</title>
    <g id="页面-1" stroke="none" stroke-width="1" fill="none" fill-rule="evenodd">
        <g id="页面组件" transform="translate(-79.000000, -378.000000)" fill="#ABABAB" fill-rule="nonzero">
            <g id="email" transform="translate(79.000000, 378.000000)">
                <path d="M17.663,1.00000001 L2.00000001,1.00000001 C1.91500001,1.00000001 1.83200001,1.01050001 1.75250001,1.03099999 L9.33899999,8.617 C9.53424992,8.81219098 9.85075008,8.81219098 10.046,8.617 L17.663,1.00000001 Z M18.7445,1.33249999 L12.6345,7.4425 L18.797,13.6045 C18.9245,13.4365 19,13.227 19,13 L19,1.99999999 C19,1.74349999 18.9035,1.50999998 18.745,1.33249999 L18.7445,1.33249999 Z M17.778,14 L11.928,8.14949999 L10.753,9.32449998 C10.4716881,9.60585951 10.0901188,9.76392964 9.69225,9.76392964 C9.29438125,9.76392964 8.91281188,9.60585951 8.63150001,9.32449998 L7.45700001,8.14949999 L1.665,13.9425 C1.77,13.9795 1.8825,14 2.00050001,14 L17.7785,14 L17.778,14 Z M1.0155,13.177 L6.74999999,7.44199999 L1.03700001,1.72999999 C1.01241576,1.81789242 0.999999942,1.90873409 0.999999942,1.99999999 L0.999999942,13 C0.999999942,13.06 1.005,13.1195 1.0155,13.177 Z M2,0 L18,0 C18.530433,0 19.0391408,0.210713671 19.4142136,0.585786427 C19.7892863,0.960859182 20,1.46956701 20,2 L20,13 C20,13.530433 19.7892863,14.0391408 19.4142136,14.4142136 C19.0391408,14.7892863 18.530433,15 18,15 L2,15 C1.46956703,15 0.960859203,14.7892863 0.585786443,14.4142136 C0.210713683,14.0391408 0,13.530433 0,13 L0,2 C0,1.46956701 0.210713683,0.960859182 0.585786443,0.585786427 C0.960859203,0.210713671 1.46956703,0 2,0 Z" id="形状"></path>
            </g>
        </g>
    </g>
</svg>