<?xml version="1.0" encoding="UTF-8"?>
<svg width="16px" height="16px" viewBox="0 0 16 16" version="1.1" xmlns="http://www.w3.org/2000/svg" xmlns:xlink="http://www.w3.org/1999/xlink">
    <title>export</title>
    <g id="页面-1" stroke="none" stroke-width="1" fill="none" fill-rule="evenodd">
        <g id="export">
            <rect id="矩形" fill="#FFE4E4" opacity="0" x="0" y="0" width="16" height="16"></rect>
            <g id="导入备份-5" transform="translate(1.000000, 1.000000)" fill="#7F7F7F" fill-rule="nonzero">
                <path d="M13.0666667,13.0666667 L13.0666667,6.53333333 L14,6.53333333 L14,14 L0,14 L0,6.53333333 L0.933333336,6.53333333 L0.933333336,13.0666667 L13.0666667,13.0666667 Z M14,13.0666667 L13.0666667,14 L13.0666667,13.0666667 L14,13.0666667 Z M0.933333336,14 L0,13.0666667 L0.933333336,13.0666667 L0.933333336,14 Z M13.0666667,6.53333333 L14,6.53333333 L14,14 L0,14 L0,6.53333333 L0.933333336,6.53333333 L0.933333336,13.0666667 L13.0666667,13.0666667 L13.0666667,6.53333333 Z M0.933333336,14 L0,13.0666667 L0.933333336,13.0666667 L0.933333336,14 Z M14,13.0666667 L13.0666667,14 L13.0666667,13.0666667 L14,13.0666667 Z" id="形状"></path>
                <polygon id="路径" transform="translate(7.134400, 6.078800) rotate(-180.000000) translate(-7.134400, -6.078800) " points="6.66773333 0.94546666 7.60106667 0.94546666 7.60106667 11.2121333 6.66773333 11.2121333"></polygon>
                <polygon id="路径" transform="translate(5.341000, 2.375800) rotate(-180.000000) translate(-5.341000, -2.375800) " points="2.9652 4.09173334 7.05693334 0 7.7168 0.65986666 3.62506666 4.7516"></polygon>
                <polygon id="路径" transform="translate(8.793400, 2.415933) rotate(-180.000000) translate(-8.793400, -2.415933) " points="7.07746666 0.0401333297 11.1692 4.13186665 10.5093333 4.79173333 6.4176 0.699999989"></polygon>
            </g>
        </g>
    </g>
</svg>