<?xml version="1.0" encoding="UTF-8"?>
<svg width="13px" height="10px" viewBox="0 0 13 10" version="1.1" xmlns="http://www.w3.org/2000/svg" xmlns:xlink="http://www.w3.org/1999/xlink">
    <title>folder-close</title>
    <g id="页面-1" stroke="none" stroke-width="1" fill="none" fill-rule="evenodd">
        <g id="页面呈现" transform="translate(-84.000000, -339.000000)" fill="#7F7F7F" fill-rule="nonzero">
            <g id="folder-close" transform="translate(84.000000, 339.000000)">
                <path d="M12.2934783,1.57895151 L6.67557065,1.57895151 C6.63807385,1.57906306 6.60209462,1.56517017 6.57568614,1.54038246 L5.12837635,0.192685744 C4.99616078,0.0689069763 4.81626175,-0.000474831042 4.62877717,2.44618498e-06 L0.706521735,2.44618498e-06 C0.316502134,0.00041280274 0.000438025983,0.294723371 0,0.657899339 L0,9.34210559 C0.000438033282,9.70528155 0.316502139,9.99959211 0.706521735,10.0000024 L12.2934783,10.0000024 C12.6834979,9.99959211 12.999562,9.70528155 13,9.34210559 L13,2.23684593 C12.999562,1.87366996 12.6834979,1.57935939 12.2934783,1.57895151 Z M0.706521735,0.526319786 L4.62877717,0.526319786 C4.66627398,0.526208901 4.7022532,0.540101796 4.72866168,0.564889516 L6.17597146,1.91258622 C6.30818704,2.03636499 6.48808608,2.1057468 6.67557065,2.10526704 L12.2934783,2.10526704 C12.3715185,2.10526705 12.4347826,2.16417692 12.4347826,2.23684593 L12.4347826,3.17113823 C12.3882754,3.16233436 12.3409368,3.15789876 12.2934783,3.1578981 L0.706521735,3.1578981 C0.65906323,3.15789876 0.61172459,3.16233436 0.565217383,3.17113823 L0.565217383,0.657899339 C0.565217383,0.585230326 0.628481496,0.526319786 0.706521735,0.526319786 Z M12.4347826,9.34210559 C12.4347826,9.41477459 12.3715185,9.47368447 12.2934783,9.47368447 L0.706521735,9.47368447 C0.628481501,9.47368447 0.565217383,9.4147746 0.565217383,9.34210559 L0.565217383,3.81579252 C0.565217383,3.78089563 0.580104763,3.74742803 0.606604469,3.7227522 C0.633104176,3.69807637 0.669045491,3.68421363 0.706521735,3.68421363 L12.2934783,3.68421363 C12.3715185,3.68421363 12.4347826,3.74312351 12.4347826,3.81579252 L12.4347826,9.34210559 Z" id="形状"></path>
            </g>
        </g>
    </g>
</svg>