<?xml version="1.0" encoding="UTF-8"?>
<svg width="13px" height="10px" viewBox="0 0 13 10" version="1.1" xmlns="http://www.w3.org/2000/svg" xmlns:xlink="http://www.w3.org/1999/xlink">
    <title>folder-open</title>
    <g id="页面-1" stroke="none" stroke-width="1" fill="none" fill-rule="evenodd">
        <g id="页面呈现" transform="translate(-84.000000, -159.000000)" fill="#FFFFFF" fill-rule="nonzero">
            <g id="folder-open" transform="translate(84.000000, 159.000000)">
                <path d="M12.8592249,3.94276614 C12.7304183,3.77922231 12.5292102,3.68346191 12.315964,3.68421363 L11.4856474,3.68421363 L11.4856474,2.23684593 C11.4852236,1.87366996 11.1793825,1.57935939 10.8019779,1.57895151 L5.91271558,1.57895151 C5.8764316,1.57906306 5.84161611,1.56517017 5.81606181,1.54038246 L4.41556486,0.192685744 C4.28762576,0.0689069763 4.11354551,-0.000474831042 3.93212508,2.44618498e-06 L0.683669486,2.44618498e-06 C0.30626496,0.00041280274 0.000423858155,0.294723371 0,0.657899339 L0,9.34210559 C0.000423865217,9.70528155 0.306264965,9.99959211 0.683669486,10.0000024 L10.8988881,10.0000024 C11.2071267,9.9994375 11.4770357,9.80088539 11.5584582,9.51480287 L12.9755342,4.51480533 C13.0322242,4.31712793 12.9891557,4.10530621 12.8592249,3.94276614 Z M0.683669486,0.526319786 L3.93212508,0.526319786 C3.96840906,0.526208901 4.00322455,0.540101796 4.02877885,0.564889516 L5.4292758,1.91258622 C5.55721489,2.03636498 5.73129514,2.10574679 5.91271558,2.10526704 L10.8019779,2.10526704 C10.877494,2.10526705 10.9387118,2.16417692 10.9387118,2.23684593 L10.9387118,3.68421363 L2.22756611,3.68421363 C1.91932748,3.68477613 1.64941854,3.88332824 1.56799598,4.16941076 L0.546935596,7.77179386 L0.546935596,0.657899339 C0.546935596,0.585230331 0.608153442,0.526319786 0.683669486,0.526319786 Z M12.4478268,4.37672974 L11.0307508,9.37672728 C11.0145318,9.43395342 10.9605283,9.47368447 10.8988881,9.47368447 L0.810490185,9.47368447 C0.767883126,9.47368447 0.727718882,9.45454097 0.701863347,9.4219525 C0.676007812,9.38936404 0.667416444,9.34703983 0.678627428,9.30748389 L2.09570337,4.30748636 C2.11192246,4.25026021 2.16592586,4.21052917 2.22756611,4.21052917 L12.315964,4.21052917 C12.3585711,4.21052917 12.3987353,4.22967267 12.4245909,4.26226113 C12.4504464,4.29484959 12.4590378,4.33717381 12.4478268,4.37672974 L12.4478268,4.37672974 Z" id="形状"></path>
            </g>
        </g>
    </g>
</svg>