<?xml version="1.0" encoding="UTF-8"?>
<svg width="17px" height="15px" viewBox="0 0 17 15" version="1.1" xmlns="http://www.w3.org/2000/svg" xmlns:xlink="http://www.w3.org/1999/xlink">
    <title>箭头</title>
    <g id="页面-1" stroke="none" stroke-width="1" fill="none" fill-rule="evenodd">
        <g id="展示组件-表格组件-设置交互动作" transform="translate(-434.000000, -368.000000)">
            <g id="箭头" transform="translate(435.000000, 369.000000)">
                <rect id="矩形" fill="#232323" fill-rule="nonzero" opacity="0" x="2.52631579" y="0.424242424" width="13.4736842" height="13.5757576"></rect>
                <path d="M13.3412368,6.49815767 L9.96261842,3.09395691 C9.79819737,2.92827699 9.53159211,2.92827699 9.36717105,3.09395691 C9.20273684,3.25963684 9.20273684,3.52824858 9.36717105,3.6939285 L12.0421711,6.38919366 L3.77428947,6.38919366 C3.55013158,6.38919366 3.36842105,6.57229403 3.36842105,6.79813684 C3.36842105,7.0239929 3.55014474,7.20708002 3.77428947,7.20708002 L12.0421842,7.20708002 L9.36717105,9.90235843 C9.20273684,10.0680251 9.20273684,10.3366501 9.36717105,10.50233 C9.44938158,10.5851634 9.55714474,10.62658 9.66489474,10.62658 C9.77264474,10.62658 9.88040789,10.5851634 9.96261842,10.50233 L13.3412368,7.098116 C13.4201994,7.01855729 13.4645603,6.91065129 13.4645603,6.79813684 C13.4645603,6.68562238 13.4201994,6.57771638 13.3412368,6.49815767 L13.3412368,6.49815767 Z" id="路径" fill="#7F7F7F" fill-rule="nonzero"></path>
                <path d="M5.89473684,6.78787879 L3.36842105,6.78787879 C1.50809347,6.78787879 0,5.26836036 0,3.39393939 C0,1.51951842 1.50809347,0 3.36842105,0 L5.89473684,0 L12.2236455,0" id="路径" stroke="#7F7F7F" stroke-width="0.842105263" stroke-linecap="round"></path>
            </g>
        </g>
    </g>
</svg>