<?xml version="1.0" encoding="UTF-8"?>
<svg width="12px" height="12px" viewBox="0 0 12 12" version="1.1" xmlns="http://www.w3.org/2000/svg" xmlns:xlink="http://www.w3.org/1999/xlink">
    <title>homepage</title>
    <g id="页面-1" stroke="none" stroke-width="1" fill="none" fill-rule="evenodd">
        <g id="页面呈现-点击" transform="translate(-35.000000, -108.000000)" fill="#FFFFFF" fill-rule="nonzero">
            <g id="homepage" transform="translate(35.000000, 108.000000)">
                <path d="M6.64452631,0.206697169 L11.2758947,3.5198948 C11.7303848,3.84502156 12,4.36844082 12,4.92603269 L12,10.2688845 C12,11.2249324 11.2223684,12 10.2631579,12 L7.89473684,12 L7.89473684,9.48201387 C7.89473684,8.43909548 7.04636842,7.59352426 6,7.59352426 C4.95363158,7.59352426 4.10526316,8.43909548 4.10526316,9.48201387 L4.10526316,12 L1.7368421,12 C0.777631575,12 0,11.2249324 0,10.2688845 L0,4.92619006 C0,4.36854267 0.269569989,3.84505393 0.724105259,3.5198948 L5.35547369,0.206697169 C5.7406737,-0.0688990564 6.2593263,-0.0688990564 6.64452631,0.206697169 Z" id="路径"></path>
            </g>
        </g>
    </g>
</svg>