<?xml version="1.0" encoding="UTF-8"?>
<svg width="12px" height="12px" viewBox="0 0 12 12" version="1.1" xmlns="http://www.w3.org/2000/svg" xmlns:xlink="http://www.w3.org/1999/xlink">
    <title>icon_pic</title>
    <g id="页面-1" stroke="none" stroke-width="1" fill="none" fill-rule="evenodd">
        <g id="资源管理器" transform="translate(-548.000000, -609.000000)">
            <g id="icon_pic" transform="translate(548.000000, 609.000000)">
                <rect id="矩形" x="0" y="0" width="12" height="12"></rect>
                <g id="编组" transform="translate(1.250000, 2.000000)" stroke="#7F7F7F" stroke-linejoin="round" stroke-width="0.6">
                    <path d="M0.5,0 L9,0 C9.27614237,0 9.5,0.223857625 9.5,0.5 L9.5,7.5 C9.5,7.77614238 9.27614237,8 9,8 L0.5,8 C0.223857625,8 0,7.77614238 0,7.5 L0,0.5 C0,0.223857625 0.223857625,0 0.5,0 Z" id="路径" stroke-linecap="round"></path>
                    <circle id="椭圆形" stroke-linecap="round" cx="2.375" cy="2.125" r="1"></circle>
                    <path d="M2.5,4 L3.75,5 L5.25,3.25 L9.5,6.5 L9.5,7.5 C9.5,7.77614238 9.27614237,8 9,8 L0.5,8 C0.223857625,8 0,7.77614238 0,7.5 L0,6.5 L2.5,4 Z" id="路径"></path>
                </g>
            </g>
        </g>
    </g>
</svg>