<?xml version="1.0" encoding="UTF-8"?>
<svg width="12px" height="10px" viewBox="0 0 12 10" version="1.1" xmlns="http://www.w3.org/2000/svg" xmlns:xlink="http://www.w3.org/1999/xlink">
    <title>icon_compressed package</title>
    <g id="页面-1" stroke="none" stroke-width="1" fill="none" fill-rule="evenodd">
        <g id="资源管理器" transform="translate(-548.000000, -644.000000)" fill="#7F7F7F" fill-rule="nonzero">
            <g id="icon_compressed-package" transform="translate(548.000000, 644.000000)">
                <path d="M11.0121212,0 L0.987878788,0 C0.442424242,0 0,0.457107076 0,1.02066374 L0,8.97933626 C0,9.54289292 0.442424242,10 0.987878788,10 L11.0121212,10 C11.5575758,10 12,9.54289292 12,8.97933626 L12,1.02066374 C12,0.457107076 11.5575758,0 11.0121212,0 Z M11.2727273,8.97933626 C11.2727273,9.12961803 11.1575758,9.24859111 11.0121212,9.24859111 L0.987878788,9.24859111 C0.842424242,9.24859111 0.727272727,9.12961803 0.727272727,8.97933626 L0.727272727,1.02066374 C0.727272727,0.870381966 0.842424242,0.751408892 0.987878788,0.751408892 L3.84848485,0.751408892 L3.84848485,1.87226049 L4.99393939,1.87226049 L4.99393939,0.751408892 L11.0121212,0.751408892 C11.1575758,0.751408892 11.2727273,0.870381966 11.2727273,1.02066374 L11.2727273,8.97933626 Z" id="形状"></path>
                <path d="M4.99393939,1.89104571 L6.13333333,1.89104571 L6.13333333,3.06825297 L4.99393939,3.06825297 L4.99393939,1.89104571 Z M3.85454545,3.06825297 L4.99393939,3.06825297 L4.99393939,4.24546024 L3.85454545,4.24546024 L3.85454545,3.06825297 Z M5.01212121,4.26424546 L6.15151515,4.26424546 L6.15151515,5.44145272 L5.01212121,5.44145272 L5.01212121,4.26424546 Z M3.86060606,5.45397621 L5,5.45397621 L5,6.63118347 L3.86060606,6.63118347 L3.86060606,5.45397621 Z" id="形状"></path>
            </g>
        </g>
    </g>
</svg>