<?xml version="1.0" encoding="UTF-8"?>
<svg width="16px" height="16px" viewBox="0 0 16 16" version="1.1" xmlns="http://www.w3.org/2000/svg" xmlns:xlink="http://www.w3.org/1999/xlink">
    <title>new-build</title>
    <g id="页面-1" stroke="none" stroke-width="1" fill="none" fill-rule="evenodd">
        <g id="资源管理器" transform="translate(-860.000000, -64.000000)" fill-rule="nonzero">
            <g id="new-build" transform="translate(860.000000, 64.000000)">
                <rect id="矩形" fill="#000000" opacity="0" x="0" y="0" width="16" height="16"></rect>
                <path d="M14.37,14.53 L1.63,14.53 C1.22603367,14.53 0.838896948,14.3682041 0.555135015,14.0806837 C0.271373082,13.7931634 0.114649451,13.4039309 0.119867364,13 L0.119867364,2.32 C0.125453818,1.48831955 0.798319548,0.815453818 1.63,0.81 L6,0.81 C6.43897457,0.812559427 6.85510522,1.00602367 7.14,1.34 L8.03,2.34 C8.13277937,2.44108475 8.266676,2.50450947 8.41,2.52 L14.34,2.46 C14.7509065,2.45175188 15.1474221,2.61135137 15.4380354,2.90196464 C15.7286486,3.19257791 15.8882481,3.58909354 15.88,4 L15.88,13 C15.8853505,13.4039309 15.7286269,13.7931634 15.444865,14.0806837 C15.1611031,14.3682041 14.7739663,14.53 14.37,14.53 Z M1.63,1.81 C1.49473959,1.81 1.36501909,1.86373199 1.26937554,1.95937554 C1.17373199,2.05501909 1.11999999,2.18473959 1.11999999,2.32 L1.11999999,13 C1.11999999,13.1343592 1.17402204,13.2630754 1.26996428,13.3571364 C1.36590653,13.4511975 1.49566769,13.5026872 1.63,13.5001001 L14.37,13.5001001 C14.5043323,13.5026872 14.6340935,13.4511975 14.7300357,13.3571364 C14.825978,13.2630754 14.88,13.1343592 14.88,13 L14.88,4 C14.88,3.86564082 14.825978,3.73692459 14.7300357,3.64286357 C14.6340935,3.54880255 14.5043323,3.49731281 14.37,3.5 L8.45,3.56 C8.00725206,3.53444437 7.59313859,3.33278912 7.3,3 L6.41,2 C6.31243756,1.87366752 6.15945564,1.80277346 6,1.81 L1.63,1.81 Z" id="形状" fill="#7F7F7F"></path>
                <path d="M14.78,5.55 L1.22,5.55 C0.943857625,5.55 0.72,5.32614237 0.72,5.05 C0.72,4.77385763 0.943857625,4.55 1.22,4.55 L14.78,4.55 C15.0561424,4.55 15.28,4.77385763 15.28,5.05 C15.28,5.32614237 15.0561424,5.55 14.78,5.55 Z M11.22,10.07 L4.78,10.07 C4.50385763,10.07 4.28,9.84614237 4.28,9.57 C4.28,9.29385763 4.50385763,9.07 4.78,9.07 L11.22,9.07 C11.4961424,9.07 11.72,9.29385763 11.72,9.57 C11.72,9.84614237 11.4961424,10.07 11.22,10.07 Z" id="形状" fill="#7F7F7F"></path>
                <path d="M8,13.29 C7.72385763,13.29 7.5,13.0661424 7.5,12.79 L7.5,6.35 C7.5,6.07385763 7.72385763,5.85 8,5.85 C8.27614237,5.85 8.5,6.07385763 8.5,6.35 L8.5,12.79 C8.5,13.0661424 8.27614237,13.29 8,13.29 Z" id="路径" fill="#7F7F7F"></path>
            </g>
        </g>
    </g>
</svg>