<?xml version="1.0" encoding="UTF-8"?>
<svg width="8px" height="10px" viewBox="0 0 8 10" version="1.1" xmlns="http://www.w3.org/2000/svg" xmlns:xlink="http://www.w3.org/1999/xlink">
    <title>icon-page</title>
    <g id="页面-1" stroke="none" stroke-width="1" fill="none" fill-rule="evenodd">
        <g id="页面呈现" transform="translate(-94.000000, -190.000000)" fill="#FFFFFF" fill-rule="nonzero">
            <g id="icon-page" transform="translate(94.000000, 190.000000)">
                <path d="M7.44443868,10.0000021 L0.555555122,10.0000021 C0.248873284,9.99964774 0.00034443616,9.74547042 0,9.43181843 L0,0.568185821 C0.00034443616,0.254533831 0.248873284,0.000356511471 0.555555122,2.11261446e-06 L5.4174958,2.11261446e-06 C5.56491946,-0.000410081382 5.70637842,0.0595105745 5.81034272,0.166410427 L7.8372856,2.2394209 C7.94180986,2.34574807 8.00039893,2.49042206 8,2.64119631 L8,9.43181843 C7.99964937,9.74547042 7.75112052,9.99964774 7.44443868,10.0000021 L7.44443868,10.0000021 Z M0.555555122,0.454549502 C0.494190199,0.454549502 0.444444104,0.505426219 0.444444104,0.568185821 L0.444444104,9.43181843 C0.444444104,9.49457803 0.494190199,9.54545475 0.555555122,9.54545475 L7.4444441,9.54545475 C7.5058036,9.54545475 7.5555497,9.49457803 7.5555497,9.43181843 L7.5555497,2.72727582 L5.88888432,2.72727582 C5.58220248,2.72692355 5.33367363,2.47274623 5.3333292,2.15909423 L5.3333292,0.454549502 L0.555555122,0.454549502 Z M5.77777331,0.77592721 L5.77777331,2.15909423 C5.77777331,2.22185384 5.8275194,2.27273055 5.88888432,2.27273055 L7.24131384,2.27273055 L5.77777331,0.77592721 Z" id="形状"></path>
            </g>
        </g>
    </g>
</svg>