<?xml version="1.0" encoding="UTF-8"?>
<svg width="16px" height="16px" viewBox="0 0 16 16" version="1.1" xmlns="http://www.w3.org/2000/svg" xmlns:xlink="http://www.w3.org/1999/xlink">
    <title>import</title>
    <g id="页面-1" stroke="none" stroke-width="1" fill="none" fill-rule="evenodd">
        <g id="import">
            <rect id="矩形" fill="#FFE4E4" opacity="0" x="0" y="0" width="16" height="16"></rect>
            <g id="importcont" transform="translate(1.000000, 1.000000)" fill="#7F7F7F" fill-rule="nonzero">
                <path d="M13.0666667,13.0666667 L13.0666667,6.53333333 L14,6.53333333 L14,14 L0,14 L0,6.53333333 L0.933333336,6.53333333 L0.933333336,13.0666667 L13.0666667,13.0666667 Z M14,13.0666667 L13.0666667,14 L13.0666667,13.0666667 L14,13.0666667 Z M0.933333336,14 L0,13.0666667 L0.933333336,13.0666667 L0.933333336,14 Z M13.0666667,6.53333333 L14,6.53333333 L14,14 L0,14 L0,6.53333333 L0.933333336,6.53333333 L0.933333336,13.0666667 L13.0666667,13.0666667 L13.0666667,6.53333333 Z M0.933333336,14 L0,13.0666667 L0.933333336,13.0666667 L0.933333336,14 Z M14,13.0666667 L13.0666667,14 L13.0666667,13.0666667 L14,13.0666667 Z" id="形状"></path>
                <polygon id="路径" points="6.53333333 0 7.46666667 0 7.46666667 10.2666667 6.53333333 10.2666667"></polygon>
                <polygon id="路径" points="6.4176 10.5522667 10.5093333 6.46053334 11.1692 7.1204 7.07746666 11.2121333"></polygon>
                <polygon id="路径" points="3.62506666 6.42040001 7.7168 10.5121333 7.05693334 11.172 2.9652 7.08026667"></polygon>
            </g>
        </g>
    </g>
</svg>