<?xml version="1.0" encoding="UTF-8"?>
<svg width="12px" height="11px" viewBox="0 0 12 11" version="1.1" xmlns="http://www.w3.org/2000/svg" xmlns:xlink="http://www.w3.org/1999/xlink">
    <title>Item-list</title>
    <g id="页面-1" stroke="none" stroke-width="1" fill="none" fill-rule="evenodd">
        <g id="页面呈现-点击" transform="translate(-35.000000, -178.000000)" fill="#FFFFFF" fill-rule="nonzero">
            <g id="Item-list" transform="translate(35.000000, 178.000000)">
                <path d="M9.25334489,5.67122817 L5.24467562,5.67122817 C4.91061985,5.67122817 4.64337523,5.39822433 4.64337523,5.05696954 C4.64337523,4.71571474 4.91061985,4.4427109 5.24467562,4.4427109 L9.25334489,4.4427109 C9.58740066,4.4427109 9.85464528,4.71571474 9.85464528,5.05696954 C9.85464528,5.39822433 9.58740066,5.67122817 9.25334489,5.67122817 Z M2.40520156,7.4798786 C2.40520156,7.85525888 2.67244618,8.12826272 3.03990753,8.12826272 C3.40736888,8.12826272 3.6746135,7.8211334 3.6746135,7.4798786 C3.6746135,7.1386238 3.40736888,6.83149449 3.03990753,6.83149449 C2.67244618,6.83149449 2.40520156,7.10449832 2.40520156,7.4798786 L2.40520156,7.4798786 Z M2.40520156,5.05696954 C2.40520156,5.43234981 2.67244618,5.70535365 3.03990753,5.70535365 C3.40736888,5.70535365 3.6746135,5.39822433 3.6746135,5.05696954 C3.6746135,4.71571474 3.40736888,4.40858542 3.03990753,4.40858542 C2.67244618,4.40858542 2.40520156,4.71571474 2.40520156,5.05696954 L2.40520156,5.05696954 Z M9.25334489,8.09413724 L5.24467562,8.09413724 C4.91061985,8.09413724 4.64337523,7.8211334 4.64337523,7.4798786 C4.64337523,7.1386238 4.91061985,6.86561997 5.24467562,6.86561997 L9.25334489,6.86561997 C9.58740066,6.86561997 9.85464528,7.1386238 9.85464528,7.4798786 C9.85464528,7.8211334 9.58740066,8.09413724 9.25334489,8.09413724 Z M11.9926022,10.0734151 L11.9926022,2.39518211 C11.9926022,1.47379416 11.1574628,1.54204512 11.1574628,1.54204512 L6.44727641,1.54204512 C6.18003179,1.54204512 6.0130039,1.4055432 6.0130039,1.4055432 C6.0130039,1.4055432 5.81257044,1.0642884 5.44510909,0.518280724 C5.11105332,-0.0959779119 4.67678081,0.00639852746 4.67678081,0.00639852746 L1.03557289,0.00639852746 C0,0.00639852746 0,0.996037441 0,0.996037441 L0,10.0051641 C0,11.1313049 0.835139431,10.994803 0.835139431,10.994803 L11.2576795,10.994803 C12.1262245,10.994803 11.9926022,10.0734151 11.9926022,10.0734151 L11.9926022,10.0734151 Z" id="形状"></path>
            </g>
        </g>
    </g>
</svg>