<?xml version="1.0" encoding="UTF-8"?>
<svg width="20px" height="20px" viewBox="0 0 20 20" version="1.1" xmlns="http://www.w3.org/2000/svg" xmlns:xlink="http://www.w3.org/1999/xlink">
    <title>link</title>
    <g id="页面-1" stroke="none" stroke-width="1" fill="none" fill-rule="evenodd">
        <g id="页面组件" transform="translate(-160.000000, -375.000000)" fill="#ABABAB" fill-rule="nonzero">
            <g id="link" transform="translate(160.000000, 375.000000)">
                <path d="M18.8680687,1.13197408 C18.1381312,0.401992963 17.1642541,-6.04540688e-16 16.1258719,-6.04540688e-16 C15.0874898,-6.04540688e-16 14.1136126,0.401992963 13.3836752,1.13197408 L7.85175879,6.66385519 C7.12177602,7.39379098 6.71978215,8.36766597 6.71978215,9.40604575 C6.71978215,10.4444255 7.12177602,11.4183005 7.85171346,12.1482363 C8.41464091,12.7111852 9.12759622,13.0820254 9.91346816,13.2206937 C9.95255657,13.2276089 9.99144091,13.2309645 10.0297811,13.2309645 C10.3463654,13.2309645 10.6269449,13.0039848 10.6838317,12.6814155 C10.7476338,12.3197578 10.5062107,11.9748556 10.1445523,11.9110536 C9.62878486,11.8200667 9.16115238,11.5768984 8.7921252,11.2078721 C8.31331491,10.7290628 8.04967222,10.0891844 8.04967222,9.40604573 C8.04967222,8.72290709 8.31331489,8.08302863 8.7921252,7.6042194 L9.1436261,7.2527193 C9.13770842,7.27756896 9.1330151,7.30296276 9.12990889,7.32894604 C9.08658062,7.69364185 9.34704905,8.02437346 9.71174571,8.06774697 C10.2847854,8.13583411 10.8021626,8.38632581 11.2079429,8.79210517 C11.6867078,9.27086904 11.9503958,9.91079286 11.9503958,10.5939315 C11.9503958,11.2770701 11.6867078,11.9169939 11.2079429,12.3957578 L5.67602649,17.9276163 C5.19721619,18.4064255 4.55733626,18.670113 3.87419608,18.670113 C3.1910559,18.670113 2.55117599,18.4064255 2.07236567,17.9276163 C1.59355538,17.4488071 1.32991269,16.8089286 1.32991269,16.12579 C1.32991269,15.4426514 1.59355536,14.8027729 2.07236567,14.3239637 L5.82650775,10.5697848 C6.08620531,10.3101331 6.08620531,9.88907214 5.82650775,9.6294205 C5.56685552,9.36976887 5.14579359,9.36976887 4.88614137,9.6294205 L1.13197664,13.3835995 C0.401993874,14.1135352 6.04542057e-16,15.0874102 6.04542057e-16,16.12579 C6.04542057e-16,17.1641698 0.401993874,18.1380448 1.13197664,18.8679806 C1.86191408,19.5979617 2.83579128,20 3.87417341,20 C4.91255555,20 5.88643274,19.5979617 6.61637018,18.8679806 L12.1483092,13.3360994 C12.878292,12.6061636 13.2802858,11.6322887 13.2802858,10.5939089 C13.2802405,9.55552909 12.8782466,8.5816541 12.1483092,7.85171832 C11.5382444,7.24160955 10.7286564,6.84934332 9.86871144,6.74711058 C9.7885394,6.73761059 9.71004516,6.74275735 9.6358815,6.76044233 L14.3239962,2.07233829 C14.8028064,1.59352908 15.4426864,1.32988699 16.1258266,1.32988699 C16.8089667,1.32988699 17.4488467,1.59352906 17.927657,2.07233829 C18.4064673,2.55114749 18.67011,3.19102598 18.67011,3.87416461 C18.67011,4.55730325 18.4064673,5.19718171 17.927657,5.67599094 L14.6001544,9.00353131 C14.3404568,9.26318295 14.3404568,9.68424392 14.6001544,9.94389556 C14.8598066,10.2035472 15.2808686,10.2035472 15.5405208,9.94389556 L18.8680234,6.61635519 C19.5980061,5.88641941 20,4.91254442 20,3.87416464 C20,2.83578483 19.5980288,1.86190984 18.8680687,1.13197408 Z" id="路径"></path>
            </g>
        </g>
    </g>
</svg>