<?xml version="1.0" encoding="UTF-8"?>
<svg width="14px" height="14px" viewBox="0 0 14 14" version="1.1" xmlns="http://www.w3.org/2000/svg" xmlns:xlink="http://www.w3.org/1999/xlink">
    <title>luoji</title>
    <g id="页面-1" stroke="none" stroke-width="1" fill="none" fill-rule="evenodd">
        <g id="页面呈现" transform="translate(-17.000000, -142.000000)" fill="#3491FA" fill-rule="nonzero">
            <g id="luoji" transform="translate(17.000000, 142.000000)">
                <path d="M6.94542385,7.87745467 L10.7028091,7.87745467 C11.1459394,8.63729683 12.0865931,8.95280637 12.901824,8.6150377 C13.717055,8.27726903 14.1543783,7.39083236 13.9241775,6.54276872 C13.6939766,5.69470507 12.8675471,5.14766795 11.9921902,5.26393166 C11.1168333,5.38019538 10.4636555,6.12375192 10.4652227,7.00218238 L6.94542385,7.00218238 L6.94542385,1.98687218 L10.7732051,1.98687218 C10.9664284,2.81134358 11.7655244,3.3486097 12.6066847,3.21959822 C13.4478449,3.09058673 14.0471233,2.33884736 13.9816943,1.49477575 C13.9162652,0.650704137 13.2082152,-0.000770853803 12.3571146,2.04172117e-06 C11.7489963,-0.000958548745 11.1916159,0.337100949 10.9139971,0.875276378 L6.50544899,0.875276378 C6.22990006,0.911668648 6.03430056,1.16070517 6.06547413,1.43545064 L6.06547413,7.00218238 L3.14404107,7.00218238 C3.10213348,6.14552378 2.39594868,5.4699617 1.53373309,5.46170316 C0.669170944,5.52454809 0,6.24057894 0,7.10283869 C0,7.96509845 0.669170944,8.6811293 1.53373309,8.74397423 C2.1386852,8.74165964 2.69187977,8.40408048 2.96805113,7.86870194 L6.06547413,7.86870194 L6.06547413,12.5601614 C6.03430056,12.8349069 6.22990006,13.0839434 6.50544899,13.1203357 L10.6764107,13.1203357 C10.9951398,13.6695981 11.5876021,14.0044351 12.2251222,13.9956079 C12.8433384,14.040546 13.4349374,13.7379454 13.7578303,13.2116337 C14.0807232,12.6853219 14.0807232,12.0236229 13.7578303,11.4973111 C13.4349374,10.9709994 12.8433384,10.6683988 12.2251222,10.7133369 C11.4069998,10.685462 10.6775795,11.2223639 10.4652227,12.0087399 L6.94542385,12.0087399 L6.94542385,7.87745467 Z" id="形状"></path>
            </g>
        </g>
    </g>
</svg>