<?xml version="1.0" encoding="UTF-8"?>
<svg width="10px" height="12px" viewBox="0 0 10 12" version="1.1" xmlns="http://www.w3.org/2000/svg" xmlns:xlink="http://www.w3.org/1999/xlink">
    <title>modify</title>
    <g id="页面-1" stroke="none" stroke-width="1" fill="none" fill-rule="evenodd">
        <g id="页面呈现-点击" transform="translate(-311.000000, -116.000000)" fill="#FFFFFF" fill-rule="nonzero">
            <path d="M318.820513,127.010989 L311.512821,127.010989 C311.25641,127.010989 311.032051,127.241758 311.032051,127.505495 C311.032051,127.769231 311.25641,128 311.512821,128 L318.852564,128 C319.108974,128 319.333333,127.769231 319.333333,127.505495 C319.333333,127.241758 319.108974,127.010989 318.820513,127.010989 Z M312.25,126.21978 L314.269231,126.120879 C314.653846,126.153846 315.00641,125.989011 315.262821,125.725275 L319.108974,121.769231 L315.391026,117.945055 L311.544872,121.901099 C311.288462,122.164835 311.160256,122.527473 311.160256,122.89011 L311,124.835165 L311,124.901099 C311,125.263736 311.160256,125.593407 311.384615,125.824176 C311.608974,126.054945 311.897436,126.186813 312.25,126.21978 Z M320.615385,118.274725 L318.788462,116.395604 C318.275641,115.868132 317.410256,115.868132 316.897436,116.395604 L316.064103,117.252747 L319.782051,121.076923 L320.615385,120.21978 C321.128205,119.659341 321.128205,118.802198 320.615385,118.274725 Z" id="modify"></path>
        </g>
    </g>
</svg>