<?xml version="1.0" encoding="UTF-8"?>
<svg width="20px" height="14px" viewBox="0 0 20 14" version="1.1" xmlns="http://www.w3.org/2000/svg" xmlns:xlink="http://www.w3.org/1999/xlink">
    <title>number</title>
    <g id="页面-1" stroke="none" stroke-width="1" fill="none" fill-rule="evenodd">
        <g id="页面组件" transform="translate(-157.000000, -296.000000)" fill="#ABABAB" fill-rule="nonzero">
            <g id="number" transform="translate(157.000000, 296.000000)">
                <path d="M4,11.2 C3.91836734,10.6274314 3.89115645,10.1246883 3.89115645,9.38453867 L3.89115645,2.31820448 C3.89115645,1.48029925 3.91836734,0.837905228 4,0.0139650875 C3.51020408,0.0698254375 3.30612243,0.083790525 2.61224491,0.083790525 L1.36054422,0.083790525 C0.721088437,0.083790525 0.421768705,0.0698254375 0,0 L0,1.77356609 C0.503401362,1.71770574 0.897959196,1.68977557 1.40136054,1.68977557 L2.05442176,1.68977557 L2.05442176,9.38453867 C2.05442176,10.1107231 2.02721089,10.6553616 1.94557824,11.2 L4,11.2 Z M9.65834721,11.1178484 C10.3682751,11.1178484 10.81198,11.1452323 11.3333333,11.2 L11.3333333,9.39266503 C10.9672768,9.46112468 10.4126456,9.50220049 9.71381031,9.50220049 L6.60787576,9.50220049 C6.77426511,8.98190709 6.90737661,8.70806847 7.24015529,8.26992663 C7.51747089,7.90024449 8.07210205,7.32518338 8.56017748,6.90073348 C10.0022185,5.68215158 10.1131448,5.57261613 10.4237382,5.21662592 C10.9672768,4.58679707 11.2113145,3.92958436 11.2113145,3.02591686 C11.2113145,1.15012225 10.0133111,0 8.07210205,0 C6.96283971,0 6.08652246,0.424449878 5.53189129,1.21858192 C5.12146422,1.80733497 4.92179701,2.36870417 4.76650027,3.40929094 L6.35274542,3.64205378 C6.43039379,3.01222493 6.50804217,2.71100244 6.69661674,2.38239608 C6.97393232,1.84841077 7.46200777,1.57457212 8.10537993,1.57457212 C9.04825292,1.57457212 9.63616196,2.14963324 9.63616196,3.0806846 C9.63616196,3.7789731 9.3255685,4.23080685 8.30504714,5.09339854 C7.1957848,6.01075794 6.86300609,6.32567237 6.47476429,6.75012225 C5.75374375,7.55794622 5.25457571,8.43422982 4.95507487,9.43374084 C4.81087078,9.9266503 4.73322241,10.4058679 4.66666667,11.186308 C5.05490848,11.1315403 5.23239045,11.1178484 6.09761509,11.1178484 L9.65834721,11.1178484 Z M12,8.41346152 C12.2337662,9.19423076 12.4025974,9.54423076 12.7272727,9.9211539 C13.4675324,10.7961539 14.5064936,11.2 16.025974,11.2 C17.4155844,11.2 18.5064936,10.8230769 19.2207793,10.1096153 C19.7012987,9.61153847 20,8.87115383 20,8.14423076 C20,7.35 19.8051949,6.78461538 19.3766234,6.28653847 C18.9220779,5.76153847 18.4415584,5.53269231 17.5194806,5.38461538 C18.2077921,5.19615383 18.4935064,5.08846152 18.7792207,4.85961538 C19.3376623,4.42884617 19.6753247,3.68846152 19.6753247,2.88076924 C19.6753247,1.13076924 18.2727273,0 16.1038961,0 C15.064935,0 14.2207793,0.242307691 13.5584416,0.740384619 C12.948052,1.19807693 12.6493506,1.66923076 12.3246753,2.66538462 L14.1818181,2.98846152 C14.3376623,2.43653847 14.4675324,2.20769231 14.7272727,1.95192307 C15.038961,1.68269231 15.5064936,1.53461538 16.1428571,1.53461538 C17.2467533,1.53461538 17.8571429,2.05961538 17.8571429,2.98846152 C17.8571429,4.025 17.0909092,4.64423076 15.7922079,4.64423076 C15.2337663,4.64423076 14.948052,4.63076924 14.5324676,4.57692307 L14.5324676,6.24615383 C14.974026,6.19230769 15.3506493,6.17884617 15.9220779,6.17884617 C16.4935064,6.17884617 17.1038961,6.31346153 17.4155844,6.50192307 C17.8831169,6.78461538 18.1428571,7.29615383 18.1428571,7.91538462 C18.1428571,8.97884617 17.3246753,9.66538462 16.038961,9.66538462 C15.4155844,9.66538462 14.8961039,9.49038462 14.4675324,9.14038462 C14.1428571,8.87115383 14.025974,8.65576924 13.8571429,8.03653848 L12,8.41346152 Z M0,12.6 L20,12.6 L20,14 L0,14 L0,12.6 Z" id="形状"></path>
            </g>
        </g>
    </g>
</svg>