<?xml version="1.0" encoding="UTF-8"?>
<svg width="16px" height="16px" viewBox="0 0 16 16" version="1.1" xmlns="http://www.w3.org/2000/svg" xmlns:xlink="http://www.w3.org/1999/xlink">
    <title>pc</title>
    <g id="页面-1" stroke="none" stroke-width="1" fill="none" fill-rule="evenodd">
        <g id="pc">
            <rect id="矩形" fill="#FFE4E4" opacity="0" x="0" y="0" width="16" height="16"></rect>
            <g id="电脑备份-2" transform="translate(0.000000, 1.000000)">
                <rect id="矩形" stroke="#FFFFFF" stroke-width="0.622222222" fill-opacity="0" fill="#D8D8D8" x="0.311111111" y="0.311111111" width="15.3777778" height="11.2798352" rx="1.77777778"></rect>
                <path d="M12.3639552,13.7331418 L3.63604484,13.7331418 C3.43517629,13.7331418 3.27234016,13.5623099 3.27234016,13.351578 C3.27234016,13.1408462 3.43517629,12.9700143 3.63604484,12.9700143 L12.3639552,12.9700143 C12.554372,12.9848526 12.7016465,13.1512608 12.7016465,13.351578 C12.7016465,13.5518952 12.554372,13.7183035 12.3639552,13.7331418 L12.3639552,13.7331418 Z" id="形状" fill="#FFFFFF" fill-rule="nonzero"></path>
                <path d="M7.99949903,13.7331432 C7.79902112,13.7331432 7.63634663,13.5629504 7.63579435,13.3526292 L7.63579435,11.8274253 C7.62566405,11.6843449 7.69268542,11.5473437 7.80939641,11.4725579 C7.9261074,11.3977721 8.07289066,11.3977721 8.18960165,11.4725579 C8.30631264,11.5473437 8.37333401,11.6843449 8.36320371,11.8274253 L8.36320371,13.3526292 C8.36320407,13.4537298 8.32485335,13.5506743 8.25661654,13.6220645 C8.18837973,13.6934548 8.09586726,13.7334211 7.99949903,13.7331432 L7.99949903,13.7331432 Z" id="路径" fill="#FFFFFF" fill-rule="nonzero"></path>
                <rect id="矩形" fill="#FFFFFF" x="2.66666667" y="2.74662864" width="10.6666667" height="6.40880017"></rect>
            </g>
        </g>
    </g>
</svg>