<?xml version="1.0" encoding="UTF-8"?>
<svg width="20px" height="19px" viewBox="0 0 20 19" version="1.1" xmlns="http://www.w3.org/2000/svg" xmlns:xlink="http://www.w3.org/1999/xlink">
    <title>phone2</title>
    <g id="页面-1" stroke="none" stroke-width="1" fill="none" fill-rule="evenodd">
        <g id="页面组件" transform="translate(-235.000000, -293.000000)" fill="#ABABAB" fill-rule="nonzero">
            <g id="phone2" transform="translate(235.000000, 293.000000)">
                <path d="M19.7208501,13.8097049 L19.4108097,13.4198915 L19.3994068,13.4080469 C19.2981865,13.3041491 19.0109772,13.0182581 18.54127,12.6235546 C17.9796106,12.1507557 16.977505,11.4534264 16.8984376,11.401797 L15.4964744,10.5733913 C15.2391539,10.447156 14.9661857,10.42069 14.7823065,10.42069 C14.5827293,10.42069 14.3860154,10.4520707 14.2142423,10.511318 C13.6077246,10.7184256 13.0417954,11.653555 12.8842886,11.9359565 C12.8115507,12.0663694 12.7317549,12.2225847 12.663312,12.359952 L12.6412344,12.4032018 C12.5557121,12.569861 12.4601682,12.7567197 12.3589731,12.9387375 C12.2591593,13.1144644 12.0453912,13.2929926 11.8286844,13.2929926 C11.7617233,13.2929926 11.699007,13.276946 11.6384506,13.2434765 C10.6990111,12.7155833 9.58646745,12.0322365 8.45177084,10.9624921 C7.17169884,9.7547169 6.41189391,8.8000759 5.9913903,7.86846053 C5.96574616,7.80464251 5.96858435,7.51560607 6.13535916,7.43505334 C6.36557873,7.32277589 6.55302457,7.24922667 6.71836771,7.18366391 L6.75687158,7.16727322 C6.99492754,7.07278717 7.22085215,6.98351073 7.47814751,6.83012139 C7.58931396,6.76003707 7.64848889,6.72796832 7.69909902,6.70005254 L7.72474317,6.68508714 C7.81739864,6.63591506 7.90435261,6.58883177 8.17091601,6.41312946 C8.18234409,6.40509384 8.23079419,6.36604615 8.28210759,6.32316496 L8.45315223,6.17181524 C8.90005346,5.75030174 9.04688562,5.1299866 8.82663738,4.59307477 L8.74967985,4.37586742 C8.74824821,4.3702646 8.46458032,3.72454021 8.0098427,2.9571512 C7.78889119,2.58581728 7.4538848,2.09208153 7.15738232,1.70020397 C6.35628556,0.64338535 5.61504185,0.305520881 5.61147529,0.304169321 C5.60363888,0.299967219 5.41119482,0.199902911 5.29289522,0.147265939 C4.80965015,-0.0549760098 4.26366359,-0.0476776051 3.77617379,0.161543289 C3.04776472,0.429323435 2.6008635,0.794710503 2.12547993,1.18314774 L2.02139637,1.27028626 C0.610165033,2.42299165 -0.154236253,3.92678218 0.0260764449,5.1969501 C0.296583181,7.11778171 2.56449452,11.0385233 5.50812012,13.8139316 C8.45031406,16.5872019 12.5934373,18.71895 14.6169382,18.9707081 C14.7701751,18.9902442 14.927707,19 15.0852137,19 C16.5470301,19 17.6874533,18.1276319 18.5163542,17.3675168 C18.9296996,16.9881718 19.475661,16.3626225 19.7664369,15.7434377 C20.0230792,15.1995223 20.1456738,14.4073384 19.7208501,13.8097049 M4.62858393,8.45451987 C5.13320331,9.57129843 5.99420337,10.6689095 7.41826935,12.010587 C8.66267566,13.1855808 9.8750833,13.9324507 10.89786,14.5077468 C11.1914992,14.6715799 11.5058094,14.7545655 11.8294128,14.7545655 C12.6619054,14.7545655 13.3489473,14.1967414 13.6625794,13.6437338 C13.7802008,13.4338248 13.8842091,13.2295187 13.9982388,13.0049883 L14.0453075,12.9101828 C14.0980525,12.8090373 14.1457742,12.7148952 14.1892763,12.6346865 C14.4251723,12.2183826 14.6497155,11.9666492 14.7473692,11.8801741 C14.7744701,11.878798 14.8129237,11.8795106 14.8350264,11.881624 L16.0801862,12.6180009 L16.1008321,12.6319097 C16.4029859,12.8431948 17.1506846,13.3738894 17.5698067,13.7274319 C17.9354053,14.0342598 18.1713263,14.2623042 18.2482838,14.336222 C18.261872,14.3501062 18.2704116,14.3591984 18.2790015,14.3647521 L18.5070108,14.6506922 C18.523412,14.7106522 18.5070108,14.9352071 18.4143805,15.133935 C18.2126935,15.5621326 17.7957062,16.0321055 17.4992288,16.3040878 C16.5484617,17.1743425 15.8321087,17.5446197 15.1022931,17.5446197 C15.006071,17.5446197 14.9062573,17.5383289 14.8057655,17.5250836 C13.2591049,17.3333347 9.36687225,15.4288692 6.54013971,12.7643868 C3.72270036,10.1075714 1.70638288,6.45006379 1.50110418,4.99787813 C1.39277589,4.2321847 1.97151463,3.20854063 2.9750519,2.38844092 L3.0826769,2.30162186 C3.51887843,1.94284515 3.80754452,1.70610165 4.33567311,1.51083865 C4.42689692,1.47319167 4.50028789,1.45402414 4.56159771,1.45402414 C4.6050747,1.45402414 4.65141499,1.46306729 4.69132542,1.47948254 C4.74407046,1.50388427 4.8324561,1.54882966 4.88660768,1.57743351 L4.93365124,1.60080314 C4.93864947,1.60326053 5.41405814,1.84658978 5.95999446,2.5676327 C6.23225936,2.92468926 6.53019351,3.36468224 6.72118082,3.68686864 C6.93072935,4.04252451 7.13957461,4.43580277 7.3412616,4.85628417 C7.34912313,4.87201137 7.35552788,4.88560065 7.36122936,4.8964131 L7.42680902,5.08921872 C7.43180724,5.10071923 7.43321377,5.10701012 7.43464544,5.10701012 C7.43178213,5.11047502 7.42394574,5.11848606 7.41040784,5.13141185 L7.36693086,5.1735804 C7.34841985,5.19068372 7.32845209,5.20916317 7.31704912,5.22135176 C7.12817161,5.343385 7.06329521,5.37823057 6.99630902,5.41627073 C6.93072935,5.45114087 6.8509085,5.49404665 6.69267336,5.59197303 C6.54584121,5.67984875 6.39830577,5.73843257 6.18878237,5.82107409 C5.98136875,5.90263436 5.75474089,5.99402413 5.47531773,6.12893401 C4.47180557,6.61426558 4.33778292,7.81265356 4.62858393,8.45451987" id="形状"></path>
            </g>
        </g>
    </g>
</svg>