<?xml version="1.0" encoding="UTF-8"?>
<svg width="16px" height="16px" viewBox="0 0 16 16" version="1.1" xmlns="http://www.w3.org/2000/svg" xmlns:xlink="http://www.w3.org/1999/xlink">
    <title>phone</title>
    <g id="页面-1" stroke="none" stroke-width="1" fill="none" fill-rule="evenodd">
        <g id="phone">
            <rect id="矩形" fill="#FFE4E4" opacity="0" x="0" y="0" width="16" height="16"></rect>
            <g id="手机备份-2" transform="translate(3.000000, 0.000000)" fill="#7F7F7F" fill-rule="nonzero">
                <path d="M10,1.96444445 C10,0.879505158 9.14459893,0 8.08939394,0 L1.91060606,0 C0.855401071,0 0,0.879505158 0,1.96444445 L0,14.0355556 C0,15.1204948 0.855401071,16 1.91060606,16 L8.08939394,16 C9.14459893,16 10,15.1204948 10,14.0355556 L10,1.96444445 Z M0.69518717,3.07903781 L9.30481283,3.07903781 L9.30481283,12.5544101 L0.69518717,12.5544101 L0.69518717,3.07903781 Z M1.91103388,0.714776637 L8.08898396,0.714776637 C8.76048129,0.714776637 9.30483065,1.27446507 9.30483065,1.9648843 L9.30483065,2.36426116 L0.695204989,2.36426116 L0.695204989,1.9648843 C0.695204989,1.2744834 1.23953655,0.714776637 1.91103388,0.714776637 Z M8.08898396,15.2852234 L1.91103388,15.2852234 C1.23953655,15.2852234 0.695187187,14.7255349 0.695187187,14.0351157 L0.695187187,13.2508591 L9.30481285,13.2508591 L9.30481285,14.0351157 C9.30481285,14.7255349 8.76046345,15.2852234 8.08898396,15.2852234 Z" id="形状"></path>
                <path d="M5.025918,13.6984926 C4.73488414,13.6984926 4.49809269,13.9419565 4.49809269,14.2411913 C4.49809269,14.5404261 4.73488414,14.78389 5.025918,14.78389 C5.31695186,14.78389 5.55370766,14.5404261 5.55370766,14.2411913 C5.55370766,13.9419565 5.31695188,13.6984926 5.025918,13.6984926 Z" id="路径"></path>
            </g>
        </g>
    </g>
</svg>