<?xml version="1.0" encoding="UTF-8"?>
<svg width="125px" height="100px" viewBox="0 0 125 100" version="1.1" xmlns="http://www.w3.org/2000/svg" xmlns:xlink="http://www.w3.org/1999/xlink">
    <title>model</title>
    <defs>
        <filter x="-11.2%" y="-14.6%" width="122.4%" height="129.3%" filterUnits="objectBoundingBox" id="filter-1">
            <feOffset dx="0" dy="0" in="SourceAlpha" result="shadowOffsetOuter1"></feOffset>
            <feGaussianBlur stdDeviation="3" in="shadowOffsetOuter1" result="shadowBlurOuter1"></feGaussianBlur>
            <feColorMatrix values="0 0 0 0 0.679035574   0 0 0 0 0.679035574   0 0 0 0 0.679035574  0 0 0 0.5 0" type="matrix" in="shadowBlurOuter1" result="shadowMatrixOuter1"></feColorMatrix>
            <feMerge>
                <feMergeNode in="shadowMatrixOuter1"></feMergeNode>
                <feMergeNode in="SourceGraphic"></feMergeNode>
            </feMerge>
        </filter>
    </defs>
    <g id="页面-1" stroke="none" stroke-width="1" fill="none" fill-rule="evenodd">
        <g id="门户列表" transform="translate(-881.000000, -157.000000)" fill-rule="nonzero">
            <g id="model" filter="url(#filter-1)" transform="translate(890.000000, 166.000000)">
                <g id="-">
                    <path d="M107,9.16131484 L0,9.16131484 L0,3.11609348 C0,1.40224207 1.40297203,0 3.11771562,0 L103.882284,0 C105.597028,0 107,1.40224207 107,3.11609348 L107,9.16131484 Z" id="路径" fill="#FFFFFF"></path>
                    <path d="M107,9.16131484 L0,9.16131484 L0,78.8839065 C0,80.5977579 1.40297203,82 3.11771562,82 L103.882284,82 C105.597028,82 107,80.5977579 107,78.8839065 L107,9.16131484 Z" id="路径" fill="#F4F4F4"></path>
                    <path d="M5.67736014,4.56507695 C5.67736014,5.58044979 6.50091095,6.40357211 7.51681235,6.40357211 C8.53271376,6.40357211 9.35626457,5.58044979 9.35626457,4.56507695 C9.35626457,3.54970412 8.53271376,2.7265818 7.51681235,2.7265818 C6.50091095,2.7265818 5.67736014,3.54970412 5.67736014,4.56507695 Z" id="路径" fill="#F47676"></path>
                    <path d="M11.8036713,4.56507695 C11.8036713,5.58044979 12.6272221,6.40357211 13.6431235,6.40357211 C14.6590249,6.40357211 15.4825758,5.58044979 15.4825758,4.56507695 C15.4825758,3.54970412 14.6590249,2.7265818 13.6431235,2.7265818 C12.6272221,2.7265818 11.8036713,3.54970412 11.8036713,4.56507695 Z" id="路径" fill="#F5E58C"></path>
                    <path d="M18.4465392,5.86747409 C18.9112388,6.33191568 19.5885446,6.51329211 20.223322,6.34328064 C20.8580994,6.17326917 21.3539106,5.67769857 21.5239884,5.0432455 C21.6940662,4.40879244 21.5125717,3.73184541 21.0478721,3.26740382 C20.3295088,2.54943932 19.164832,2.54945965 18.4464938,3.26744923 C17.7281555,3.98543881 17.7281759,5.14950959 18.4465392,5.86747409 Z" id="路径" fill="#71E47C"></path>
                    <path d="M5.75218531,17.4812844 L53.1414627,17.4812844 L53.1414627,54.5627969 L5.75218531,54.5627969 L5.75218531,17.4812844 Z M59.1586538,17.4812844 L101.964889,17.4812844 L101.964889,22.0619419 L59.1586538,22.0619419 L59.1586538,17.4812844 Z M59.1586538,28.2629679 L101.964889,28.2629679 L101.964889,32.8436253 L59.1586538,32.8436253 L59.1586538,28.2629679 Z M59.1586538,39.0602318 L101.964889,39.0602318 L101.964889,43.6408892 L59.1586538,43.6408892 L59.1586538,39.0602318 Z M59.1586538,49.8419153 L85.1448135,49.8419153 L85.1448135,54.4225727 L59.1586538,54.4225727 L59.1586538,49.8419153 Z M5.75218531,61.7921338 L101.949301,61.7921338 L101.949301,66.3727912 L5.75218531,66.3727912 L5.75218531,61.7921338 Z M5.75218531,70.7509025 L69.8524184,70.7509025 L69.8524184,75.3315599 L5.75218531,75.3315599 L5.75218531,70.7509025 Z" id="形状" fill="#FFFFFF"></path>
                    <path d="M47.1710373,27.6241687 C45.7368881,27.6241687 44.5677448,28.7927038 44.5677448,30.2261068 C44.5677448,30.7091013 44.708042,31.1609348 44.9262821,31.534866 L36.430507,40.9298879 C36.1031469,40.7740832 35.729021,40.6961809 35.3548951,40.6961809 C35.0119464,40.6961809 34.7001748,40.7585028 34.4039918,40.8831465 L25.7211538,30.2105263 C25.9861597,29.8054342 26.157634,29.3068592 26.157634,28.7771233 C26.157634,27.3437203 24.9884907,26.1751853 23.5543415,26.1751853 C22.1201923,26.1751853 20.951049,27.3437203 20.951049,28.7771233 C20.951049,29.3068592 21.1069347,29.7898537 21.3875291,30.2105263 L12.7046911,40.8831465 C12.4085082,40.7585028 12.081148,40.6961809 11.7537879,40.6961809 C10.3196387,40.6961809 9.15049534,41.8647159 9.15049534,43.2981189 C9.15049534,44.7315219 10.3196387,45.900057 11.7537879,45.900057 C13.1879371,45.900057 14.3570804,44.7315219 14.3570804,43.2981189 C14.3570804,42.7683831 14.2011946,42.2853886 13.9206002,41.8647159 L22.6034382,31.1920958 C22.8996212,31.3167395 23.2269814,31.3790614 23.5543415,31.3790614 C23.8972902,31.3790614 24.2090618,31.3167395 24.5052448,31.1920958 L33.1880828,41.8647159 C32.9230769,42.2698081 32.7516026,42.7683831 32.7516026,43.2981189 C32.7516026,44.7315219 33.9207459,45.900057 35.3548951,45.900057 C36.7890443,45.900057 37.9581876,44.7315219 37.9581876,43.2981189 C37.9581876,42.8151245 37.8178904,42.3632909 37.5996503,41.9893597 L46.0954254,32.5943378 C46.4227855,32.7501425 46.7969114,32.8280448 47.1710373,32.8280448 C48.6051865,32.8280448 49.7743298,31.6595098 49.7743298,30.2261068 C49.7743298,28.7927038 48.6051865,27.6241687 47.1710373,27.6241687 L47.1710373,27.6241687 Z" id="路径" fill="#CECECE"></path>
                </g>
            </g>
        </g>
    </g>
</svg>