<?xml version="1.0" encoding="UTF-8"?>
<svg width="16px" height="16px" viewBox="0 0 16 16" version="1.1" xmlns="http://www.w3.org/2000/svg" xmlns:xlink="http://www.w3.org/1999/xlink">
    <title>copy</title>
    <g id="页面-1" stroke="none" stroke-width="1" fill="none" fill-rule="evenodd" stroke-linejoin="round">
        <g id="门户列表" transform="translate(-1175.000000, -428.000000)" stroke="#FFFFFF" stroke-width="0.736842105">
            <g id="copy" transform="translate(1176.000000, 429.000000)">
                <path d="M2.94736842,2.73795789 L2.94736842,1.03618421 C2.94736842,0.463915789 3.41128421,0 3.98355263,0 L12.9638158,0 C13.5360842,0 14,0.463915789 14,1.03618421 L14,10.0164474 C14,10.5887158 13.5360842,11.0526316 12.9638158,11.0526316 L11.2428474,11.0526316" id="路径" stroke-linecap="round"></path>
                <path d="M10.0164474,2.94736842 L1.03618421,2.94736842 C0.463915789,2.94736842 0,3.41128421 0,3.98355263 L0,12.9638158 C0,13.5360842 0.463915789,14 1.03618421,14 L10.0164474,14 C10.5887158,14 11.0526316,13.5360842 11.0526316,12.9638158 L11.0526316,3.98355263 C11.0526316,3.41128421 10.5887158,2.94736842 10.0164474,2.94736842 Z" id="路径"></path>
            </g>
        </g>
    </g>
</svg>