<?xml version="1.0" encoding="UTF-8"?>
<svg width="17px" height="20px" viewBox="0 0 17 20" version="1.1" xmlns="http://www.w3.org/2000/svg" xmlns:xlink="http://www.w3.org/1999/xlink">
    <title>location</title>
    <g id="页面-1" stroke="none" stroke-width="1" fill="none" fill-rule="evenodd">
        <g id="页面组件" transform="translate(-428.000000, -584.000000)" fill="#ABABAB" fill-rule="nonzero">
            <g id="location" transform="translate(428.000000, 584.000000)">
                <path d="M10.4029851,6.5408805 C10.4029851,5.53459119 9.64179104,4.77987421 8.62686567,4.77987421 C7.6119403,4.77987421 6.85074627,5.53459119 6.85074627,6.5408805 C6.85074627,7.54716981 7.6119403,8.30188679 8.62686567,8.30188679 C9.64179104,8.30188679 10.4029851,7.54716981 10.4029851,6.5408805 L10.4029851,6.5408805 Z M16.4925373,15.9748428 C16.238806,15.7232704 15.7313433,15.5974843 15.0970149,15.4716981 C14.7164179,15.3459119 13.9552239,15.3459119 13.4477612,15.3459119 L13.3208955,15.3459119 C13.0671642,15.3459119 12.9402985,15.5974843 12.9402985,15.8490566 C12.9402985,16.1006289 13.1940299,16.3522013 13.4477612,16.3522013 L13.9552239,16.3522013 C14.9701493,16.4779874 15.4776119,16.6037736 15.6044776,16.8553459 C15.7313433,16.9811321 15.858209,17.2327044 15.858209,17.3584906 C15.858209,17.6100629 15.3507463,17.9874214 14.0820896,18.3647799 C12.6865672,18.7421384 10.7835821,18.8679245 8.62686567,18.8679245 C6.34328358,18.8679245 4.56716418,18.7421384 3.17164179,18.3647799 C1.64925373,17.9874214 1.26865672,17.4842767 1.26865672,17.3584906 C1.26865672,17.1069182 1.39552239,16.9811321 1.52238806,16.8553459 C1.7761194,16.7295597 2.15671642,16.6037736 2.91791045,16.4779874 L3.55223881,16.4779874 C3.80597015,16.4779874 4.05970149,16.2264151 4.05970149,15.9748428 C4.05970149,15.7232704 3.93283582,15.5974843 3.67910448,15.4716981 L3.55223881,15.4716981 C2.28358209,15.4716981 1.52238806,15.7232704 0.888059701,15.9748428 C0.380597015,16.3522013 0,16.8553459 0,17.4842767 C0,17.9874214 0.253731343,18.490566 0.888059701,18.8679245 C1.26865672,19.1194969 1.90298507,19.3710692 2.6641791,19.4968553 C4.05970149,19.8742138 6.08955224,20 8.37313433,20 C10.7835821,20 12.4328358,19.8742138 13.8283582,19.4968553 C14.7164179,19.3710692 15.4776119,18.9937107 15.858209,18.7421384 C16.3656716,18.3647799 16.7462687,17.9874214 16.8731343,17.4842767 C17.1268657,16.7295597 17,16.4779874 16.4925373,15.9748428 L16.4925373,15.9748428 Z" id="形状"></path>
                <path d="M7.73880597,16.6037736 C7.99253731,16.8553459 8.24626866,16.9811321 8.62686567,16.9811321 C8.88059701,16.9811321 9.26119403,16.8553459 9.51492537,16.6037736 C10.6567164,15.0943396 11.5447761,13.7106918 12.8134328,11.6981132 C14.2089552,9.43396226 15.0970149,7.54716981 15.0970149,6.28930818 C15.0970149,4.65408805 14.4626866,3.01886792 13.3208955,1.88679245 C12.0522388,0.628930818 10.5298507,0 8.88059701,0 L8.62686567,0 C6.97761194,0 5.45522388,0.628930818 4.18656716,1.88679245 C2.91791045,3.14465409 2.28358209,4.77987421 2.41044776,6.28930818 C2.28358209,7.54716981 3.04477612,9.55974843 4.44029851,11.6981132 C5.70895522,13.836478 6.7238806,15.0943396 7.73880597,16.6037736 Z M5.20149254,2.7672956 C6.21641791,1.76100629 7.48507463,1.25786164 8.62686567,1.25786164 C9.89552239,1.25786164 11.1641791,1.76100629 12.0522388,2.7672956 C13.0671642,3.77358491 13.5746269,4.77987421 13.5746269,6.16352201 C13.5746269,6.79245283 13.1940299,7.9245283 12.3059701,9.55974843 C11.4179104,11.0691824 10.4029851,12.7044025 8.88059701,14.8427673 C8.88059701,14.9685535 8.75373134,14.9685535 8.62686567,14.9685535 C8.5,14.9685535 8.37313433,14.9685535 8.37313433,14.8427673 C5.45522388,10.8176101 3.67910448,7.54716981 3.67910448,6.16352201 C3.67910448,4.77987421 4.18656716,3.77358491 5.20149254,2.7672956 L5.20149254,2.7672956 Z" id="形状"></path>
            </g>
        </g>
    </g>
</svg>