<?xml version="1.0" encoding="UTF-8"?>
<svg width="16px" height="16px" viewBox="0 0 16 16" version="1.1" xmlns="http://www.w3.org/2000/svg" xmlns:xlink="http://www.w3.org/1999/xlink">
    <title>refresh</title>
    <g id="页面-1" stroke="none" stroke-width="1" fill="none" fill-rule="evenodd">
        <g id="资源管理器" transform="translate(-810.000000, -16.000000)" fill-rule="nonzero">
            <g id="refresh" transform="translate(810.000000, 16.000000)">
                <rect id="矩形" fill="#000000" opacity="0" x="0" y="0" width="16" height="16"></rect>
                <path d="M13.094075,7.36265 C12.841384,7.22042977 12.5212452,7.30998402 12.379025,7.562675 C12.2368048,7.81536598 12.326359,8.13550477 12.57905,8.277725 L14.17785,9.177575 C14.511225,9.365175 14.92685,9.144675 14.9587,8.76335 C14.986175,8.4326 15,8.17972501 15,8 C15,4.13407501 11.865925,1 8,1 C4.13407501,1 1,4.13407501 1,8 C1,11.865925 4.13407499,15 8,15 C10.36425,15 12.529,13.818225 13.82015,11.890425 C13.9256303,11.7345942 13.9396434,11.5342281 13.8568808,11.365232 C13.7741182,11.1962358 13.6072388,11.0844585 13.4194619,11.0722447 C13.231685,11.0600309 13.0517321,11.1492489 12.947775,11.3061 C11.84965,12.94585 10.0104,13.95 8,13.95 C4.71385,13.95 2.05,11.28615 2.05,8 C2.05,4.71385 4.71385,2.05 8,2.05 C11.23365,2.05 13.864775,4.6295 13.9479,7.84320001 L13.094075,7.36265 Z" id="路径" fill="#7F7F7F"></path>
            </g>
        </g>
    </g>
</svg>