<?xml version="1.0" encoding="UTF-8"?>
<svg width="14px" height="14px" viewBox="0 0 14 14" version="1.1" xmlns="http://www.w3.org/2000/svg" xmlns:xlink="http://www.w3.org/1999/xlink">
    <title>rename</title>
    <g id="页面-1" stroke="none" stroke-width="1" fill="none" fill-rule="evenodd">
        <g id="页面逻辑" transform="translate(-210.000000, -278.000000)" fill="#FFFFFF" fill-rule="nonzero">
            <g id="rename" transform="translate(210.000000, 278.000000)">
                <path d="M12.8610603,14 L1.11334552,14 C0.499085923,14 0,13.5009141 0,12.8866545 L0,1.1261426 C0,0.511883004 0.499085923,0.0127970812 1.11334552,0.0127970812 L7,0.0127970812 C7.21755027,0.0127970812 7.38391225,0.179159062 7.38391225,0.396709329 C7.38391225,0.614259597 7.21755027,0.780621578 7,0.780621578 L1.11334552,0.780621578 C0.934186477,0.780621578 0.767824497,0.946983558 0.767824497,1.1261426 L0.767824497,12.8866545 C0.767824497,13.0658135 0.934186477,13.2321755 1.11334552,13.2321755 L12.8610603,13.2321755 C13.0402194,13.2321755 13.2065813,13.0658135 13.2065813,12.8866545 L13.2065813,6.98720292 C13.2065813,6.76965265 13.3729433,6.60329067 13.5904936,6.60329067 C13.8080439,6.60329067 13.9744058,6.76965265 13.9744058,6.98720292 L13.9744058,12.8866545 C13.9744058,13.5009141 13.4753199,14 12.8610603,14 Z" id="路径"></path>
                <path d="M6.98720292,7.39670933 C6.88482633,7.39670933 6.79524679,7.3583181 6.71846435,7.28153565 C6.56489945,7.12797076 6.56489945,6.88482633 6.71846435,6.74405851 L13.3473492,0.115173674 C13.5009141,-0.0383912248 13.7440585,-0.0383912248 13.8848263,0.115173674 C14.0383912,0.268738574 14.0383912,0.511883004 13.8848263,0.652650822 L7.25594149,7.28153565 C7.17915904,7.3583181 7.08957951,7.39670933 6.98720292,7.39670933 Z" id="路径"></path>
            </g>
        </g>
    </g>
</svg>