<?xml version="1.0" encoding="UTF-8"?>
<svg width="16px" height="16px" viewBox="0 0 16 16" version="1.1" xmlns="http://www.w3.org/2000/svg" xmlns:xlink="http://www.w3.org/1999/xlink">
    <title>revoke</title>
    <g id="页面-1" stroke="none" stroke-width="1" fill="none" fill-rule="evenodd">
        <g id="revoke">
            <rect id="矩形" fill="#FFE4E4" opacity="0" x="0" y="0" width="16" height="16"></rect>
            <g id="撤销备份-4" transform="translate(0.000000, 2.000000)" fill="#7F7F7F" fill-rule="nonzero">
                <path d="M15.2594649,10.8956035 C14.9613347,8.98696608 14.0996229,7.31183064 12.8850619,6.1178595 C11.6909468,4.9440203 10.1540323,4.23729236 8.47860483,4.23729239 L8.11182459,4.23729239 L8.11182459,0.800736629 L8.11133944,0.785002943 L0.744927049,5.94761402 C0.74343691,5.948651 0.741738867,5.95108258 0.740144766,5.95444388 C0.735882298,5.96345498 0.733560479,5.97890258 0.733560479,6 C0.733560479,6.02109742 0.735882318,6.03654502 0.740144766,6.04555612 C0.741738867,6.04891742 0.74343691,6.05134898 0.744927049,6.05238598 L8.11133944,11.2149971 L8.11182459,11.1992634 L8.11182459,7.81841912 L8.45711922,7.79728594 C8.52414047,7.79320949 8.60263228,7.78966941 8.693461,7.78688026 C8.80023064,7.78355474 8.87962345,7.78180257 8.92980275,7.78180257 C10.1751714,7.78180257 11.3624249,8.0837818 12.4412107,8.62888202 C13.5054417,9.166616 14.4610664,9.94121329 15.2594649,10.8956035 Z M13.3893501,5.57089986 C14.7273841,6.88619907 15.6727165,8.73143695 15.9891441,10.829236 C16.0127436,10.9858218 15.9972185,11.1409415 15.9488759,11.2766087 C15.8959589,11.4252561 15.8029124,11.5548443 15.6770136,11.6456706 C15.5333372,11.7492625 15.3715713,11.7860936 15.2128203,11.7594536 C15.0611042,11.7335288 14.9203041,11.6508198 14.8104502,11.5145805 C14.0552308,10.5782124 13.1414338,9.82185192 12.1203126,9.30593053 C11.1432716,8.81221505 10.0646591,8.53873524 8.92980275,8.53873522 L8.84538507,8.53894977 L8.84538507,11.1992634 C8.84538507,11.332642 8.81610227,11.4608357 8.76134861,11.5759776 C8.70392656,11.6967692 8.61885047,11.7993957 8.51020948,11.8755252 C8.39186532,11.9584846 8.26281303,12 8.13206267,12 C8.00131231,12 7.87229466,11.9584846 7.75391584,11.8755252 L0.335175593,6.67622606 C0.226534621,6.60009655 0.141493171,6.49747008 0.0840018235,6.37667841 C0.0292828071,6.26153654 0,6.13334287 0,6 C0,5.86665713 0.0292828071,5.73846346 0.0840018235,5.62332159 C0.141493171,5.5025299 0.226534621,5.39990345 0.335175593,5.32377394 L7.75391584,0.124474806 C7.87229464,0.0415154387 8.00131229,0 8.13206267,0 C8.26281303,0 8.39186534,0.0415154387 8.51020948,0.124474806 C8.61885045,0.200604316 8.70392656,0.30323078 8.76134861,0.424022449 C8.81610227,0.539164327 8.84538509,0.667357995 8.84538507,0.800736629 L8.84538507,3.49055086 C10.5727939,3.58598988 12.1491449,4.35175485 13.3893501,5.57089986 Z" id="形状"></path>
            </g>
        </g>
    </g>
</svg>