<?xml version="1.0" encoding="UTF-8"?>
<svg width="20px" height="20px" viewBox="0 0 20 20" version="1.1" xmlns="http://www.w3.org/2000/svg" xmlns:xlink="http://www.w3.org/1999/xlink">
    <title>rich-text</title>
    <g id="页面-1" stroke="none" stroke-width="1" fill="none" fill-rule="evenodd">
        <g id="页面组件" transform="translate(-433.000000, -515.000000)" fill="#ABABAB" fill-rule="nonzero">
            <g id="rich-text" transform="translate(433.000000, 515.000000)">
                <path d="M18.0211082,0 L1.97889182,0 C0.885980047,0 0,0.884521403 0,1.97563385 L0,18.0243662 C0,19.1154786 0.885980047,20 1.97889182,20 L18.0211082,20 C19.11402,20 20,19.1154786 20,18.0243662 L20,1.97563385 C20,0.884521403 19.11402,0 18.0211082,0 L18.0211082,0 Z M18.6807388,18.0243662 C18.6807388,18.199023 18.6112422,18.3665264 18.4875375,18.4900275 C18.3638327,18.6135286 18.1960531,18.6829108 18.0211082,18.6829108 L1.97889182,18.6829108 C1.6145879,18.6829108 1.31926121,18.3880703 1.31926121,18.0243662 L1.31926121,1.97563385 C1.31926121,1.6119297 1.6145879,1.31708923 1.97889182,1.31708923 L18.0211082,1.31708923 C18.1960531,1.31708923 18.3638327,1.38647141 18.4875375,1.50997249 C18.6112422,1.63347356 18.6807388,1.80097696 18.6807388,1.97563385 L18.6807388,18.0243662 Z" id="形状"></path>
                <path d="M16.1741425,14.1323675 L3.7994723,14.1323675 C3.43516837,14.1323675 3.13984169,14.4272079 3.13984169,14.7909121 C3.13984169,15.1546162 3.43516837,15.4494567 3.7994723,15.4494567 L16.1741425,15.4494567 C16.5384464,15.4494567 16.8337731,15.1546162 16.8337731,14.7909121 C16.8337731,14.4272079 16.5384464,14.1323675 16.1741425,14.1323675 Z M16.1741425,11.1096477 L10.6200528,11.1096477 C10.2557488,11.1096477 9.96042216,11.4044881 9.96042216,11.7681923 C9.96042216,12.1318964 10.2557488,12.4267369 10.6200528,12.4267369 L16.1741425,12.4267369 C16.5384464,12.4267369 16.8337731,12.1318964 16.8337731,11.7681923 C16.8337731,11.4044881 16.5384464,11.1096477 16.1741425,11.1096477 L16.1741425,11.1096477 Z M16.1741425,8.08034244 L13.6543536,8.08034244 C13.2900496,8.08034244 12.994723,8.37518291 12.994723,8.73888706 C12.994723,9.10259121 13.2900496,9.39743168 13.6543536,9.39743168 L16.1741425,9.39743168 C16.5384464,9.39743168 16.8337731,9.10259121 16.8337731,8.73888706 C16.8337731,8.37518291 16.5384464,8.08034244 16.1741425,8.08034244 L16.1741425,8.08034244 Z M16.1741425,5.05762265 L13.6543536,5.05762265 C13.2900496,5.05762265 12.994723,5.35246312 12.994723,5.71616727 C12.994723,6.07987142 13.2900496,6.37471189 13.6543536,6.37471189 L16.1741425,6.37471189 C16.5384464,6.37471189 16.8337731,6.07987142 16.8337731,5.71616727 C16.8337731,5.35246312 16.5384464,5.05762265 16.1741425,5.05762265 L16.1741425,5.05762265 Z M3.88522427,7.0464274 C4.06016919,7.0464274 4.22794881,6.97704522 4.35165355,6.85354414 C4.47535828,6.73004307 4.54485488,6.56253967 4.54485488,6.38788278 L6.27968338,6.38788278 L6.27968338,11.1096477 L5.7585752,11.1096477 C5.39427127,11.1096477 5.09894459,11.4044881 5.09894459,11.7681923 C5.09894459,12.1318964 5.39427127,12.4267369 5.7585752,12.4267369 L8.12005277,12.4267369 C8.4843567,12.4267369 8.77968338,12.1318964 8.77968338,11.7681923 C8.77968338,11.4044881 8.4843567,11.1096477 8.12005277,11.1096477 L7.59894459,11.1096477 L7.59894459,6.37471189 L9.30079156,6.37471189 C9.30079156,6.73841604 9.59611824,7.0332565 9.96042216,7.0332565 C10.3247261,7.0332565 10.6200528,6.73841604 10.6200528,6.37471189 L10.6200528,5.71616727 C10.6200528,5.54151038 10.5505562,5.37400698 10.4268514,5.25050591 C10.3031467,5.12700483 10.1353671,5.05762265 9.96042216,5.05762265 L3.88522427,5.05762265 C3.71027936,5.05762265 3.54249973,5.12700483 3.418795,5.25050591 C3.29509026,5.37400698 3.22559367,5.54151038 3.22559367,5.71616727 L3.22559367,6.37471189 C3.22204857,6.55163952 3.28997698,6.72254655 3.41406803,6.84891105 C3.53815909,6.97527555 3.70796942,7.04646279 3.88522427,7.0464274 L3.88522427,7.0464274 Z" id="形状"></path>
            </g>
        </g>
    </g>
</svg>