<?xml version="1.0" encoding="UTF-8"?>
<svg width="13px" height="14px" viewBox="0 0 13 14" version="1.1" xmlns="http://www.w3.org/2000/svg" xmlns:xlink="http://www.w3.org/1999/xlink">
    <title>search</title>
    <g id="页面-1" stroke="none" stroke-width="1" fill="none" fill-rule="evenodd">
        <g id="页面呈现" transform="translate(-68.000000, -125.000000)" fill="#999999" fill-rule="nonzero">
            <g id="search" transform="translate(68.000000, 125.000000)">
                <path d="M6.5,12.8176547 C2.925,12.8176547 0,9.93368241 0,6.40882736 C0,2.88397231 2.925,0 6.5,0 C10.075,0 13,2.88397231 13,6.40882736 C13,9.93368241 10.075,12.8176547 6.5,12.8176547 Z M6.5,11.7495168 C9.47916666,11.7495168 11.9166667,9.34620658 11.9166667,6.40882736 C11.9166667,3.47144814 9.47916668,1.0681379 6.5,1.0681379 C3.52083332,1.0681379 1.08333334,3.47144816 1.08333334,6.40882736 C1.08333334,9.34620657 3.52083334,11.7495168 6.5,11.7495168 Z M10.5083333,12.6040272 C10.2916667,12.3903996 10.3458333,12.0165513 10.5625,11.8563306 C10.7791667,11.6961099 11.1583333,11.6961099 11.3208333,11.9097375 L12.35,13.1380961 C12.5666667,13.3517237 12.5125,13.7255719 12.2958333,13.8857926 C12.0791667,14.0460133 11.7,14.0460133 11.5375,13.8323857 L10.5083333,12.6040272 Z" id="形状"></path>
            </g>
        </g>
    </g>
</svg>