<?xml version="1.0" encoding="UTF-8"?>
<svg width="16px" height="16px" viewBox="0 0 16 16" version="1.1" xmlns="http://www.w3.org/2000/svg" xmlns:xlink="http://www.w3.org/1999/xlink">
    <title>setting</title>
    <g id="页面-1" stroke="none" stroke-width="1" fill="none" fill-rule="evenodd">
        <g id="setting">
            <rect id="矩形" fill="#FFE4E4" opacity="0" x="0" y="0" width="16" height="16"></rect>
            <g id="设置备份-2" transform="translate(0.000000, 1.000000)" fill="#FFFFFF" fill-rule="nonzero">
                <path d="M8.01015222,10.5941462 C9.78793,10.5941462 11.1768189,9.19521679 11.1768189,7.47345747 C11.1768189,5.75169815 9.73237444,4.3527687 8.01015222,4.3527687 C6.23237444,4.3527687 4.84348556,5.75169815 4.84348556,7.47345747 C4.84348556,9.19521679 6.28793,10.5941462 8.01015222,10.5941462 L8.01015222,10.5941462 Z M8.01015222,9.73326657 C6.73237444,9.73326657 5.67681889,8.71097198 5.67681889,7.47345747 C5.67681889,6.23594295 6.73237444,5.21364836 8.01015222,5.21364836 C9.28793,5.21364836 10.3434856,6.23594295 10.3434856,7.47345747 C10.3434856,8.71097198 9.28793,9.73326657 8.01015222,9.73326657 L8.01015222,9.73326657 Z" id="形状"></path>
                <path d="M3.44444444,13.0419128 C4.05555556,13.5261576 4.72222222,13.9027925 5.38888889,14.1718174 C6.11111111,13.5261576 7.05555556,13.1495228 8,13.1495228 C9,13.1495228 9.88888889,13.5261576 10.6111111,14.1718174 C11.3333333,13.9027925 12,13.5261576 12.5555556,13.0419128 C12.3333333,12.1272282 12.5,11.1587386 12.9444444,10.2978589 C13.4444444,9.49078421 14.2222222,8.84512447 15.1666667,8.57609957 C15.2222222,8.19946472 15.2777778,7.82282987 15.2777778,7.44619502 C15.2777778,7.06956017 15.2222222,6.69292532 15.1666667,6.31629047 C14.2222222,6.04726557 13.4444444,5.40160583 12.9444444,4.59453115 C12.4444444,3.78745647 12.3333333,2.76516187 12.5555556,1.85047723 C11.9444444,1.36623242 11.2777778,0.989597571 10.6111111,0.720572678 C9.88888889,1.36623242 9,1.74286727 8,1.74286727 C7.05555556,1.74286727 6.11111111,1.36623242 5.38888889,0.720572678 C4.66666667,0.989597571 4,1.36623242 3.44444444,1.85047723 C3.66666667,2.76516187 3.5,3.73365149 3.05555556,4.59453115 C2.55555556,5.40160583 1.77777778,6.04726557 0.833333333,6.31629047 C0.777777778,6.69292532 0.722222222,7.06956017 0.722222222,7.44619502 C0.722222222,7.82282987 0.777777778,8.19946472 0.833333333,8.57609957 C1.77777778,8.84512447 2.55555556,9.49078421 3.05555556,10.2978589 C3.5,11.1587386 3.66666667,12.1272282 3.44444444,13.0419128 M5.38888889,14.978892 C4.44444444,14.6560622 3.55555556,14.1718174 2.77777778,13.4723526 C2.66666667,13.3647427 2.61111111,13.2033277 2.66666667,13.0957178 C2.94444444,12.2886431 2.83333333,11.4277634 2.38888889,10.7282987 C1.94444444,9.97502902 1.27777778,9.49078421 0.444444444,9.32936928 C0.277777778,9.2755643 0.166666667,9.16795434 0.166666667,9.0065394 C0.0555555556,8.5222946 0,7.98424481 0,7.5 C0,7.01575519 0.0555555556,6.53151038 0.166666667,5.9934606 C0.222222222,5.83204566 0.333333333,5.7244357 0.444444444,5.67063072 C1.27777778,5.45541081 2,4.971166 2.38888889,4.27170128 C2.83333333,3.51843157 2.88888889,2.71135689 2.66666667,1.90428221 C2.61111111,1.74286727 2.66666667,1.58145234 2.77777778,1.52764736 C3.55555556,0.881987614 4.44444444,0.397742805 5.38888889,0.0211079539 C5.55555556,-0.0326970249 5.66666667,0.0211079539 5.77777778,0.128717911 C6.38888889,0.720572678 7.16666667,1.09720753 8,1.09720753 C8.83333333,1.09720753 9.66666667,0.774377656 10.2222222,0.128717911 C10.3333333,0.0211079539 10.5,-0.0326970249 10.6111111,0.0211079539 C11.5555556,0.343937826 12.4444444,0.828182635 13.2222222,1.52764736 C13.3333333,1.63525732 13.3888889,1.79667225 13.3333333,1.90428221 C13.0555556,2.71135689 13.1666667,3.57223655 13.6111111,4.27170128 C14.0555556,5.02497098 14.7222222,5.50921579 15.5555556,5.67063072 C15.7222222,5.7244357 15.8333333,5.83204566 15.8333333,5.9934606 C15.9444444,6.4777054 16,7.01575519 16,7.5 C16,7.98424481 15.9444444,8.46848962 15.8333333,9.0065394 C15.7777778,9.16795434 15.6666667,9.2755643 15.5555556,9.32936928 C14.7222222,9.54458919 14,10.028834 13.6111111,10.7282987 C13.1666667,11.4815684 13.1111111,12.2886431 13.3333333,13.0957178 C13.3888889,13.2571327 13.3333333,13.4185477 13.2222222,13.4723526 C12.4444444,14.1180124 11.5555556,14.6022572 10.6111111,14.978892 C10.4444444,15.032697 10.3333333,14.978892 10.2222222,14.8712821 C9.61111111,14.2794273 8.83333333,13.9027925 8,13.9027925 C7.16666667,13.9027925 6.33333333,14.2256223 5.77777778,14.8712821 C5.72222222,14.9250871 5.61111111,14.978892 5.5,14.978892 C5.44444444,14.978892 5.38888889,14.978892 5.38888889,14.978892 Z" id="形状"></path>
            </g>
        </g>
    </g>
</svg>