<?xml version="1.0" encoding="UTF-8"?>
<svg width="20px" height="18px" viewBox="0 0 20 18" version="1.1" xmlns="http://www.w3.org/2000/svg" xmlns:xlink="http://www.w3.org/1999/xlink">
    <title>split-line</title>
    <g id="页面-1" stroke="none" stroke-width="1" fill="none" fill-rule="evenodd">
        <g id="页面组件" transform="translate(-440.000000, -452.000000)" fill="#ABABAB" fill-rule="nonzero">
            <g id="split-line" transform="translate(440.000000, 452.000000)">
                <path d="M19.0920245,9.91649288 L0.907975459,9.91649288 C0.407259732,9.91468131 0.00179469784,9.50540427 0,8.99998105 C0.00179469784,8.49455782 0.407259732,8.08528079 0.907975459,8.08346922 L19.0920245,8.08346922 C19.5927403,8.08528079 19.9982053,8.49455782 20,8.99998105 C19.9982053,9.50540427 19.5927403,9.91468131 19.0920245,9.91649288 L19.0920245,9.91649288 Z M19.0920245,1.83302366 L16.3680982,1.83302366 C15.8673824,1.83121209 15.4619174,1.42193506 15.4601227,0.916511829 C15.4619174,0.411088602 15.8673824,0.00181157077 16.3680982,0 L19.0920245,0 C19.5927403,0.00181157077 19.9982053,0.411088602 20,0.916511829 C19.9982053,1.42193506 19.5927403,1.83121209 19.0920245,1.83302366 L19.0920245,1.83302366 Z M11.3619632,1.83302366 L8.63803681,1.83302366 C8.13732108,1.83121209 7.73185605,1.42193506 7.73006135,0.916511829 C7.73185605,0.411088602 8.13732108,0.00181157077 8.63803681,0 L11.3619632,0 C11.8626789,0.00181157077 12.268144,0.411088602 12.2699386,0.916511829 C12.268144,1.42193506 11.8626789,1.83121209 11.3619632,1.83302366 L11.3619632,1.83302366 Z M3.63190184,1.83302703 L0.907975459,1.83302703 C0.407259732,1.83121209 0.00179469784,1.42193506 0,0.916511829 C0.00179469784,0.411088602 0.407259732,0.00181157077 0.907975459,0 L3.63190184,0 C4.13261756,0.00181157077 4.5380826,0.411088602 4.53988064,0.916511829 C4.54053133,1.15978767 4.44507995,1.39328981 4.27465953,1.56531244 C4.10423912,1.73733507 3.87291181,1.83368384 3.63190184,1.83302703 L3.63190184,1.83302703 Z M18.9120654,17.9999621 L18.00409,17.9999621 C17.5033742,17.9981505 17.0979092,17.5888735 17.0961145,17.0834502 C17.0979092,16.578027 17.5033742,16.16875 18.00409,16.1669384 L18.9120654,16.1669384 C19.4127812,16.16875 19.8182462,16.578027 19.8200409,17.0834502 C19.8182462,17.5888735 19.4127812,17.9981505 18.9120654,17.9999621 L18.9120654,17.9999621 Z M14.6339468,17.9999654 L13.7259714,17.9999654 C13.2252557,17.9981505 12.8197906,17.5888735 12.8179959,17.0834502 C12.8197906,16.578027 13.2252557,16.16875 13.7259714,16.1669384 L14.6339468,16.1669384 C15.1346626,16.16875 15.5401276,16.578027 15.5419256,17.0834502 C15.5425763,17.3267261 15.4471249,17.5602282 15.2767045,17.7322509 C15.1062841,17.9042735 14.8749568,18.0006223 14.6339468,17.9999654 L14.6339468,17.9999654 Z M10.3640082,17.9999621 L9.45603273,17.9999621 C8.955317,17.9981505 8.54985197,17.5888735 8.54805727,17.0834502 C8.54985197,16.578027 8.955317,16.16875 9.45603273,16.1669384 L10.3640082,16.1669384 C10.8647239,16.16875 11.2701889,16.578027 11.2719836,17.0834502 C11.2701889,17.5888735 10.8647239,17.9981505 10.3640082,17.9999621 L10.3640082,17.9999621 Z M6.08588957,17.9999621 L5.17791411,17.9999621 C4.67719838,17.9981505 4.27173335,17.5888735 4.26993865,17.0834502 C4.27173335,16.578027 4.67719838,16.16875 5.17791411,16.1669384 L6.08588957,16.1669384 C6.58660529,16.16875 6.99207033,16.578027 6.99386503,17.0834502 C6.99607045,17.3271999 6.9011174,17.561614 6.73035855,17.7339782 C6.5595997,17.9063425 6.32736898,18.0021882 6.08588957,17.9999621 L6.08588957,17.9999621 Z M1.81595092,17.9999621 L0.907975459,17.9999621 C0.407259732,17.9981505 0.00179469784,17.5888735 0,17.0834502 C0.00179469784,16.578027 0.407259732,16.16875 0.907975459,16.1669384 L1.81595092,16.1669384 C2.31666665,16.16875 2.72213168,16.578027 2.72392638,17.0834502 C2.72213168,17.5888735 2.31666665,17.9981505 1.81595092,17.9999621 L1.81595092,17.9999621 Z" id="形状"></path>
            </g>
        </g>
    </g>
</svg>