<?xml version="1.0" encoding="UTF-8"?>
<svg width="2px" height="10px" viewBox="0 0 2 10" version="1.1" xmlns="http://www.w3.org/2000/svg" xmlns:xlink="http://www.w3.org/1999/xlink">
    <title>more</title>
    <g id="页面-1" stroke="none" stroke-width="1" fill="none" fill-rule="evenodd">
        <g id="页面呈现" transform="translate(-349.000000, -82.000000)" fill="#FFFFFF">
            <path d="M350,84 C350.552285,84 351,83.5522847 351,83 C351,82.4477153 350.552285,82 350,82 C349.447715,82 349,82.4477153 349,83 C349,83.5522847 349.447715,84 350,84 Z M350,88 C350.552285,88 351,87.5522847 351,87 C351,86.4477153 350.552285,86 350,86 C349.447715,86 349,86.4477153 349,87 C349,87.5522847 349.447715,88 350,88 Z M350,92 C350.552285,92 351,91.5522847 351,91 C351,90.4477153 350.552285,90 350,90 C349.447715,90 349,90.4477153 349,91 C349,91.5522847 349.447715,92 350,92 Z" id="more"></path>
        </g>
    </g>
</svg>