<?xml version="1.0" encoding="UTF-8"?>
<svg width="14px" height="13px" viewBox="0 0 14 13" version="1.1" xmlns="http://www.w3.org/2000/svg" xmlns:xlink="http://www.w3.org/1999/xlink">
    <title>chengxian</title>
    <g id="页面-1" stroke="none" stroke-width="1" fill="none" fill-rule="evenodd">
        <g id="页面呈现" transform="translate(-18.000000, -87.000000)" fill-rule="nonzero">
            <g id="chengxian" transform="translate(18.000000, 87.000000)">
                <path d="M13.4376936,0 L0.562462323,0 C0.251858129,0 0,0.234373078 0,0.523413821 L0,9.32156398 C0,9.61060472 0.251858129,9.8449778 0.562462323,9.8449778 L6.41910127,9.8449778 L6.41910127,11.9531724 L4.35361462,11.9531724 C4.04301043,11.9531724 3.7911523,12.1875454 3.7911523,12.4765862 C3.7911523,12.7656269 4.04301043,13 4.35361462,13 L9.66122784,13 C9.97183204,13 10.2236902,12.7656269 10.2236902,12.4765862 C10.2236902,12.1875454 9.97183204,11.9531724 9.66122784,11.9531724 L7.54386967,11.9531724 L7.54386967,9.8449778 L13.4375374,9.8449778 C13.7481416,9.8449778 14,9.61060472 14,9.32156398 L14,0.523413821 C14.0001559,0.234373078 13.7482978,0 13.4376936,0 Z" id="形状" fill="#3491FA"></path>
                <path d="M2.75325307,7.05489135 C2.85471941,7.13532909 2.98368561,7.17945752 3.11697871,7.17934773 C3.27634303,7.17934773 3.43476992,7.11668326 3.54601247,6.99469876 L4.85311241,5.56199881 L7.1724883,6.91894915 C7.40653512,7.0559091 7.71260837,7.01432678 7.89478367,6.82080905 L10.2550943,4.31540156 L10.3330578,4.6505318 C10.3988347,4.93302987 10.6983459,5.1124445 11.0019193,5.05123416 C11.3054927,4.99002382 11.4982923,4.71130596 11.4325154,4.42880789 L11.1190989,3.08276201 C11.1156617,3.06720499 11.1114432,3.05179336 11.1064435,3.03638173 C11.0711759,2.9284891 10.9993841,2.83409136 10.9017697,2.76725979 C10.8060779,2.70165011 10.6904942,2.66596666 10.5716356,2.66533949 L8.74019579,2.66533949 C8.42959159,2.66533949 8.17773346,2.89971257 8.17773346,3.18875331 C8.17773346,3.47779406 8.42959159,3.71216713 8.74019579,3.71216713 L9.32703148,3.71216713 L7.36513165,5.79520875 L5.0391937,4.43447821 C4.80233457,4.29591894 4.49204285,4.34040911 4.31111747,4.53887019 L2.68841367,6.31716864 C2.48733339,6.53758402 2.51639394,6.8679163 2.75325307,7.05489135 Z" id="路径" fill="#FFFFFF"></path>
            </g>
        </g>
    </g>
</svg>