<?xml version="1.0" encoding="UTF-8"?>
<svg width="17px" height="18px" viewBox="0 0 17 18" version="1.1" xmlns="http://www.w3.org/2000/svg" xmlns:xlink="http://www.w3.org/1999/xlink">
    <title>single-line-text</title>
    <g id="页面-1" stroke="none" stroke-width="1" fill="none" fill-rule="evenodd">
        <g id="页面组件" transform="translate(-81.000000, -216.000000)" fill="#ABABAB" fill-rule="nonzero">
            <g id="single-line-text" transform="translate(81.000000, 216.000000)">
                <path d="M7.32068362,16.8087459 L7.32068362,2.12454293 L1.03633427,2.12454293 C0.463982658,2.12454293 0,1.6489478 0,1.06227147 C0,0.475595136 0.463982658,0 1.03633427,0 L15.9636657,0 C16.2385187,0 16.5021143,0.111917559 16.6964647,0.311132103 C16.8908151,0.510346648 17,0.780539554 17,1.06227147 C17,1.34400338 16.8908151,1.61419629 16.6964647,1.81341083 C16.5021143,2.01262538 16.2385187,2.12454294 15.9636657,2.12454293 L9.6495761,2.12454293 L9.6495761,16.8087459 C9.6495761,17.4666523 9.12926001,18 8.48741758,18 C8.17840198,18.0012378 7.88162562,17.8762828 7.66268803,17.6527457 C7.44375045,17.4292087 7.32068122,17.125498 7.32068362,16.8087459 L7.32068362,16.8087459 Z" id="路径"></path>
            </g>
        </g>
    </g>
</svg>