<?xml version="1.0" encoding="UTF-8"?>
<svg width="20px" height="17px" viewBox="0 0 20 17" version="1.1" xmlns="http://www.w3.org/2000/svg" xmlns:xlink="http://www.w3.org/1999/xlink">
    <title>multiline-text</title>
    <g id="页面-1" stroke="none" stroke-width="1" fill="none" fill-rule="evenodd">
        <g id="页面组件" transform="translate(-157.000000, -217.000000)" fill="#ABABAB" fill-rule="nonzero">
            <g id="multiline-text" transform="translate(157.000000, 217.000000)">
                <path d="M7.17091058,15.8749187 L7.17091058,2.00651176 L1.01513203,2.00651176 C0.454490089,2.00651176 0,1.5573388 0,1.00325588 C0,0.449172956 0.454490089,0 1.01513203,0 L15.6370669,0 C16.1977088,0 16.6521989,0.449172956 16.6521989,1.00325588 C16.6521989,1.5573388 16.1977088,2.00651176 15.6370669,2.00651176 L9.45215651,2.00651176 L9.45215651,15.8749187 C9.45215651,16.4962744 8.9424855,17 8.31377446,17 C8.01108098,17.0011604 7.72037633,16.8831474 7.50591796,16.6720292 C7.2914596,16.460911 7.17090823,16.1740732 7.17091058,15.8749187 Z M19.2718222,15.3987597 L11.7558115,15.3987597 C11.3450763,15.4465821 11.0355566,15.7906339 11.0355566,16.1993712 C11.0355566,16.6081085 11.3450763,16.9521602 11.7558115,16.9999827 L19.2718222,16.9999827 C19.6825575,16.9521602 19.9920771,16.6081085 19.9920771,16.1993712 C19.9920771,15.7906339 19.6825575,15.4465821 19.2718222,15.3987597 L19.2718222,15.3987597 Z" id="形状"></path>
                <path d="M19.2718222,11.0734645 L11.7558115,11.0734645 C11.3418596,11.1165882 11.0276337,11.461593 11.0276337,11.8729686 C11.0276337,12.2843442 11.3418596,12.6293491 11.7558115,12.6724728 L19.2718222,12.6724728 C19.6857741,12.6293491 20,12.2843442 20,11.8729686 C20,11.461593 19.6857741,11.1165882 19.2718222,11.0734645 L19.2718222,11.0734645 Z" id="路径"></path>
            </g>
        </g>
    </g>
</svg>