<?xml version="1.0" encoding="UTF-8"?>
<svg width="16px" height="16px" viewBox="0 0 16 16" version="1.1" xmlns="http://www.w3.org/2000/svg" xmlns:xlink="http://www.w3.org/1999/xlink">
    <title>theme</title>
    <g id="页面-1" stroke="none" stroke-width="1" fill="none" fill-rule="evenodd">
        <g id="theme">
            <rect id="矩形" fill="#FFE4E4" opacity="0" x="0" y="0" width="16" height="16"></rect>
            <g id="主题备份-2" fill="#FFFFFF" fill-rule="nonzero">
                <path d="M8,0 C3.581722,0 0,3.581722 0,8 C0,12.418278 3.581722,16 8,16 C9.36355556,16 10.3111111,15.3048889 10.4177778,14.2222222 C10.4586667,13.8115556 10.304,13.4417778 10.1546667,13.0826667 C9.90577778,12.4835556 9.72622222,12.0497778 10.3146667,11.4631111 C10.9031111,10.8764444 11.5911111,10.9866667 12.3928889,11.1075556 C12.9102222,11.1857778 13.4417778,11.264 13.9413333,11.1288889 C15.2497778,10.7786667 16,9.63555556 16,8 C15.9951012,3.58375273 12.4162473,0.0048987813 8,0 Z M13.7528889,10.4497778 C13.3973333,10.5457778 12.9617778,10.4817778 12.5084444,10.4106667 C11.6853333,10.288 10.6595556,10.1333333 9.82222222,10.9653333 C8.89422222,11.8897778 9.248,12.7431111 9.50755556,13.3635556 C9.63778911,13.6094688 9.7101469,13.8818746 9.71911111,14.16 C9.60888889,15.2071111 8.37511111,15.2888889 8,15.2888889 C3.97445782,15.2888889 0.711111111,12.0255422 0.711111111,8 C0.711111111,3.97445782 3.97445782,0.711111111 8,0.711111111 C12.0255422,0.711111111 15.2888889,3.97445782 15.2888889,8 C15.2888889,8.75733333 15.0897778,10.0853333 13.7528889,10.4497778 L13.7528889,10.4497778 Z" id="形状"></path>
                <path d="M2.31111111,8 C2.31111111,8.49091978 2.70908022,8.88888889 3.2,8.88888889 C3.69091978,8.88888889 4.08888889,8.49091978 4.08888889,8 C4.08888889,7.50908022 3.69091978,7.11111111 3.2,7.11111111 C2.70908022,7.11111111 2.31111111,7.50908022 2.31111111,8 L2.31111111,8 Z" id="路径"></path>
                <path d="M3.55555556,4.97777778 C3.55555556,5.46869756 3.95352467,5.86666667 4.44444444,5.86666667 C4.93536422,5.86666667 5.33333333,5.46869756 5.33333333,4.97777778 C5.33333333,4.486858 4.93536422,4.08888889 4.44444444,4.08888889 C3.95352467,4.08888889 3.55555556,4.486858 3.55555556,4.97777778 L3.55555556,4.97777778 Z" id="路径"></path>
                <path d="M6.4,3.37777778 C6.4,3.6953472 6.56942125,3.98879345 6.84444443,4.14757817 C7.11946762,4.30636288 7.45831016,4.30636288 7.73333334,4.14757817 C8.00835653,3.98879345 8.17777778,3.6953472 8.17777778,3.37777778 C8.17777778,3.06020836 8.00835653,2.7667621 7.73333334,2.60797739 C7.45831016,2.44919267 7.11946762,2.44919267 6.84444443,2.60797739 C6.56942125,2.7667621 6.4,3.06020836 6.4,3.37777778 L6.4,3.37777778 Z" id="路径"></path>
                <path d="M9.6,3.91111111 C9.6,4.40203089 9.99796911,4.8 10.4888889,4.8 C10.9798087,4.8 11.3777778,4.40203089 11.3777778,3.91111111 C11.3777778,3.42019133 10.9798087,3.02222222 10.4888889,3.02222222 C9.99796911,3.02222222 9.6,3.42019133 9.6,3.91111111 Z" id="路径"></path>
                <path d="M11.7333333,6.4 C11.7333333,6.89091978 12.1313024,7.28888889 12.6222222,7.28888889 C13.113142,7.28888889 13.5111111,6.89091978 13.5111111,6.4 C13.5111111,5.90908022 13.113142,5.51111111 12.6222222,5.51111111 C12.1313024,5.51111111 11.7333333,5.90908022 11.7333333,6.4 L11.7333333,6.4 Z" id="路径"></path>
            </g>
        </g>
    </g>
</svg>