<?xml version="1.0" encoding="UTF-8"?>
<svg width="18px" height="18px" viewBox="0 0 18 18" version="1.1" xmlns="http://www.w3.org/2000/svg" xmlns:xlink="http://www.w3.org/1999/xlink">
    <title>time</title>
    <g id="页面-1" stroke="none" stroke-width="1" fill="none" fill-rule="evenodd">
        <g id="页面组件" transform="translate(-80.000000, -452.000000)" fill="#ABABAB" fill-rule="nonzero">
            <g id="time" transform="translate(80.000000, 452.000000)">
                <path d="M15.3666487,2.63333407 C11.8561912,-0.877778023 6.14381979,-0.877778023 2.63331848,2.63333407 C-0.877772828,6.1437906 -0.877772828,11.8562039 2.63331848,15.3666823 C6.14381979,18.8777726 11.856213,18.8777726 15.3666487,15.3666823 C18.8777838,11.8562039 18.8777838,6.1437906 15.3666487,2.63333407 Z M14.4528686,14.4528369 C11.4461745,17.4602076 6.55318087,17.4595301 3.54716417,14.4528369 C0.539814485,11.4461437 0.539814485,6.55382899 3.54716417,3.54680799 C6.55320272,0.540420715 11.4461963,0.539786993 14.4528686,3.54680799 C17.4595409,6.55319527 17.4595409,11.4467993 14.4528686,14.4528369 Z" id="形状"></path>
                <path d="M13.4727664,9.20277659 L9.07269748,9.20277659 L9.07330936,4.33500211 C9.07330936,4.01202367 8.80931047,3.74863673 8.486026,3.74863673 C8.16274154,3.74863673 7.89998822,4.01202369 7.89998822,4.33500211 L7.89998822,9.35583077 C7.89998822,9.37366233 7.87835435,9.79331577 8.15826179,10.0917102 C8.33618406,10.2798375 8.58617556,10.3754855 8.90884815,10.3754855 L13.4727883,10.3761629 C13.7961165,10.3761629 14.0594598,10.1134097 14.0594598,9.78944787 C14.0594598,9.46740912 13.7967065,9.20467776 13.4727664,9.20277659 Z" id="路径"></path>
            </g>
        </g>
    </g>
</svg>