<?xml version="1.0" encoding="UTF-8"?>
<svg width="14px" height="9px" viewBox="0 0 14 9" version="1.1" xmlns="http://www.w3.org/2000/svg" xmlns:xlink="http://www.w3.org/1999/xlink">
    <title>visit</title>
    <g id="页面-1" stroke="none" stroke-width="1" fill="none" fill-rule="evenodd">
        <g id="门户列表" transform="translate(-1176.000000, -545.000000)" fill="#FFFFFF" fill-rule="nonzero">
            <g id="visit" transform="translate(1176.000000, 545.000000)">
                <path d="M7,6.96230703 C5.59301272,6.96230703 4.448393,5.85762866 4.448393,4.50007576 C4.448393,3.14252285 5.59316973,2.03784448 7,2.03784448 C8.40683027,2.03784448 9.551607,3.14252285 9.551607,4.50007576 C9.551607,5.85762866 8.40698728,6.96230703 7,6.96230703 L7,6.96230703 Z M7,2.71692396 C5.98114714,2.71692396 5.15227917,3.51675898 5.15227917,4.49992424 C5.15227917,5.48308951 5.98114714,6.28292453 7,6.28292453 C8.01885286,6.28292453 8.84772083,5.48308951 8.84772083,4.49992424 C8.84772083,3.51675898 8.01900987,2.71692396 7,2.71692396 L7,2.71692396 Z" id="形状"></path>
                <path d="M7,9 C3.99494146,9 1.25947304,7.28805912 0.0308517414,4.63870979 C-0.0102839138,4.55049641 -0.0102839138,4.44950359 0.0308517414,4.36129021 C1.25947304,1.71178936 3.99494146,0 7,0 C10.0050585,0 12.740527,1.71194088 13.9691483,4.36129021 C14.0102839,4.44950359 14.0102839,4.55049641 13.9691483,4.63870979 C12.740684,7.28821064 10.0050585,9 7,9 Z M0.739605295,4.49992424 C1.88501007,6.8260972 4.32498133,8.32076901 7,8.32076901 C9.67501867,8.32076901 12.1149899,6.82624872 13.2603947,4.49992424 C12.1149899,2.17375128 9.67501867,0.679079477 7,0.679079477 C4.32498133,0.679079477 1.88501007,2.17375128 0.739605295,4.49992424 Z" id="形状"></path>
            </g>
        </g>
    </g>
</svg>