<?xml version="1.0" encoding="UTF-8"?>
<svg width="69px" height="80px" viewBox="0 0 69 80" version="1.1" xmlns="http://www.w3.org/2000/svg" xmlns:xlink="http://www.w3.org/1999/xlink">
    <title>yemian</title>
    <g id="页面-1" stroke="none" stroke-width="1" fill="none" fill-rule="evenodd">
        <g id="新建门户" transform="translate(-558.000000, -566.000000)" fill="#7F7F7F" fill-rule="nonzero">
            <g id="yemian" transform="translate(592.500000, 606.000521) scale(1, -1) translate(-592.500000, -606.000521) translate(558.000000, 566.000000)">
                <path d="M1.72727273,2.15186803 L66.7272727,2.15186803 L66.7272727,53.9642095 L45.0628165,53.9642095 C44.1108091,53.9573713 43.195179,54.3180851 42.5182669,54.9666386 C41.8413549,55.6151921 41.4588893,56.4981915 41.4553894,57.4205071 L41.4553894,78.151868 L1.72727273,78.151868 L1.72727273,2.15186803 Z M3.1334836,6.87396696e-05 C2.30655081,-0.00540206055 1.51121614,0.315878074 0.923236742,0.893530881 C0.335257346,1.47118369 0.00304006909,2.25765248 0,3.07913934 L0,76.9219024 C0.00304006909,77.7433893 0.335257346,78.529858 0.923236742,79.1075109 C1.51121614,79.6851637 2.30655081,80.0064438 3.1334836,80.000973 L43.9090909,80.000973 L69,56.182673 L69,3.07913934 C68.9969599,2.25765248 68.6647427,1.47118369 68.0767633,0.893530881 C67.4887839,0.315878074 66.6934492,-0.00540206055 65.8665164,6.87396696e-05 L3.1334836,6.87396696e-05 Z" id="形状"></path>
                <polygon id="路径" points="66.6371254 56.1720857 43.5858867 77.7919189 43.5858867 56.1720857"></polygon>
            </g>
        </g>
    </g>
</svg>